<svg xmlns="http://www.w3.org/2000/svg" xmlns:xlink="http://www.w3.org/1999/xlink" id="Слой_1" x="0" y="0" version="1.1" viewBox="0 0 459 363" xml:space="preserve" style="enable-background:new 0 0 459 363"><style type="text/css">.st0{fill:#5f5fff}.st1{fill:#030047}.st2{fill:#fff}.st3{fill:#ffcc3e}.st4{fill:#e4e4ef}.st5{fill:#8facff}.st6{fill:#ff3e6c}</style><g id="_x32_"><g id="Bottom_31_"><g id="Tablet_4_"><g><path d="M380.6,249c-2.1,8.8-9.9,16-20.2,16H167c-13.8,0-26.7-5.9-35.7-16c-2.4-2.6-4.4-5.6-6.2-8.7L69.4,138.8 c-0.8-1.5-1.4-3-1.8-4.5c-3.6-12.8,5.9-26.3,20.1-26.3h193.3c0.6,0,1.3,0,1.9,0c15.3,0.6,29,9.4,36.6,22.7l59.2,103.5 C381.2,239,381.7,244.2,380.6,249z" class="st0"/></g><g><path d="M321.5,134.3H67.5c-3.6-12.8,5.9-26.3,20.1-26.3c0,0,194.6,0,195.2,0c15.3,0.6,29,9.4,36.6,22.7 L321.5,134.3z" class="st1"/></g><g><path d="M380.6,249c-2.1,8.8-9.9,16-20.2,16H167c-13.8,0-26.7-6-35.7-16H380.6z" class="st1"/></g><g><path d="M126.9,126.3H95.3c-2.1,0-3.8-1.7-3.8-3.8v0c0-2.1,1.7-3.8,3.8-3.8h31.7c2.1,0,3.8,1.7,3.8,3.8v0 C130.8,124.6,129,126.3,126.9,126.3z" class="st2"/></g><g><path d="M279,126.3h-15.6c-2.1,0-3.8-1.7-3.8-3.8v0c0-2.1,1.7-3.8,3.8-3.8H279c2.1,0,3.8,1.7,3.8,3.8v0 C282.9,124.6,281.1,126.3,279,126.3z" class="st2"/></g></g><g id="Body_43_"><g><path d="M219.4,151.3c-27.5-5.3-45.3,1.3-54.1,6.3c-4,2.3-4.5,7.8-1,10.7c5.3,4.5,14.5,10.2,28.1,12.1 c23.6,3.3,37-3.8,40.4-12.8C236.3,158.7,225.9,152.5,219.4,151.3z" class="st3"/></g><g><path d="M215.2,177.1c-0.9-2.4-0.5-5.1,0-7.6c0.5-2.4,1.7-4.1,0.4-6.2c-3.9-6.3-14.7-5.6-20.7-6.3 c-3.7-0.4-10.8-2.2-14.8-5.3c-6.4,1.7-11.4,3.9-14.9,5.9c-3.9,2.3-4.4,7.7-0.9,10.7c5.3,4.5,14.5,10.2,28.1,12.1 c9.9,1.4,18,0.9,24.3-0.7C216.1,178.9,215.6,178.1,215.2,177.1z" class="st1"/></g></g><g id="Waves_2_"><g><path d="M187.6,219.2c-0.1,0-0.1,0-0.2,0c-11.1-3.3-23.2-17.2-21.6-29.5c0.1-0.4,0.4-0.7,0.8-0.6 c0.4,0.1,0.7,0.4,0.6,0.8c-1.4,11.3,10.1,24.7,20.6,27.9c0.4,0.1,0.6,0.5,0.5,0.9C188.2,219,187.9,219.2,187.6,219.2z" class="st2"/></g><g><path d="M158.4,173.2c-0.1,0-0.3,0-0.4-0.1c-3.5-2.2-5.9-5.7-6.3-9.2c-0.4-3.3,0.9-6.6,3.7-9.5 c0.3-0.3,0.8-0.3,1.1,0c0.3,0.3,0.3,0.8,0,1.1c-2.5,2.5-3.6,5.4-3.2,8.2c0.4,3.1,2.5,6.2,5.6,8.2c0.3,0.2,0.5,0.7,0.2,1 C158.9,173,158.7,173.2,158.4,173.2z" class="st2"/></g><g><path d="M161.9,182.7C161.9,182.7,161.9,182.7,161.9,182.7c-4.1-0.3-11.4-3.1-15-9.4c-0.2-0.4-0.1-0.8,0.3-1 c0.4-0.2,0.8-0.1,1,0.3c3.3,5.8,10,8.3,13.7,8.6c0.4,0,0.7,0.4,0.7,0.8C162.7,182.4,162.3,182.7,161.9,182.7z" class="st2"/></g><g><path d="M158.4,228.3c-0.1,0-0.1,0-0.2,0c-0.1,0-8-1.9-9.1-9.7c-0.1-0.4,0.2-0.8,0.6-0.8c0.4-0.1,0.8,0.2,0.8,0.6 c0.9,6.8,7.6,8.4,7.9,8.5c0.4,0.1,0.7,0.5,0.6,0.9C159.1,228.1,158.8,228.3,158.4,228.3z" class="st2"/></g><g><path d="M302.3,212.8c-0.3,0-0.7-0.2-0.7-0.6c-0.1-0.4,0.2-0.8,0.6-0.9c10.1-2.1,16-9.9,18.1-15.9 c0.1-0.4,0.6-0.6,1-0.5c0.4,0.1,0.6,0.6,0.5,1c-2.9,8.4-10.4,15.1-19.2,16.9C302.4,212.8,302.3,212.8,302.3,212.8z" class="st2"/></g><g><path d="M300.8,222.2c-0.3,0-0.7-0.2-0.7-0.6c-0.1-0.4,0.2-0.8,0.6-0.9c6.8-1.4,12-3.9,16.2-7.8 c0.3-0.3,0.8-0.3,1.1,0c0.3,0.3,0.3,0.8,0,1.1c-4.4,4.1-9.9,6.8-16.9,8.2C300.9,222.2,300.9,222.2,300.8,222.2z" class="st2"/></g></g></g><g id="Background_28_"><g id="Objects_46_"><g><polygon points="248.1 203.9 239 228.5 263.7 226.8" class="st4"/></g><g><rect width="19.5" height="19.5" x="270.3" y="165.3" class="st4" transform="matrix(0.3896 -0.921 0.921 0.3896 9.7018 364.796)"/></g><g><polygon points="300.4 185.1 295.3 179.3 302.3 177.7" class="st4"/></g></g><g><path d="M273.3,158c-0.2,0-0.5-0.1-0.6-0.3l-3.5-5.5c-0.2-0.3-0.1-0.8,0.2-1c0.3-0.2,0.8-0.1,1,0.2l3.5,5.5 c0.2,0.3,0.1,0.8-0.2,1C273.6,158,273.5,158,273.3,158z" class="st5"/></g><g><path d="M285,150.1c-0.3,0-0.5-0.1-0.7-0.4c-0.2-0.4-0.1-0.8,0.3-1l4-2.3c0.4-0.2,0.8-0.1,1,0.3 c0.2,0.4,0.1,0.8-0.3,1l-4,2.3C285.3,150.1,285.1,150.1,285,150.1z" class="st5"/></g><g><path d="M224.1,232.1c-0.2,0-0.4-0.1-0.5-0.2c-0.3-0.3-0.3-0.8,0-1.1l3.1-2.9c0.3-0.3,0.8-0.3,1.1,0 c0.3,0.3,0.3,0.8,0,1.1l-3.1,2.9C224.5,232.1,224.3,232.1,224.1,232.1z" class="st5"/></g></g><g id="Top_30_"><g id="Hand__x2B__Laptop_2_"><g><path d="M265.7,177.5L227,197.9c-2.6,1.4-2.4,5.1,0.3,6.2l28.9,13.7c0.9,0.4,1.9,0.3,2.8-0.1l38.3-19.5 c2.5-1.3,2.5-4.9,0-6.1l-28.6-14.6C267.8,176.9,266.6,176.9,265.7,177.5z" class="st1"/></g><g><path d="M227.6,204.2l46-24.4l-4.8-2.4c-1-0.5-2.2-0.5-3.1,0L227,197.9c-2.6,1.4-2.4,5.1,0.3,6.2L227.6,204.2z" class="st5"/></g><g><path d="M294.5,190.6l-45.2,24l6.9,3.3c0.9,0.4,1.9,0.3,2.8-0.1l40-20.4c1.8-0.9,1.8-3.5,0-4.4L294.5,190.6z" class="st5"/></g><g><g><path d="M265.5,182.7c-9.4,1.2-7.1,12.1-4.3,13c2.2,0.7,1.1-4.7,1.1-4.7l7.4-1.4L265.5,182.7z" class="st3"/></g><g><path d="M267.8,197c0,0-1.1,2.4-3.6,1c-3-1.7,0.9-8.4-2.4-15.6c-2.6-5.8-10.8-11-19.5-11.8 c2.4-2.3,3.9-5.8,4.7-9.7c0.4-1.8,0.4-3.5,0.2-5.2c26.9,2.4,34.5,18.5,34.9,27.6C282.7,192.7,271.5,199.2,267.8,197z" class="st3"/></g><g><path d="M263.1,200.8c-0.4,0-0.7-0.3-0.7-0.7l-0.7-23.8c0-0.4,0.3-0.8,0.7-0.8c0.4,0,0.8,0.3,0.8,0.7l0.7,23.8 C263.9,200.4,263.6,200.8,263.1,200.8C263.1,200.8,263.1,200.8,263.1,200.8z" class="st6"/></g><g><path d="M264,185.5c-0.1,0.6-0.3,1.2-0.4,1.8c-0.1,0.6,0.8,0.9,1,0.3l0.4-1.7C265.1,185.1,264.1,184.8,264,185.5z" class="st1"/></g><g><path d="M268.8,188.4c-0.4,2.2-0.8,4.4-1.1,6.6c-0.1,0.6,0.9,0.9,1,0.3c0.4-2.2,0.8-4.4,1.1-6.6 C269.9,188,268.9,187.8,268.8,188.4z" class="st1"/></g></g><g><path d="M273.8,189.1c-0.1,2.3-0.4,4.3-1.9,6.2c-0.4,0.5,0.3,1.2,0.7,0.7c1.7-2.1,2.1-4.3,2.2-6.9 C274.9,188.5,273.9,188.5,273.8,189.1z" class="st1"/></g><g><path d="M259.6,214.2c-0.3,0-0.5-0.1-0.7-0.4c-0.2-0.4-0.1-0.8,0.3-1l8.1-4.5c0.4-0.2,0.8-0.1,1,0.3 c0.2,0.4,0.1,0.8-0.3,1l-8.1,4.5C259.8,214.2,259.7,214.2,259.6,214.2z" class="st2"/></g><g><path d="M285,200.6c-0.3,0-0.5-0.1-0.7-0.4c-0.2-0.4-0.1-0.8,0.3-1l8.1-4.5c0.4-0.2,0.8-0.1,1,0.3 c0.2,0.4,0.1,0.8-0.3,1l-8.1,4.5C285.3,200.6,285.1,200.6,285,200.6z" class="st2"/></g><g><path d="M263.6,188.1c-1.2,5.5-1.1,9.3,0.5,9.9C265.8,198.6,263.6,188.1,263.6,188.1z" class="st3"/></g></g><g id="Hand_36_"><g><path d="M185.4,162.4c-9.8,4.7-9.8,11.5-5.9,14.3s26.4,4.9,31.4-1.9c5-6.8,1.9-13.4-7.8-15.1 C199.4,159,190.5,159.9,185.4,162.4z" class="st3"/></g><g><path d="M195.9,161.5c-1.9-0.7-4-0.5-5.6,0.7c-26.9,19.1-15.6,52.3,25.9,56.2c7.6,0.7,12.5-4.5,16.7-2.1 c2.3,1.3,6-1.5,7.4-0.6c4.6,2.8,5.7-1.9,5.7-1.9c0.8,0.2,3.1-2.2,1.9-4.1c0,0,2.4-1.7-0.1-4.8c-5.1-6.4-20.2-7.8-28.1-9.5 s-24.6-3.6-17.6-14.5c0.1-0.1,0.1-0.2,0.2-0.3c4.4-6.9,0.6-13.4-7.1-16.3L195.9,161.5z" class="st3"/></g><g><path d="M245,213.2c-1.7-2.1-4.4-3.3-7.1-3c-0.6,0.1-0.6,1.1,0,1c2.5-0.2,4.8,0.8,6.4,2.7 C244.7,214.4,245.4,213.7,245,213.2z" class="st1"/></g><g><path d="M247,208c-1.6-1.8-3.9-2.9-6.4-3c-0.6,0-0.6,1,0,1c2.2,0.1,4.2,1,5.7,2.7C246.7,209.2,247.4,208.5,247,208z" class="st1"/></g><g><path d="M179.9,173.7c-0.1,0-0.3,0-0.4-0.1c-0.4-0.2-0.5-0.7-0.3-1c0.1-0.2,3.3-5.8,8.7-9.5c0.3-0.2,0.8-0.1,1,0.2 c0.2,0.3,0.1,0.8-0.2,1c-5.1,3.5-8.2,8.9-8.2,9C180.5,173.5,180.2,173.7,179.9,173.7z" class="st0"/></g><g><path d="M203.6,178.4c-0.1,0-0.3,0-0.4-0.1c-0.3-0.2-0.4-0.7-0.2-1l3.5-5.2c0.2-0.3,0.7-0.4,1-0.2 c0.3,0.2,0.4,0.7,0.2,1l-3.5,5.2C204.1,178.3,203.9,178.4,203.6,178.4z" class="st0"/></g></g><g id="Wire"><g><path d="M302.4,201.1h-7.2c-0.4,0-0.8-0.3-0.8-0.8s0.3-0.8,0.8-0.8h7.2c3.3,0,5.9-2.7,5.9-5.9V176 c0-4.1,3.3-7.4,7.4-7.4h45.1c4.1,0,7.4,3.3,7.4,7.4v2.1c0,4.1-3.3,7.4-7.4,7.4h-8.1c-0.4,0-0.8-0.3-0.8-0.8s0.3-0.8,0.8-0.8h8.1 c3.3,0,5.9-2.7,5.9-5.9V176c0-3.3-2.7-5.9-5.9-5.9h-45.1c-3.3,0-5.9,2.7-5.9,5.9v17.7C309.9,197.8,306.5,201.1,302.4,201.1z" class="st1"/></g><g><path d="M292,201l4,1.2c0.5,0.1,1,0.1,1.5-0.2l1.4-0.7c1.5-0.8,1.3-3.1-0.3-3.6l0,0L292,201z" class="st1"/></g><g><path d="M348.7,181.9l4.5,7.9h0c2.7,0,4.4-2.9,3.1-5.3l-0.4-0.8c-0.6-1.1-1.8-1.8-3.1-1.8H348.7z" class="st1"/></g></g><g id="Head_55_"><g><path d="M227.2,148.2c-8.5-7.1-17.4-8.3-21.4,1.1c0,0-10,0.4-5.7,8.2c0,0-6.8,6.3,4.3,11.4 c11,5.2,21.8-10.5,21.8-10.5L227.2,148.2z" class="st6"/></g><g><path d="M245.6,160.2c-0.8,3.9-2.3,7.4-4.7,9.7c-2.5,2.4-6.1,3.3-11,1.8c-6.6-2-11.4-9-9.7-16.8c0,0,0,0,0,0 c1.6-7.8,8.7-13,15.7-11.5c0.2,0,0.5,0.1,0.7,0.2c0.4,0.1,0.8,0.2,1.2,0.4c4.3,1.7,7.3,5.8,7.9,10.7c0,0.1,0.1,0.3,0.1,0.4 C246,156.7,246,158.5,245.6,160.2z" class="st3"/></g><g><path d="M245.8,154.6c-6.5,4.1-19.1,2.7-25.6,0.3h0c0,0,0,0,0,0c1.6-7.8,8.7-13,15.7-11.5c0.2,0,0.5,0.1,0.7,0.2 c0.4,0.1,0.8,0.2,1.2,0.4C242.1,145.7,245.1,149.8,245.8,154.6z" class="st5"/></g><g><ellipse cx="236.1" cy="159.4" class="st1" rx="1" ry="1" transform="matrix(0.8221 -0.5694 0.5694 0.8221 -48.7563 162.8122)"/></g><g><path d="M223.1,155.8c-7.6-3.2-11.8,2.1-9.5,6.1c1.9,3.2,6.5,5.7,11.1,2.8C229.2,161.7,223.1,155.8,223.1,155.8z" class="st3"/></g><g><path d="M222.4,160.6c-1.1-2.1-3.5-3.1-5.8-2.5c-0.6,0.2-0.4,1.2,0.2,1c1.8-0.5,3.8,0.2,4.7,1.9 C221.8,161.6,222.7,161.2,222.4,160.6z" class="st1"/></g><g><path d="M240,166.9c0.9-2,1.6-4.2,1.9-6.4c0.1-0.6-0.9-0.8-1-0.2c-0.3,2.1-0.9,4.2-1.8,6.1 C238.8,167.1,239.7,167.5,240,166.9z" class="st1"/></g><g><path d="M231.8,173.7c-0.1,0-0.1,0-0.2,0c-5-1.4-6.6-3.9-6.7-4c-0.2-0.3-0.1-0.8,0.2-1c0.3-0.2,0.8-0.1,1,0.2 c0,0,1.5,2.1,5.8,3.4c0.4,0.1,0.6,0.5,0.5,0.9C232.4,173.4,232.1,173.7,231.8,173.7z" class="st0"/></g></g></g></g></svg>