<svg xmlns="http://www.w3.org/2000/svg" xmlns:xlink="http://www.w3.org/1999/xlink" id="Слой_1" x="0" y="0" version="1.1" viewBox="0 0 459 363" xml:space="preserve" style="enable-background:new 0 0 459 363"><style type="text/css">.st0{fill:#5f5fff}.st1{fill:#030047}.st2{fill:#fff}.st3{fill:#ffcc3e}.st4{fill:#8facff}.st5{fill:#ff3e6c}.st6{fill:#dedeff}</style><g id="_x33_"><g id="Bottom_32_"><g id="Tablet_5_"><g><path d="M384.5,254.6c-2.1,8.8-9.9,16-20.2,16H171c-13.8,0-26.7-5.9-35.7-16c-2.4-2.6-4.4-5.6-6.2-8.7L73.3,144.4 c-0.8-1.5-1.4-3-1.8-4.5c-3.6-12.8,5.9-26.3,20.1-26.3h193.3c0.6,0,1.3,0,1.9,0c15.3,0.6,29,9.4,36.6,22.7l59.2,103.5 C385.2,244.6,385.7,249.8,384.5,254.6z" class="st0"/></g><g><path d="M325.4,139.9H71.5c-3.6-12.8,5.9-26.3,20.1-26.3c0,0,194.6,0,195.2,0c15.3,0.6,29,9.4,36.6,22.7 L325.4,139.9z" class="st1"/></g><g><path d="M384.5,254.6c-2.1,8.8-9.9,16-20.2,16H171c-13.8,0-26.7-6-35.7-16H384.5z" class="st1"/></g><g><path d="M130.9,131.9H99.2c-2.1,0-3.8-1.7-3.8-3.8l0,0c0-2.1,1.7-3.8,3.8-3.8h31.7c2.1,0,3.8,1.7,3.8,3.8l0,0 C134.7,130.2,133,131.9,130.9,131.9z" class="st2"/></g><g><path d="M283,131.9h-15.6c-2.1,0-3.8-1.7-3.8-3.8l0,0c0-2.1,1.7-3.8,3.8-3.8H283c2.1,0,3.8,1.7,3.8,3.8l0,0 C286.8,130.2,285.1,131.9,283,131.9z" class="st2"/></g></g><g id="Body_44_"><g><path d="M223.3,156.9c-27.5-5.3-45.3,1.3-54.1,6.3c-4,2.3-4.5,7.8-1,10.7c5.3,4.5,14.5,10.2,28.1,12.1 c23.6,3.3,37-3.8,40.4-12.8C240.3,164.3,229.9,158.1,223.3,156.9z" class="st3"/></g><g><path d="M219.2,182.7c-0.9-2.4-0.5-5.1,0-7.6c0.5-2.4,1.7-4.1,0.4-6.2c-3.9-6.3-14.7-5.6-20.7-6.3 c-3.7-0.4-10.8-2.2-14.8-5.3c-6.4,1.7-11.4,3.9-14.9,5.9c-3.9,2.3-4.4,7.7-0.9,10.7c5.3,4.5,14.5,10.2,28.1,12.1 c9.9,1.4,18,0.9,24.3-0.7C220.1,184.5,219.5,183.7,219.2,182.7z" class="st1"/></g></g><g id="Waves_3_"><g><path d="M191.6,224.8c-0.1,0-0.1,0-0.2,0c-11.1-3.3-23.2-17.2-21.6-29.5c0.1-0.4,0.4-0.7,0.8-0.6 c0.4,0.1,0.7,0.4,0.6,0.8c-1.4,11.3,10.1,24.7,20.6,27.9c0.4,0.1,0.6,0.5,0.5,0.9C192.2,224.6,191.9,224.8,191.6,224.8z" class="st2"/></g><g><path d="M162.4,178.7c-0.1,0-0.3,0-0.4-0.1c-3.5-2.2-5.9-5.7-6.3-9.2c-0.4-3.3,0.9-6.6,3.7-9.5 c0.3-0.3,0.8-0.3,1.1,0c0.3,0.3,0.3,0.8,0,1.1c-2.5,2.5-3.6,5.4-3.2,8.2c0.4,3.1,2.5,6.2,5.6,8.2c0.3,0.2,0.5,0.7,0.2,1 C162.9,178.6,162.7,178.7,162.4,178.7z" class="st2"/></g><g><path d="M165.9,188.2C165.9,188.2,165.9,188.2,165.9,188.2c-4.1-0.3-11.4-3.1-15-9.4c-0.2-0.4-0.1-0.8,0.3-1 c0.4-0.2,0.8-0.1,1,0.3c3.3,5.8,10,8.3,13.7,8.6c0.4,0,0.7,0.4,0.7,0.8C166.6,187.9,166.3,188.2,165.9,188.2z" class="st2"/></g><g><path d="M162.4,233.9c-0.1,0-0.1,0-0.2,0c-0.1,0-8-1.9-9.1-9.7c-0.1-0.4,0.2-0.8,0.6-0.8c0.4-0.1,0.8,0.2,0.8,0.6 c0.9,6.8,7.9,8.5,7.9,8.5c0.4,0.1,0.7,0.5,0.6,0.9C163.1,233.7,162.8,233.9,162.4,233.9z" class="st2"/></g></g></g><g id="Top_31_"><g id="Buttons_5_"><g><rect width="40.4" height="40.4" x="297.5" y="146.4" class="st4"/></g><g><g><path d="M330.5,180.4c-0.2,0-0.4-0.1-0.5-0.2l-25.8-25.8c-0.3-0.3-0.3-0.8,0-1.1s0.8-0.3,1.1,0l25.8,25.8 c0.3,0.3,0.3,0.8,0,1.1C330.9,180.4,330.7,180.4,330.5,180.4z" class="st2"/></g><g><path d="M304.7,180.4c-0.2,0-0.4-0.1-0.5-0.2c-0.3-0.3-0.3-0.8,0-1.1l25.8-25.8c0.3-0.3,0.8-0.3,1.1,0 s0.3,0.8,0,1.1l-25.8,25.8C305.1,180.4,304.9,180.4,304.7,180.4z" class="st2"/></g></g><g><rect width="21.8" height="21.8" x="316" y="197.5" class="st4"/></g><g><path d="M365.2,169.5h-18.6c-0.4,0-0.8-0.3-0.8-0.8s0.3-0.8,0.8-0.8h18.6c0.4,0,0.8,0.3,0.8,0.8 S365.6,169.5,365.2,169.5z" class="st5"/></g><g><path d="M332.5,209.2h-11.3c-0.4,0-0.8-0.3-0.8-0.8s0.3-0.8,0.8-0.8h11.3c0.4,0,0.8,0.3,0.8,0.8 S333,209.2,332.5,209.2z" class="st5"/></g><g><path d="M283.7,193.7c-0.2,0-0.5-0.1-0.6-0.3c-0.2-0.3-0.1-0.8,0.2-1l7.5-5.1c0.3-0.2,0.8-0.1,1,0.2 c0.2,0.3,0.1,0.8-0.2,1l-7.5,5.1C284,193.7,283.8,193.7,283.7,193.7z" class="st6"/></g><g><path d="M293.2,199.4c-0.2,0-0.3,0-0.5-0.2c-0.3-0.3-0.4-0.7-0.1-1.1l4.3-5.7c0.3-0.3,0.7-0.4,1.1-0.1 c0.3,0.3,0.4,0.7,0.1,1.1l-4.3,5.7C293.6,199.3,293.4,199.4,293.2,199.4z" class="st6"/></g></g><g><path d="M246.1,234.8c-2.4,0-4.9-0.3-7.6-0.9c-0.4-0.1-0.7-0.5-0.6-0.9c0.1-0.4,0.5-0.7,0.9-0.6 c14.7,3.2,24.6-3.7,27.4-8.7c0.2-0.4,0.7-0.5,1-0.3c0.4,0.2,0.5,0.7,0.3,1C265,228.9,257.4,234.8,246.1,234.8z" class="st2"/></g><g><path d="M242.2,228.7c-2.4,0-4.6-0.3-6.4-0.9c-0.4-0.1-0.6-0.5-0.5-0.9c0.1-0.4,0.5-0.6,0.9-0.5 c4.9,1.5,13.1,1.1,18.8-2.9c0.3-0.2,0.8-0.2,1,0.2c0.2,0.3,0.2,0.8-0.2,1C251.9,227.5,246.8,228.7,242.2,228.7z" class="st2"/></g><g id="Hand_37_"><g><path d="M189.4,167.9c-9.8,4.7-9.8,11.5-5.9,14.3s26.4,4.9,31.4-1.9c5-6.8,1.9-13.4-7.8-15.1 C203.4,164.6,194.5,165.5,189.4,167.9z" class="st3"/></g><g><path d="M199.9,167.1c-1.9-0.7-4-0.5-5.6,0.7c-26.9,19.1-15.6,52.3,25.9,56.2c7.6,0.7,12.5-4.5,16.7-2.1 c2.3,1.3,6-1.5,7.4-0.6c4.6,2.8,5.7-1.9,5.7-1.9c0.8,0.2,3.1-2.2,1.9-4.1c0,0,2.4-1.7-0.1-4.8c-5.1-6.4-20.2-7.8-28.1-9.5 s-24.6-3.6-17.6-14.5c0.1-0.1,0.1-0.2,0.2-0.3c4.4-6.9,0.6-13.4-7.1-16.3L199.9,167.1z" class="st3"/></g><g><path d="M249,218.8c-1.7-2.1-4.4-3.3-7.1-3c-0.6,0.1-0.6,1.1,0,1c2.5-0.2,4.8,0.8,6.4,2.7 C248.7,220,249.4,219.3,249,218.8z" class="st1"/></g><g><path d="M251,213.6c-1.6-1.8-3.9-2.9-6.4-3c-0.6,0-0.6,1,0,1c2.2,0.1,4.2,1,5.7,2.7 C250.7,214.8,251.4,214.1,251,213.6z" class="st1"/></g><g><path d="M183.9,179.2c-0.1,0-0.3,0-0.4-0.1c-0.4-0.2-0.5-0.7-0.3-1c0.1-0.2,3.3-5.8,8.7-9.5c0.3-0.2,0.8-0.1,1,0.2 c0.2,0.3,0.1,0.8-0.2,1c-5.1,3.5-8.2,8.9-8.2,9C184.4,179.1,184.2,179.2,183.9,179.2z" class="st0"/></g><g><path d="M207.6,184c-0.1,0-0.3,0-0.4-0.1c-0.3-0.2-0.4-0.7-0.2-1l3.5-5.2c0.2-0.3,0.7-0.4,1-0.2s0.4,0.7,0.2,1 l-3.5,5.2C208.1,183.9,207.8,184,207.6,184z" class="st0"/></g></g><g id="Head_56_"><g><path d="M226.9,152.5c-10.6-3.1-19.2-0.7-19.2,9.5c0,0-9,4.3-1.9,9.8c0,0-3.7,8.4,8.5,8.8 c12.2,0.3,15.8-18.3,15.8-18.3L226.9,152.5z" class="st5"/></g><g><path d="M248.6,156.2c0.8,3.9,0.9,7.7-0.4,10.7c-1.4,3.2-4.2,5.5-9.4,6.1c-6.9,0.8-14-3.7-15.6-11.6c0,0,0,0,0,0 c-1.6-7.8,2.8-15.4,9.8-16.8c0.2,0,0.5-0.1,0.7-0.1c0.4-0.1,0.8-0.1,1.3-0.1c4.6-0.1,9,2.4,11.5,6.6c0.1,0.1,0.1,0.2,0.2,0.3 C247.6,152.8,248.3,154.5,248.6,156.2z" class="st3"/></g><g><path d="M246.5,151c-4.4,6.4-16.5,10-23.4,10.5l0,0c0,0,0,0,0,0c-1.6-7.8,2.8-15.4,9.8-16.8c0.2,0,0.5-0.1,0.7-0.1 c0.4-0.1,0.8-0.1,1.3-0.1C239.6,144.3,244,146.9,246.5,151z" class="st4"/></g><g><ellipse cx="239.6" cy="159.2" class="st1" rx="1" ry="1" transform="matrix(0.5275 -0.8496 0.8496 0.5275 -22.066 278.8265)"/></g><g><path d="M226.3,161.1c-8.3,0.1-10,6.6-6.3,9.4c3,2.2,8.2,2.6,11.2-1.9C234.2,164.1,226.3,161.1,226.3,161.1z" class="st3"/></g><g><path d="M227.5,165.8c-1.9-1.4-4.5-1.5-6.3,0c-0.5,0.4,0.1,1.2,0.6,0.8c1.5-1.2,3.6-1.3,5.1-0.1 C227.4,167,228,166.2,227.5,165.8z" class="st1"/></g><g><path d="M246.1,164.6c0.1-2.2-0.2-4.5-0.8-6.6c-0.2-0.6-1.1-0.4-1,0.2c0.6,2.1,0.8,4.2,0.8,6.4 C245.1,165.2,246.1,165.2,246.1,164.6z" class="st1"/></g><g><path d="M238.7,174.3c-3.5,0-5.2-1.1-5.3-1.2c-0.3-0.2-0.4-0.7-0.2-1s0.7-0.4,1-0.2c0,0,2.2,1.3,6.7,0.8 c0.4-0.1,0.8,0.2,0.8,0.6c0.1,0.4-0.2,0.8-0.6,0.8C240.2,174.2,239.4,174.3,238.7,174.3z" class="st0"/></g></g><g id="Hand_2_54_"><g><path d="M309.9,165.3c0-2.7-4-2.7-4-2.7c-1.4-2.4-5.4-3.9-17.3-0.1c-11.4,3.6-25,2.1-37.9-0.4c0,3-1.5,6.7-3.2,8.8 c-3.2,3.8-8.2,3.5-12.3,3c-0.1,0.8-1.5,2.4-1.5,3.1c8.9,4.5,58,11.3,66.2-3.4c2.2-3.8,17.6-3.3,17.6-6.9 C317.6,163.4,309.9,165.3,309.9,165.3z" class="st3"/></g><g><path d="M295.2,175.6c6.7,3.8,15.4,1.4,16-1.4c0.7-3.3-6.5-1.4-6.5-1.4l-4.4-4.1L295.2,175.6z" class="st3"/></g><g><path d="M304.8,161.8c-1.5-0.2-2.9,0-4.3,0.6c-0.6,0.3-0.1,1.1,0.5,0.9c1.1-0.5,2.3-0.7,3.5-0.5 C305.2,162.8,305.4,161.9,304.8,161.8z" class="st1"/></g><g><path d="M309.2,164.8c-1.6,0.2-3.3,0.5-4.9,0.8c-0.6,0.1-0.4,1.1,0.3,1c1.5-0.3,3.1-0.6,4.6-0.8 C309.8,165.7,309.8,164.7,309.2,164.8z" class="st1"/></g></g></g></g></svg>