<svg xmlns="http://www.w3.org/2000/svg" xmlns:xlink="http://www.w3.org/1999/xlink" id="Слой_1" x="0" y="0" version="1.1" viewBox="0 0 407 413" xml:space="preserve" style="enable-background:new 0 0 407 413"><style type="text/css">.st0{fill:#5f5fff}.st1{fill:#030047}.st2{fill:#fff}.st3{fill:#ff3e6c}.st4{fill:#ffcc3e}.st5{fill:#e4e4ef}.st6{fill:#8facff}.st7{fill:#ffc2d6}.st8{fill:#f2f2f9}</style><g id="_x31_"><g id="Bottom_36_"><g><path d="M160.9,337.6l-0.7,29.4l51,0.5c0,0,0.3-6-9.4-10.5s-11.7-22.3-11.7-22.3L160.9,337.6z" class="st0"/></g><g><path d="M69.2,325.2l-10.9,27.3l47.6,18.2c0,0,2.3-5.5-5.2-13.1c-7.5-7.6-3.2-25-3.2-25L69.2,325.2z" class="st0"/></g><g><path d="M106,205.5c-8.3,13.8-11.8,52.2-21,72S65,329,65,329l37.8,16c0,0,25.7-57.5,28.6-87.5c2.9-30,2.2-56,2.2-56 L106,205.5z" class="st1"/></g><g><path d="M122,220.5c0.8,16,21.3,46.2,24.6,67.8c3.3,21.6,11.9,60.5,11.9,60.5l40.3-7.6c0,0-5.3-60.4-22.8-97.7 c-12.8-27.3-31.2-45.4-31.2-45.4L122,220.5z" class="st1"/></g><g><path d="M130.4,246.5c-0.3,0-0.5-0.1-0.7-0.4l-2.5-4.5l-7.5-2.7c-0.4-0.1-0.6-0.6-0.5-1c0.1-0.4,0.6-0.6,1-0.5l8,2.8 l2.7,5c0.2,0.4,0.1,0.8-0.3,1C130.7,246.5,130.5,246.5,130.4,246.5z" class="st2"/></g><g><path d="M97.4,347.7c-1.5,0.8-3.1,1.7-4.6,2.5c-0.6,0.3-0.1,1.2,0.5,0.9c1.5-0.8,3.1-1.7,4.6-2.5 C98.4,348.3,97.9,347.4,97.4,347.7z" class="st1"/></g><g><path d="M98.1,350.9c-1.2,1-2.5,1.9-3.7,2.9c-0.5,0.4,0,1.3,0.5,0.9l3.7-2.9C99.1,351.3,98.6,350.5,98.1,350.9z" class="st1"/></g><g><path d="M195.4,349.6c-0.6,1.3-1.2,2.5-1.9,3.8c-0.3,0.6,0.6,1.1,0.9,0.5l1.9-3.8 C196.6,349.6,195.7,349.1,195.4,349.6z" class="st1"/></g><g><path d="M198.3,353c-0.6,1.3-1.2,2.5-1.9,3.8c-0.3,0.6,0.6,1.1,0.9,0.5l1.9-3.8C199.4,353,198.6,352.4,198.3,353z" class="st1"/></g><g><path d="M191,339.9c-0.4,0-0.7-0.3-0.7-0.7c-1.6-58-36.1-121.1-36.4-121.7c-0.2-0.4-0.1-0.8,0.3-1 c0.4-0.2,0.8-0.1,1,0.3c0.3,0.6,34.9,64,36.6,122.4C191.7,339.6,191.4,339.9,191,339.9C191,339.9,191,339.9,191,339.9z" class="st2"/></g><g><path d="M160.8,230.5c-0.1,0-0.2,0-0.3,0c-0.4-0.1-0.6-0.6-0.4-1c1.9-5.1-0.4-12.1-0.4-12.2c-0.1-0.4,0.1-0.8,0.5-1 c0.4-0.1,0.8,0.1,1,0.5c0.1,0.3,2.6,7.6,0.4,13.2C161.4,230.3,161.1,230.5,160.8,230.5z" class="st2"/></g></g><g id="Top_35_"><g id="Hand_2_74_"><g><path d="M169.5,124.2c4.3,2.3,8.6,4.6,12.9,6.8l6.5-30.6c-3.2-0.2-10.4,1.3-17.5,14.6c-1.4,2.7-3,5.6-4.4,8.6 C167.8,123.6,168.6,123.7,169.5,124.2z" class="st3"/></g><g><path d="M169.4,118.8c-6.1,11.9-11.6,27-21.9,32.1c0,0,15.2,11.9,23,8.4c6.7-3,14.2-29.4,15-31.4 C181.6,124.4,174.1,120.9,169.4,118.8z" class="st4"/></g></g><g id="Head_11_"><g><path d="M155.7,117.6c3.1,7.4,3.3,15.3-6.4,18.4c-6.6,2.1-14.5-1-17.6-8.4c-3.1-7.4-0.2-15.6,6.4-18.4 C144.7,106.4,152.6,110.2,155.7,117.6z" class="st3"/></g><g><circle cx="150.2" cy="116.9" r="1" class="st1"/></g><g><path d="M150.9,107.5c0-6.6-10.9,0.8-12.8,1.7l0,0c-5.9,1.1-11.1,8.9-9.3,15.8c1.5,5.9,8.3,12.9,11.9,11.2 c5.9-3.5,6.8-9.3,4.1-14.8c1-1.2-0.2-3,0.3-4.4C145.8,114.8,151,109.9,150.9,107.5z" class="st0"/></g><g><path d="M142.7,120.9c-11-1-9.7,7.8-5.6,9.8c3.4,1.6,8.6,1,10.7-4C149.9,121.7,142.7,120.9,142.7,120.9z" class="st3"/></g><g><path d="M143.7,124.7c-2.1-1.1-4.7-0.6-6.2,1.3c-0.4,0.5,0.3,1.2,0.7,0.7c1.2-1.5,3.3-2,5-1.1 C143.8,125.8,144.3,125,143.7,124.7z" class="st1"/></g><g><path d="M156.5,120c-1.1-1.9-2.5-3.7-4.2-5.2c-0.5-0.4-1.2,0.3-0.7,0.7c1.6,1.5,2.9,3.1,4,5 C156,121.1,156.8,120.6,156.5,120z" class="st1"/></g></g><g id="Body_11_"><g><path d="M142.1,144.6c-15.6-3.4-21.9,4-27.5,26.8c-5.6,22.8-15.6,36-15.6,36s45.4,12.8,64.7,10 C163.6,217.5,175.2,151.8,142.1,144.6z" class="st4"/></g><g><polygon points="129.7 147.2 131.3 139.4 152.6 141.8 150 151.4" class="st4"/></g></g><g id="Window_3_"><g><path d="M233.2,89.3c-0.3,0-0.5-0.2-0.7-0.4l-8.1-16.3l-15.6,8c-0.4,0.2-0.8,0-1-0.3c-0.2-0.4,0-0.8,0.3-1l16.9-8.7 l8.7,17.6c0.2,0.4,0,0.8-0.3,1C233.4,89.2,233.3,89.3,233.2,89.3z" class="st5"/></g><g><rect width="54.4" height="53.6" x="185" y="82.3" class="st5" transform="matrix(0.3286 -0.9445 0.9445 0.3286 39.4972 273.6435)"/></g><g><rect width="8.6" height="53.6" x="215.4" y="60.6" class="st6" transform="matrix(0.3286 -0.9445 0.9445 0.3286 64.9625 266.2332)"/></g><g><rect width="3.6" height="24.7" x="241.9" y="99.6" class="st5" transform="matrix(0.9445 0.3286 -0.3286 0.9445 50.3201 -73.8661)"/></g><g><path d="M221.8,120.7l-18.5-6.4c-1.7-0.6-2.6-2.4-2-4.1l1-2.8c0.6-1.7,2.4-2.6,4.1-2l18.5,6.4 c1.7,0.6,2.6,2.4,2,4.1l-1,2.8C225.3,120.4,223.5,121.3,221.8,120.7z" class="st2"/></g><g><path d="M227.1,108.2c-0.1,0-0.2,0-0.2,0l-18.5-6.4c-0.4-0.1-0.6-0.6-0.5-1c0.1-0.4,0.6-0.6,1-0.5l18.5,6.4 c0.4,0.1,0.6,0.6,0.5,1C227.7,108,227.4,108.2,227.1,108.2z" class="st2"/></g><g><path d="M228.4,104.4c-0.1,0-0.2,0-0.2,0l-18.5-6.4c-0.4-0.1-0.6-0.6-0.5-1c0.1-0.4,0.6-0.6,1-0.5l18.5,6.4 c0.4,0.1,0.6,0.6,0.5,1C229,104.2,228.7,104.4,228.4,104.4z" class="st2"/></g><g><circle cx="238.5" cy="84.8" r="2.3" class="st5"/></g><g><circle cx="245" cy="86.9" r="2.3" class="st7"/></g></g><g id="Thumb"><g><path d="M188.5,102c-2-1.6-6.5,2.3-10.5,9.5c0,0-1.5,4.6-1.7,8.2c2.1,0.2,1.7,1.5,2.3,3.2c7-4.2,6.9-14.6,6.9-14.6 S190.5,103.6,188.5,102z" class="st3"/></g><g><path d="M183.3,105.2c-2.4,1.3-4.2,3.2-5.5,5.5c-0.3,0.6,0.5,1.1,0.8,0.5c1.2-2.2,2.9-4,5.1-5.2 C184.3,105.7,183.8,104.9,183.3,105.2z" class="st0"/></g></g><g id="Hand_11_"><g><path d="M237.3,134.7c0.7-1.7,0.7-4.2-0.4-4.8c0,0-0.2-1.4,0-2.9c0.2-1.5-1.6-4.3-5,0c-3.4,4.3-9.2,5-9.2,5l0.5-3.2 c0,0,3-3.4,3.4-5c0.6-2.1-2-3.1-6.9,0.6c-5.8,4.4-11.1,11.1-16.1,17.1c4.9,5.2,9.5,10.6,13.6,16.4c2.2-3.1,4.2-5.3,6.5-5.9 c9.9-2.3,12-9.7,13.7-12.6C239,136.5,237.3,134.7,237.3,134.7z" class="st3"/></g><g><path d="M208.7,135.4c-6.9,8.1-13.3,16.6-19.7,18.4c-9.5,2.8-32.2-9.7-46.4-7.4l-3.4,29.1c0,0,20.6,13.4,44.4,11.5 c20.6-1.7,30-26.8,36.8-33.2C218,147,214.3,140.8,208.7,135.4z" class="st4"/></g><g><path d="M174.7,153.1c-0.1,0-0.1,0-0.2,0c-1.8-0.4-3.6-1.1-5.5-1.9c-3.6-1.4-7.8-3-13.7-3.3c-0.4,0-0.7-0.4-0.7-0.8 c0-0.4,0.4-0.7,0.8-0.7c6.1,0.3,10.4,1.9,14.2,3.4c1.8,0.7,3.6,1.4,5.3,1.8c0.4,0.1,0.7,0.5,0.6,0.9 C175.4,152.9,175.1,153.1,174.7,153.1z" class="st2"/></g><g><path d="M161.5,185.1c-0.1,0-0.2,0-0.3-0.1c0,0-4.8-2.2-9.7-2.1c0,0,0,0,0,0c-0.4,0-0.7-0.3-0.7-0.7 c0-0.4,0.3-0.8,0.7-0.8c5.2-0.1,10.1,2.1,10.3,2.2c0.4,0.2,0.5,0.6,0.4,1C162,185,161.7,185.1,161.5,185.1z" class="st1"/></g><g><path d="M235.7,129c-0.9,3-3.1,5.4-6.1,6.7c-0.6,0.3-0.1,1.1,0.5,0.9c3.2-1.4,5.5-4,6.5-7.3 C236.9,128.6,235.9,128.3,235.7,129z" class="st0"/></g><g><path d="M236.3,135.5c-0.9,2.1-2.4,3.8-4.4,4.8c-0.6,0.3-0.1,1.2,0.5,0.9c2.3-1.2,3.9-3.1,4.9-5.4 C237.5,135.1,236.6,134.9,236.3,135.5z" class="st0"/></g></g></g><g id="Background_32_"><g id="Picture_2"><g><path d="M294,185.1c-0.2,0-0.3-0.1-0.5-0.2L275,170.2L257.8,185c-0.3,0.3-0.8,0.2-1.1-0.1c-0.3-0.3-0.2-0.8,0.1-1.1 l18.2-15.6l19.5,15.6c0.3,0.3,0.4,0.7,0.1,1.1C294.4,185.1,294.2,185.1,294,185.1z" class="st5"/></g><g><rect width="75.3" height="62.4" x="238" y="183.3" class="st8"/></g><g><path d="M313.3,223.4v22.4H238v-42.3c19-2.3,36.2,3.3,38.9,20H313.3z" class="st7"/></g></g><g id="Picture"><g><path d="M323.3,76.2c-0.2,0-0.3-0.1-0.5-0.2l-18.5-14.8L287.1,76c-0.3,0.3-0.8,0.2-1.1-0.1 c-0.3-0.3-0.2-0.8,0.1-1.1l18.2-15.6l19.5,15.6c0.3,0.3,0.4,0.7,0.1,1.1C323.8,76.1,323.5,76.2,323.3,76.2z" class="st5"/></g><g><rect width="84.6" height="70.2" x="261.8" y="72.9" class="st8"/></g><g><polygon points="304.2 84.2 295.5 134.6 261.8 115.6 261.8 94.9" class="st5"/></g><g><polygon points="331.9 143.1 317.6 143.1 310.1 130.1 320.8 123.9" class="st5"/></g></g><g id="Objects_8_"><g><g><path d="M251.4,172.9c-0.3,0-0.5-0.1-0.7-0.4l-5.6-10c-0.2-0.4-0.1-0.8,0.3-1c0.4-0.2,0.8-0.1,1,0.3l5.6,10 c0.2,0.4,0.1,0.8-0.3,1C251.7,172.8,251.6,172.9,251.4,172.9z" class="st6"/></g></g><g><g><path d="M243.6,170.6c-0.3,0-0.5-0.1-0.7-0.4c-0.2-0.4-0.1-0.8,0.3-1l10-5.6c0.4-0.2,0.8-0.1,1,0.3 c0.2,0.4,0.1,0.8-0.3,1l-10,5.6C243.9,170.6,243.7,170.6,243.6,170.6z" class="st6"/></g></g><g><path d="M224.7,205.3h-15c-0.4,0-0.8-0.3-0.8-0.8s0.3-0.8,0.8-0.8h15c0.4,0,0.8,0.3,0.8,0.8 S225.1,205.3,224.7,205.3z" class="st6"/></g><g><path d="M217.2,217c-0.3,0-0.5-0.2-0.7-0.4c-0.2-0.4,0-0.8,0.3-1l7.5-3.8c0.4-0.2,0.8,0,1,0.3c0.2,0.4,0,0.8-0.3,1 l-7.5,3.8C217.5,217,217.3,217,217.2,217z" class="st6"/></g></g></g></g></svg>