<svg xmlns="http://www.w3.org/2000/svg" xmlns:xlink="http://www.w3.org/1999/xlink" id="Слой_1" x="0" y="0" version="1.1" viewBox="0 0 407 413" xml:space="preserve" style="enable-background:new 0 0 407 413"><style type="text/css">.st0{fill:#5f5fff}.st1{fill:#030047}.st2{fill:#fff}.st3{fill:#8facff}.st4{fill:#ff3e6c}.st5{fill:#ffcc3e}.st6{fill:#ffc2d6}.st7{fill:#e4e4ef}.st8{fill:#f2f2f9}</style><g id="_x32_"><g id="Bottom_37_"><g><path d="M188.2,332.9l-0.7,29.4l51,0.5c0,0,0.3-6-9.4-10.5c-9.7-4.5-11.7-22.3-11.7-22.3L188.2,332.9z" class="st0"/></g><g><path d="M96.4,320.4l-10.9,27.3l47.6,18.2c0,0,2.3-5.5-5.2-13.1c-7.5-7.6-3.2-25-3.2-25L96.4,320.4z" class="st0"/></g><g><path d="M133.2,200.8c-8.3,13.8-11.8,52.3-21,72s-20,51.5-20,51.5l37.8,16c0,0,25.7-57.5,28.6-87.5 c2.9-30,2.2-56,2.2-56L133.2,200.8z" class="st1"/></g><g><path d="M149.2,215.8c0.8,16,21.3,46.2,24.6,67.8c3.3,21.6,11.9,60.5,11.9,60.5l40.3-7.6c0,0-5.3-60.4-22.8-97.7 c-12.8-27.3-31.2-45.4-31.2-45.4L149.2,215.8z" class="st1"/></g><g><path d="M157.7,241.8c-0.3,0-0.5-0.1-0.7-0.4l-2.5-4.5l-7.5-2.7c-0.4-0.1-0.6-0.6-0.5-1s0.6-0.6,1-0.5l8,2.8l2.7,5 c0.2,0.4,0.1,0.8-0.3,1C157.9,241.7,157.8,241.8,157.7,241.8z" class="st2"/></g><g><path d="M124.6,343c-1.5,0.8-3.1,1.7-4.6,2.5c-0.6,0.3-0.1,1.2,0.5,0.9c1.5-0.8,3.1-1.7,4.6-2.5 C125.7,343.6,125.2,342.7,124.6,343z" class="st1"/></g><g><path d="M125.4,346.1c-1.2,1-2.5,1.9-3.7,2.9c-0.5,0.4,0,1.3,0.5,0.9l3.7-2.9C126.4,346.6,125.9,345.7,125.4,346.1z" class="st1"/></g><g><path d="M222.7,344.9c-0.6,1.3-1.2,2.5-1.9,3.8c-0.3,0.6,0.6,1.1,0.9,0.5l1.9-3.8 C223.8,344.9,222.9,344.3,222.7,344.9z" class="st1"/></g><g><path d="M225.5,348.3c-0.6,1.3-1.2,2.5-1.9,3.8c-0.3,0.6,0.6,1.1,0.9,0.5l1.9-3.8 C226.7,348.2,225.8,347.7,225.5,348.3z" class="st1"/></g><g><path d="M218.2,335.2c-0.4,0-0.7-0.3-0.7-0.7c-1.6-58-36.1-121.1-36.4-121.7c-0.2-0.4-0.1-0.8,0.3-1 c0.4-0.2,0.8-0.1,1,0.3c0.3,0.6,34.9,64,36.6,122.4C219,334.9,218.6,335.2,218.2,335.2C218.2,335.2,218.2,335.2,218.2,335.2z" class="st2"/></g><g><path d="M188,225.8c-0.1,0-0.2,0-0.3,0c-0.4-0.1-0.6-0.6-0.4-1c1.9-5.1-0.4-12.1-0.4-12.2c-0.1-0.4,0.1-0.8,0.5-1 c0.4-0.1,0.8,0.1,1,0.5c0.1,0.3,2.6,7.6,0.4,13.2C188.6,225.6,188.3,225.8,188,225.8z" class="st2"/></g></g><g id="Top_36_"><g id="Button_4_"><g><rect width="32.2" height="32.2" x="226.5" y="91.8" class="st3"/></g><g><path d="M242.6,115.6c-2.9,0-5.5-1.5-6.9-4c-0.2-0.4-0.1-0.8,0.3-1c0.4-0.2,0.8-0.1,1,0.3c1.1,2,3.3,3.3,5.6,3.3 c3.5,0,6.4-2.9,6.4-6.4c0-3.5-2.9-6.4-6.4-6.4s-6.4,2.9-6.4,6.4c0,0.4-0.3,0.8-0.8,0.8s-0.8-0.3-0.8-0.8c0-4.4,3.6-7.9,7.9-7.9 s7.9,3.6,7.9,7.9C250.6,112,247,115.6,242.6,115.6z" class="st2"/></g><g><path d="M242.6,120c-6.8,0-12.4-5.6-12.4-12.4c0-6.8,5.6-12.4,12.4-12.4c3.4,0,6.8,1.5,9.1,4c0.3,0.3,0.3,0.8,0,1.1 c-0.3,0.3-0.8,0.3-1.1,0c-2.1-2.2-5-3.5-8-3.5c-6,0-10.9,4.9-10.9,10.9c0,6,4.9,10.9,10.9,10.9c6,0,10.9-4.9,10.9-10.9 c0-1.4-0.3-2.7-0.8-4c-0.2-0.4,0-0.8,0.4-1c0.4-0.2,0.8,0,1,0.4c0.6,1.5,0.9,3,0.9,4.6C255,114.5,249.5,120,242.6,120z" class="st2"/></g></g><g id="Hand_2_55_"><g><path d="M134.9,179.6c2.2-5.8,3-7.9,7.4-5.9c4.4,2-4.7,12.3-4.7,12.3L134.9,179.6z" class="st4"/></g><g><path d="M105,162.4c-4,13.4,4.3,29.6,15.8,36.6l1.4-2c2.9,1.6,6,2.8,9.2,3.5c3.4-5.8,7.3-11.2,10.9-16.9 c-4.6-1.8-8.7-3.2-9.6-8.4c-2.6-14,14-11,25-7.7c2.7-10.8,3.7-27.7,3.7-27.7C134.8,132.8,111.3,141.3,105,162.4z" class="st5"/></g><g><path d="M133.2,177c-3.8,6.1-6.7,14.2-11,20c2.9,1.6,6,2.8,9.2,3.5c3.4-5.8,7.3-11.2,10.9-16.9 C139.4,182.4,135.1,178.9,133.2,177z" class="st4"/></g><g><path d="M138.1,175.2c-3.5,0-5,1-5.5,3.4s2.3,4.8,2.3,4.8L138.1,175.2z" class="st4"/></g></g><g id="Head_57_"><g><path d="M182.9,112.8c3.1,7.4,3.3,15.3-6.4,18.4c-6.6,2.1-14.5-1-17.6-8.4c-3.1-7.4-0.2-15.6,6.4-18.4 C171.9,101.7,179.8,105.5,182.9,112.8z" class="st4"/></g><g><circle cx="177.4" cy="112.2" r="1" class="st1"/></g><g><path d="M178.1,102.8c0-6.6-10.9,0.8-12.8,1.7l0,0c-5.9,1.1-11.1,8.9-9.3,15.8c1.5,5.9,8.3,12.9,11.9,11.2 c5.9-3.5,6.8-9.3,4.1-14.8c1-1.2-0.2-3,0.3-4.4C173,110.1,178.2,105.2,178.1,102.8z" class="st0"/></g><g><path d="M170,116.2c-11-1-9.7,7.8-5.6,9.8c3.4,1.6,8.6,1,10.7-4C177.1,117,170,116.2,170,116.2z" class="st4"/></g><g><path d="M170.9,120c-2.1-1.1-4.7-0.6-6.2,1.3c-0.4,0.5,0.3,1.2,0.7,0.7c1.2-1.5,3.3-2,5-1.1 C171,121.1,171.5,120.2,170.9,120z" class="st1"/></g><g><path d="M183.7,115.3c-1.1-1.9-2.5-3.7-4.2-5.2c-0.5-0.4-1.2,0.3-0.7,0.7c1.6,1.5,2.9,3.1,4,5 C183.2,116.4,184.1,115.9,183.7,115.3z" class="st1"/></g></g><g id="Body_45_"><g><path d="M169.4,139.9c-15.6-3.4-21.9,4-27.5,26.8c-5.6,22.8-15.6,36-15.6,36s45.4,12.8,64.7,10 C190.9,212.8,202.5,147.1,169.4,139.9z" class="st5"/></g><g><polygon points="156.9 142.5 158.5 134.7 179.8 137.1 177.3 146.7" class="st5"/></g><g><path d="M142.3,163.1c-0.1,0-0.2,0-0.3-0.1c-0.4-0.2-0.6-0.6-0.4-1l3.9-9.6c0.2-0.4,0.6-0.6,1-0.4 c0.4,0.2,0.6,0.6,0.4,1l-3.9,9.6C142.9,163,142.6,163.1,142.3,163.1z" class="st1"/></g></g><g id="Hand_38_"><g><path d="M230.9,133.6c2.9-5.1,4.3-13.3,7.7-20.6c2.9-6.2,5.4-8.1,6.7-5.5c0.9,1.7-0.9,3.6-2.1,9.3 c0,0,4.3,0.9,4.6,3.9c0,0,3.8,0.9,4.1,6c0.1,2.5,0.9,5.6-2,5.1c-0.6,2.6-1.1,7.7-1.6,11.2c-0.9,6.3-3.9,8.2-3.9,8.2L230.9,133.6 z" class="st4"/></g><g><path d="M231.3,132.8c-5.3,10.6-8.7,14.5-15,16.3c-9.5,2.8-32.2-9.7-46.4-7.4l-3.4,29.1c0,0,20.6,13.4,44.4,11.5 c20.6-1.7,34.3-22.8,36.8-33.2C245.2,142.3,237,136.7,231.3,132.8z" class="st5"/></g><g><path d="M188.7,180.4c-0.1,0-0.2,0-0.3-0.1c0,0-3.5-1.5-6.9-1.5c0,0,0,0,0,0c-0.4,0-0.7-0.3-0.8-0.7 c0-0.4,0.4-0.7,0.8-0.8c3.7,0,7.3,1.5,7.5,1.6c0.4,0.2,0.6,0.6,0.4,1C189.3,180.3,189,180.4,188.7,180.4z" class="st1"/></g><g><path d="M242.5,117.7l-0.7,2c-0.2,0.6,0.7,0.9,1,0.3c0.2-0.7,0.5-1.3,0.7-2C243.7,117.4,242.7,117.1,242.5,117.7z" class="st1"/></g><g><path d="M251.1,127c-0.1-0.6-1.1-0.4-1,0.3c0.1,0.8,0,1.6-0.3,2.4c-0.2,0.6,0.7,0.9,1,0.3 C251.2,129,251.3,128,251.1,127z" class="st1"/></g><g><path d="M247.3,121.4c-0.2,0.4-0.3,0.9-0.5,1.3c-0.2,0.6,0.7,0.9,1,0.3c0.2-0.4,0.3-0.9,0.5-1.3 C248.5,121,247.5,120.8,247.3,121.4z" class="st1"/></g><g><path d="M231.9,131.7c-1.2-8.5,0.3-12.2,3.1-15.7c2.8-3.5,4.5,1.7,4.5,1.7L231.9,131.7z" class="st4"/></g><g><path d="M237,116.6c-1.2,2.3-2,4.7-2.4,7.3c-0.1,0.6,0.9,0.9,1,0.3c0.4-2.5,1.1-4.8,2.3-7.1 C238.1,116.5,237.3,116,237,116.6z" class="st1"/></g></g></g><g id="Background_33_"><g><rect width="66.3" height="41.9" x="229" y="179.5" class="st6"/></g><g><rect width="16.6" height="16.6" x="241.5" y="48.9" class="st7"/></g><g><rect width="27.4" height="27.4" x="290.2" y="48.9" class="st6"/></g><g><rect width="44.4" height="44.4" x="273.2" y="104.6" class="st7"/></g><g><rect width="32.4" height="20" x="200.5" y="48.9" class="st8"/></g><g><path d="M226,59.7h-18.9c-0.4,0-0.8-0.3-0.8-0.8s0.3-0.8,0.8-0.8H226c0.4,0,0.8,0.3,0.8,0.8S226.4,59.7,226,59.7z" class="st2"/></g><g><circle cx="268.3" cy="58.9" r="2.6" class="st7"/></g><g><circle cx="268.3" cy="68.9" r="2.6" class="st7"/></g><g><path d="M277,190.6h-31.8c-0.4,0-0.8-0.3-0.8-0.8s0.3-0.8,0.8-0.8H277c0.4,0,0.8,0.3,0.8,0.8S277.4,190.6,277,190.6z" class="st2"/></g><g><path d="M277,199.3h-19.5c-0.4,0-0.8-0.3-0.8-0.8s0.3-0.8,0.8-0.8H277c0.4,0,0.8,0.3,0.8,0.8S277.4,199.3,277,199.3z" class="st2"/></g><g><path d="M252.6,199.3h-7.4c-0.4,0-0.8-0.3-0.8-0.8s0.3-0.8,0.8-0.8h7.4c0.4,0,0.8,0.3,0.8,0.8S253,199.3,252.6,199.3 z" class="st2"/></g><g><polygon points="288.7 116.6 288.7 138.3 306.4 127.5" class="st2"/></g></g></g></svg>