<svg xmlns="http://www.w3.org/2000/svg" xmlns:xlink="http://www.w3.org/1999/xlink" id="Слой_1" x="0" y="0" version="1.1" viewBox="0 0 407 413" xml:space="preserve" style="enable-background:new 0 0 407 413"><style type="text/css">.st0{fill:#e4e4ef}.st1{fill:#f2f2f9}.st2{fill:#5f5fff}.st3{fill:#030047}.st4{fill:#fff}.st5{fill:#ff3e6c}.st6{fill:#ffcc3e}</style><g id="_x33_"><g id="Background_34_"><g><rect width="23.1" height="23.1" x="265.2" y="181" class="st0" transform="matrix(0.9141 0.4055 -0.4055 0.9141 101.8579 -95.708)"/></g><g><path d="M267.5,153.4l21.7,18.7c0,0,8.4-13.7,0-21.4C278.7,141.1,267.5,153.4,267.5,153.4z" class="st1"/></g><g><circle cx="280.2" cy="168.7" r="6.1" class="st0"/></g><g><path d="M296.6,213.4c-0.2,0-0.5-0.1-0.6-0.3l-3.4-4.6c-0.2-0.3-0.2-0.8,0.2-1c0.3-0.2,0.8-0.2,1,0.2l3.4,4.6 c0.2,0.3,0.2,0.8-0.2,1C296.9,213.4,296.7,213.4,296.6,213.4z" class="st0"/></g><g><path d="M225.8,196.9c-0.2,0-0.4-0.1-0.6-0.2c-0.3-0.3-0.3-0.8,0.1-1.1l7.8-7c0.3-0.3,0.8-0.3,1.1,0.1 s0.3,0.8-0.1,1.1l-7.8,7C226.1,196.8,226,196.9,225.8,196.9z" class="st0"/></g><g><path d="M255.8,182.5c-0.2,0-0.4-0.1-0.6-0.3l-2.8-3.4c-0.3-0.3-0.2-0.8,0.1-1.1c0.3-0.3,0.8-0.2,1.1,0.1l2.8,3.4 c0.3,0.3,0.2,0.8-0.1,1.1C256.1,182.4,256,182.5,255.8,182.5z" class="st0"/></g><g><path d="M293.2,116.9c-0.2,0-0.3-0.1-0.5-0.2c-0.3-0.3-0.4-0.7-0.1-1.1l3.4-4.1c0.3-0.3,0.7-0.4,1.1-0.1 c0.3,0.3,0.4,0.7,0.1,1.1l-3.4,4.1C293.6,116.8,293.4,116.9,293.2,116.9z" class="st0"/></g><g><path d="M324.8,154.2c-0.2,0-0.4-0.1-0.6-0.3l-7-8.4c-0.3-0.3-0.2-0.8,0.1-1.1c0.3-0.3,0.8-0.2,1.1,0.1l7,8.4 c0.3,0.3,0.2,0.8-0.1,1.1C325.1,154.1,325,154.2,324.8,154.2z" class="st0"/></g><g><path d="M240,82.4c-0.1,0-0.1,0-0.2,0l-6.4-1.5c-0.4-0.1-0.7-0.5-0.6-0.9c0.1-0.4,0.5-0.7,0.9-0.6l6.4,1.5 c0.4,0.1,0.7,0.5,0.6,0.9C240.6,82.1,240.3,82.4,240,82.4z" class="st0"/></g><g id="Windows_1_"><g><path d="M306.5,157.3h-32.8v-32.8h32.8V157.3z M275.2,155.8H305V126h-29.8V155.8z" class="st2"/></g><g><path d="M287.2,248h-48.5v-48.5h48.5V248z M240.1,246.5h45.5v-45.5h-45.5V246.5z" class="st2"/></g><g><path d="M296.6,148.1c-0.2,0-0.4-0.1-0.5-0.2L283.1,135c-0.3-0.3-0.3-0.8,0-1.1s0.8-0.3,1.1,0l12.9,12.9 c0.3,0.3,0.3,0.8,0,1.1C297,148.1,296.8,148.1,296.6,148.1z" class="st2"/></g><g><g><path d="M283.6,148.1c-0.2,0-0.4-0.1-0.5-0.2c-0.3-0.3-0.3-0.8,0-1.1l12.9-12.9c0.3-0.3,0.8-0.3,1.1,0 s0.3,0.8,0,1.1l-12.9,12.9C284,148.1,283.8,148.1,283.6,148.1z" class="st2"/></g></g><g><path d="M273.3,216.3H253c-0.4,0-0.8-0.3-0.8-0.8s0.3-0.8,0.8-0.8h20.3c0.4,0,0.8,0.3,0.8,0.8 S273.7,216.3,273.3,216.3z" class="st2"/></g><g><path d="M273.3,222.7H253c-0.4,0-0.8-0.3-0.8-0.8s0.3-0.8,0.8-0.8h20.3c0.4,0,0.8,0.3,0.8,0.8 S273.7,222.7,273.3,222.7z" class="st2"/></g><g><path d="M273.3,229h-4.1c-0.4,0-0.8-0.3-0.8-0.8s0.3-0.8,0.8-0.8h4.1c0.4,0,0.8,0.3,0.8,0.8S273.7,229,273.3,229z" class="st2"/></g><g><path d="M265.4,229H253c-0.4,0-0.8-0.3-0.8-0.8s0.3-0.8,0.8-0.8h12.4c0.4,0,0.8,0.3,0.8,0.8S265.8,229,265.4,229z" class="st2"/></g></g></g><g id="Bottom_38_"><g><path d="M203.6,328.6l-0.7,29.4l51,0.5c0,0,0.3-6-9.4-10.5c-9.7-4.5-11.7-22.3-11.7-22.3L203.6,328.6z" class="st2"/></g><g><path d="M111.8,316.2l-10.9,27.3l47.6,18.2c0,0,2.3-5.5-5.2-13.1c-7.5-7.6-3.2-25-3.2-25L111.8,316.2z" class="st2"/></g><g><path d="M164.6,211.5c0.8,16,21.3,46.2,24.6,67.8c3.3,21.6,11.9,60.5,11.9,60.5l40.3-7.6c0,0-5.3-60.4-22.8-97.7 c-12.8-27.3-31.2-45.4-31.2-45.4L164.6,211.5z" class="st3"/></g><g><path d="M140,338.7c-1.5,0.8-3.1,1.7-4.6,2.5c-0.6,0.3-0.1,1.2,0.5,0.9c1.5-0.8,3.1-1.7,4.6-2.5 C141,339.3,140.5,338.4,140,338.7z" class="st3"/></g><g><path d="M140.7,341.9c-1.2,1-2.5,1.9-3.7,2.9c-0.5,0.4,0,1.3,0.5,0.9l3.7-2.9C141.7,342.3,141.2,341.5,140.7,341.9z" class="st3"/></g><g><path d="M238,340.6c-0.6,1.3-1.2,2.5-1.9,3.8c-0.3,0.6,0.6,1.1,0.9,0.5l1.9-3.8C239.2,340.6,238.3,340.1,238,340.6z" class="st3"/></g><g><path d="M240.9,344c-0.6,1.3-1.2,2.5-1.9,3.8c-0.3,0.6,0.6,1.1,0.9,0.5l1.9-3.8C242,344,241.2,343.5,240.9,344z" class="st3"/></g><g><path d="M233.6,330.9c-0.4,0-0.7-0.3-0.7-0.7c-1.6-58-36.1-121.1-36.4-121.7c-0.2-0.4-0.1-0.8,0.3-1 c0.4-0.2,0.8-0.1,1,0.3c0.3,0.6,34.9,64,36.6,122.4C234.3,330.6,234,330.9,233.6,330.9C233.6,330.9,233.6,330.9,233.6,330.9z" class="st4"/></g><g><path d="M203.4,221.5c-0.1,0-0.2,0-0.3,0c-0.4-0.1-0.6-0.6-0.4-1c1.9-5.1-0.4-12.1-0.4-12.2c-0.1-0.4,0.1-0.8,0.5-1 c0.4-0.1,0.8,0.1,1,0.5c0.1,0.3,2.6,7.6,0.4,13.2C204,221.3,203.7,221.5,203.4,221.5z" class="st4"/></g><g><path d="M173.9,248.5c-2.9,30-28.6,87.5-28.6,87.5l-37.8-16c0,0,10.8-31.8,20-51.5c7.5-16,11.2-44.5,16.8-61.9 c1.3-4,2.7-7.5,4.2-10l5.4-0.8l22.1-3.2C176.1,192.5,176.8,218.5,173.9,248.5z" class="st3"/></g><g><path d="M173,237.5c-0.3,0-0.5-0.1-0.7-0.4l-2.5-4.5l-7.5-2.7c-0.4-0.1-0.6-0.6-0.5-1c0.1-0.4,0.6-0.6,1-0.5l8,2.8 l2.7,5c0.2,0.4,0.1,0.8-0.3,1C173.3,237.5,173.2,237.5,173,237.5z" class="st4"/></g></g><g id="Top_37_"><path d="M156.1,187.8l-2.1,7.9l-5.4,0.8c-1.5,2.6-2.9,6-4.2,10c-3.3-1.2-7.5-3.3-12.1-7.1L156.1,187.8z" class="st5"/><g id="Hand_2_56_"><g><path d="M120.3,158.1c-4,13.4-0.9,34.4,9.8,42c0,0,13.5-4.7,16.7-4c3.4-5.8,7.3-11.2,10.9-16.9 c-4.6-1.8-8.7-3.2-9.6-8.4c-2.6-14,14-11,25-7.7c2.7-10.8,3.7-27.7,3.7-27.7C150.1,128.6,126.7,137,120.3,158.1z" class="st6"/></g></g><g id="Tablet_8_"><g><path d="M159.6,196.2h-26.8c-2.7,0-5-2.2-5-5v-38.1c0-2.7,2.2-5,5-5h26.8c2.7,0,5,2.2,5,5v38.1 C164.6,193.9,162.4,196.2,159.6,196.2z" class="st2"/></g><g><path d="M135.1,148.1h-2.2c-2.7,0-5,2.2-5,5v38.1c0,2.7,2.2,5,5,5h2.2V148.1z" class="st3"/></g><g><path d="M131.5,188h-3.9c-1.8,0-3.3-1.5-3.3-3.3v-0.6c0-1.8,1.5-3.3,3.3-3.3h3.9V188z" class="st3"/></g><g><path d="M84.8,353.4c-0.4,0-0.8-0.3-0.8-0.8v-70.9c0-7.4,6-13.4,13.4-13.4h5.2c6.6,0,11.9-5.3,11.9-11.9v-59.5 c0-7.4,6-13.4,13.4-13.4c0.4,0,0.8,0.3,0.8,0.8s-0.3,0.8-0.8,0.8c-6.6,0-11.9,5.3-11.9,11.9v59.5c0,7.4-6,13.4-13.4,13.4h-5.2 c-6.6,0-11.9,5.3-11.9,11.9v70.9C85.5,353.1,85.2,353.4,84.8,353.4z" class="st3"/></g><g><path d="M90.6,354.3H79v-5.8c0-3.2,2.6-5.8,5.8-5.8h0c3.2,0,5.8,2.6,5.8,5.8V354.3z" class="st3"/></g></g><g id="Head_69_"><g><path d="M198.3,108.6c3.1,7.4,3.3,15.3-6.4,18.4c-6.6,2.1-14.5-1-17.6-8.4c-3.1-7.4-0.2-15.6,6.4-18.4 C187.3,97.4,195.2,101.2,198.3,108.6z" class="st5"/></g><g><circle cx="192.8" cy="107.9" r="1" class="st3"/></g><g><path d="M193.5,98.5c0-6.6-10.9,0.8-12.8,1.7l0,0c-5.9,1.1-11.1,8.9-9.3,15.8c1.5,5.9,8.3,12.9,11.9,11.2 c5.9-3.5,6.8-9.3,4.1-14.8c1-1.2-0.2-3,0.3-4.4C188.4,105.8,193.6,100.9,193.5,98.5z" class="st2"/></g><g><path d="M185.3,111.9c-11-1-9.7,7.8-5.6,9.8c3.4,1.6,8.6,1,10.7-4C192.5,112.7,185.3,111.9,185.3,111.9z" class="st5"/></g><g><path d="M186.3,115.7c-2.1-1.1-4.7-0.6-6.2,1.3c-0.4,0.5,0.3,1.2,0.7,0.7c1.2-1.5,3.3-2,5-1.1 C186.4,116.8,186.9,116,186.3,115.7z" class="st3"/></g><g><path d="M199.1,111c-1.1-1.9-2.5-3.7-4.2-5.2c-0.5-0.4-1.2,0.3-0.7,0.7c1.6,1.5,2.9,3.1,4,5 C198.6,112.1,199.4,111.6,199.1,111z" class="st3"/></g></g><g id="Body_57_"><g><path d="M184.7,135.6c-15.6-3.4-21.9,4-27.5,26.8c-5.6,22.8-15.6,36-15.6,36s45.4,12.8,64.7,10 C206.3,208.5,217.9,142.8,184.7,135.6z" class="st6"/></g><g><polygon points="172.3 138.2 173.9 130.4 195.2 132.8 192.6 142.4" class="st6"/></g><g><path d="M157,163.9c-0.1,0-0.1,0-0.2,0c-0.4-0.1-0.6-0.5-0.5-0.9l4.5-14.6c0.1-0.4,0.5-0.6,0.9-0.5 c0.4,0.1,0.6,0.5,0.5,0.9l-4.5,14.6C157.7,163.7,157.4,163.9,157,163.9z" class="st3"/></g></g><g id="Hand_50_"><g><path d="M246.7,128.6c-5.3,10.6-8.7,14.5-15,16.3c-9.5,2.8-32.2-9.7-46.4-7.4l-3.4,29.1c0,0,20.6,13.4,44.4,11.5 c20.6-1.7,34.3-22.8,36.8-33.2C260.6,138,252.3,132.4,246.7,128.6z" class="st6"/></g><g><path d="M204.1,176.2c-0.1,0-0.2,0-0.3-0.1c0,0-3.5-1.5-6.9-1.5c0,0,0,0,0,0c-0.4,0-0.7-0.3-0.8-0.7 c0-0.4,0.4-0.8,0.8-0.8c3.7,0,7.3,1.5,7.5,1.6c0.4,0.2,0.6,0.6,0.4,1C204.6,176,204.4,176.2,204.1,176.2z" class="st3"/></g><g><path d="M247.3,127.5c-1.2-8.5,0.3-15.9,3.9-18.6c5.1-3.8,3.6,4.6,3.6,4.6L247.3,127.5z" class="st5"/></g><g><path d="M258.8,103.5l-18.3,18.4c-1.7,1.7,1,4.4,2.7,2.7l18.3-18.4c0.9-0.9,2.1-3.5,1.4-4.1 C262.3,101.3,259.7,102.6,258.8,103.5z" class="st2"/></g><g><path d="M246.3,129.3c2.9-5.1,4.3-13.3,7.7-20.6c2.9-6.2,5.4-8.1,6.7-5.5c0.9,1.7-0.9,3.6-2.1,9.3 c0,0,4.3,0.9,4.6,3.9c0,0,3.8,0.9,4.1,6c0.1,2.5,0.9,5.6-2,5.1c-0.6,2.6-1.1,7.7-1.6,11.2c-0.9,6.3-3.9,8.2-3.9,8.2L246.3,129.3 z" class="st5"/></g><g><path d="M257.9,113.5l-0.7,2c-0.2,0.6,0.7,0.9,1,0.3c0.2-0.7,0.5-1.3,0.7-2C259.1,113.1,258.1,112.9,257.9,113.5z" class="st3"/></g><g><path d="M266.5,122.8c-0.1-0.6-1.1-0.4-1,0.3c0.1,0.8,0,1.6-0.3,2.4c-0.2,0.6,0.7,0.9,1,0.3 C266.6,124.7,266.6,123.8,266.5,122.8z" class="st3"/></g><g><path d="M252.4,112.3c-1.2,2.3-2,4.7-2.4,7.3c-0.1,0.6,0.9,0.9,1,0.3c0.4-2.5,1.1-4.8,2.3-7.1 C253.5,112.2,252.7,111.7,252.4,112.3z" class="st3"/></g><g><path d="M262.7,117.1c-0.2,0.4-0.3,0.9-0.5,1.3c-0.2,0.6,0.7,0.9,1,0.3c0.2-0.4,0.3-0.9,0.5-1.3 C263.9,116.8,262.9,116.5,262.7,117.1z" class="st3"/></g></g><g><path d="M294,103.5h-31.8c-0.4,0-0.8-0.3-0.8-0.8s0.3-0.8,0.8-0.8h30.3V61.3h-42.6v20.3c0,0.4-0.3,0.8-0.8,0.8 s-0.8-0.3-0.8-0.8V59.8H294V103.5z" class="st2"/></g><g><path d="M282.6,68.1L282.6,68.1c-1-0.5-2.2-0.2-2.7,0.8l-9.6,17.7l-5.9-6.2c-0.7-0.7-1.8-0.9-2.6-0.4 c-1.1,0.7-1.2,2.1-0.4,3l6.8,7.3l1.5,1.6c0.7,0.7,1.8,0.6,2.3-0.3l1.1-1.9l10.3-18.9C283.9,69.9,283.5,68.7,282.6,68.1z" class="st5"/></g><g><rect width="6.1" height="6.1" x="290.1" y="57.5" class="st5"/></g></g></g></svg>