<svg xmlns="http://www.w3.org/2000/svg" xmlns:xlink="http://www.w3.org/1999/xlink" id="Слой_1" x="0" y="0" version="1.1" viewBox="0 0 407 413" xml:space="preserve" style="enable-background:new 0 0 407 413"><style type="text/css">.st0{fill:#ff3e6c}.st1{fill:#fff}.st2{fill:#5f5fff}.st3{fill:#030047}.st4{fill:#e4e4ef}.st5{fill:#f2f2f9}.st6{fill:#ffcc3e}.st7{fill:#8facff}</style><g id="_x32_"><g id="Bottom_48_"><g><path d="M182.5,325.4c1.1,5.8,3.1,9.9,5.4,13c0.2,0.3,0.4,0.5,0.6,0.8c0.5,0.6,1,1.1,1.5,1.6 c0.3,0.3,0.5,0.5,0.8,0.7c2.7,2.4,5.6,3.8,8.1,4.9c6.3,2.7,6.6,9.6,6.6,9.6l-49.4-0.3c0.6-8.2,0.6-23.7,0.6-23.7 C167,328.9,171.9,327.1,182.5,325.4z" class="st0"/></g><g><path d="M187.9,338.4c0.2,0.3,0.4,0.5,0.6,0.8c-2,0.9-4,1.9-6,2.8c-0.6,0.3-1.1-0.6-0.5-0.8 C184,340.2,186,339.3,187.9,338.4z" class="st1"/></g><g><path d="M190.1,340.7c0.3,0.3,0.5,0.5,0.8,0.7c-2.2,1.1-4.5,2.1-6.7,3.2c-0.6,0.3-1.1-0.6-0.5-0.8 C185.8,342.8,187.9,341.8,190.1,340.7z" class="st1"/></g><g><path d="M187.4,218.2c6.1,52.7,1.2,117.5,1.2,117.5l-35.8,2.3c0,0,3.6-100.5,0.2-118.2 C149.6,202.2,187.4,218.2,187.4,218.2z" class="st2"/></g><g><path d="M113.9,320.8c-4.6,3.7-7.3,7.4-8.9,10.9c-0.1,0.3-0.3,0.6-0.4,0.9c-0.3,0.7-0.5,1.4-0.7,2.1 c-0.1,0.3-0.2,0.7-0.3,1c-0.8,3.5-0.7,6.8-0.5,9.5c0.5,6.8-5.4,10.3-5.4,10.3l-22.8-43.8c6.9-4.8,13.7-9.1,19-14.4 C101.4,304.9,107.5,312.3,113.9,320.8z" class="st0"/></g><g><path d="M166.5,197.6l-31.6,2.1c-3.4,19.5-4.8,47.8-19.2,72.7c-6.5,11.3-17.7,20.3-29.4,30.4 c6.5,8.9,16.9,20.6,23.5,29.5c2.1-3.5,38.5-22.4,49.6-73.6C165.5,230.6,166.5,197.6,166.5,197.6z" class="st2"/></g><g><path d="M105,331.7c-0.1,0.3-0.3,0.6-0.4,0.9c-1.8-1.3-3.5-2.7-5.3-4c-0.5-0.4,0-1.3,0.5-0.9 C101.6,329.1,103.3,330.4,105,331.7z" class="st1"/></g><g><path d="M103.9,334.7c-0.1,0.3-0.2,0.7-0.3,1c-2-1.5-4-2.9-5.9-4.4c-0.5-0.4,0-1.3,0.5-0.9 C100.1,331.9,102,333.3,103.9,334.7z" class="st1"/></g><g><path d="M156.1,273.2c-0.1,0-0.2,0-0.3-0.1c-0.4-0.1-0.6-0.6-0.4-1c7.1-18.5,10.3-41.8,10.3-42.1l0.1-0.6l0.6,0 c0.1,0,5.6-0.3,9.3-1.3c0.4-0.1,0.8,0.1,0.9,0.5c0.1,0.4-0.1,0.8-0.5,0.9c-3.1,0.8-7.4,1.2-9,1.3c-0.5,3.8-3.8,24.9-10.3,41.8 C156.7,273,156.4,273.2,156.1,273.2z" class="st3"/></g></g><g id="Top_48_"><g id="Window_15_"><g><rect width="116.1" height="155.9" x="211.6" y="63" class="st4"/></g><g><rect width="47.4" height="29.8" x="235.6" y="80" class="st5"/></g><g><path d="M264.3,180l48.4-27.6c0,0,13.5,24.5-10,37.1C282.2,200.5,264.3,180,264.3,180z" class="st5"/></g><g><circle cx="290.4" cy="149.9" r="6.6" class="st5"/></g><g><path d="M286.7,84.5c-0.2,0-0.4-0.1-0.5-0.2l-7.5-7.5c-0.3-0.3-0.3-0.8,0-1.1s0.8-0.3,1.1,0l7.5,7.5 c0.3,0.3,0.3,0.8,0,1.1C287.1,84.5,286.9,84.5,286.7,84.5z" class="st1"/></g><g><path d="M279.3,84.5c-0.2,0-0.4-0.1-0.5-0.2c-0.3-0.3-0.3-0.8,0-1.1l7.5-7.5c0.3-0.3,0.8-0.3,1.1,0s0.3,0.8,0,1.1 l-7.5,7.5C279.7,84.5,279.5,84.5,279.3,84.5z" class="st1"/></g><g><rect width="15.6" height="15.6" x="238.7" y="167.6" class="st5" transform="matrix(0.9333 -0.359 0.359 0.9333 -46.5532 100.1699)"/></g><g><rect width="5.3" height="45.9" x="322.5" y="91.1" class="st5"/></g><g><path d="M266.7,91.9h-22.5c-0.4,0-0.8-0.3-0.8-0.8s0.3-0.8,0.8-0.8h22.5c0.4,0,0.8,0.3,0.8,0.8 S267.1,91.9,266.7,91.9z" class="st3"/></g></g><g id="Arrow"><g><polygon points="244.6 119.9 260.1 100 264.3 124.3" class="st1"/></g><g><path d="M253.1,128.8c-0.1,0-0.1,0-0.2,0c-0.4-0.1-0.7-0.5-0.6-0.9l2.4-10.6c0.1-0.4,0.5-0.7,0.9-0.6 c0.4,0.1,0.7,0.5,0.6,0.9l-2.4,10.6C253.7,128.6,253.4,128.8,253.1,128.8z" class="st1"/></g></g><g id="Hand_2_38_"><g><path d="M226.5,129.7c6.7-6.7,10.9-13.7,15.1-11.2c0,0,5.2-0.8,4.8,1.9c3.6-2.9,4.9-6.4,7.3-5.1 c4,2.1-7.9,17.2-7.9,17.2h3.4c0,0,2.7-5.8,5.5-5.4c2.7,0.4-0.2,11-7.6,15.1c-5.9,3.3-13.7,7.7-13.7,7.7L226.5,129.7z" class="st6"/></g><g><path d="M226.5,129.7c-5.5,5.3-14,15.1-22.1,18.3c-10.1,4-27.9-17.8-40.5-16.5l3.2,21.9c0,0,10.6,21.9,30.2,26.2 s39.6-30,39.7-30.1C234.4,143.6,231.1,133.6,226.5,129.7z" class="st3"/></g><g><path d="M245.6,120.3c-1.4,1.3-2.5,2.7-3.5,4.4c-0.3,0.6,0.5,1.1,0.9,0.5c0.9-1.6,2-3,3.3-4.2 C246.8,120.6,246,119.9,245.6,120.3z" class="st0"/></g><g><path d="M239.8,118.7c-1,1.1-2,2.2-3,3.3c-0.4,0.5,0.3,1.2,0.7,0.7c1-1.1,2-2.2,3-3.3 C241,119,240.3,118.3,239.8,118.7z" class="st0"/></g></g><g id="Body_47_"><g><polygon points="155.1 129.4 153.5 133.7 172.3 135.8 173.2 127.1" class="st3"/></g><g><path d="M170,134.2c-10.6-8.2-32.4,6-35.9,18.1s-7.7,70.8-7.7,70.8l64.3-0.9c0,0-5.2-63.4-12.7-74.1 C170.5,137.4,173.5,137,170,134.2z" class="st3"/></g><g><path d="M184,168.4c-0.3,0-0.7-0.2-0.7-0.6c0-0.1-1.3-6-4-15.2c-0.1-0.4,0.1-0.8,0.5-0.9c0.4-0.1,0.8,0.1,0.9,0.5 c2.8,9.3,4,15.2,4,15.3c0.1,0.4-0.2,0.8-0.6,0.9C184.1,168.4,184.1,168.4,184,168.4z" class="st1"/></g></g><g id="Keyboard"><g><rect width="82" height="32.8" x="146.1" y="206.6" class="st7"/></g><g><rect width="32.7" height="7.3" x="170.7" y="215.8" class="st2"/></g><g><rect width="7.3" height="7.3" x="208" y="215.8" class="st2"/></g><g><rect width="7.3" height="7.3" x="217.1" y="215.8" class="st2"/></g><g><rect width="7.3" height="7.3" x="208" y="225.7" class="st2"/></g><g><rect width="7.3" height="7.3" x="156.9" y="225.7" class="st2"/></g><g><rect width="7.3" height="7.3" x="167.1" y="225.7" class="st2"/></g></g><g id="Head_59_"><g><path d="M161.6,126.7c-1.9,5.1-7.1,5.8-10.6,4.3c-3.2-1.4-3.8-5.5-0.6-8.3c1.1-0.9,2.6-1.7,4.7-2.2 c0,0,1.6,0.2,3.2,0.9C160.5,122.2,162.7,123.9,161.6,126.7z" class="st6"/></g><g><path d="M175.9,110.8c3.3,7.3,3.7,15.2-5.9,18.6c-6.5,2.3-14.5-0.5-17.8-7.8s-0.7-15.6,5.9-18.6 S172.6,103.5,175.9,110.8z" class="st6"/></g><g><ellipse cx="166.5" cy="115.1" class="st3" rx="1" ry="1" transform="matrix(0.9996 -2.958225e-02 2.958225e-02 0.9996 -3.3309 4.9759)"/></g><g><path d="M174.9,115.9c-1.2-1.9-2.6-3.6-4.3-5.1c-0.5-0.4-1.2,0.3-0.7,0.7c1.6,1.4,3,3.1,4.2,4.9 C174.4,117,175.2,116.5,174.9,115.9z" class="st3"/></g><g><path d="M166.3,104.9c-2.2,2.4-13.1,7.8-9,13.2c1,1.4,2.2,1.9,1.1,3.3c-1.3,1.2-3.2-0.9-3.2-0.9 c-2,0.5-3.6,1.3-4.7,2.2c-5.3-4.6-5.2-9.8-2.8-11.7c0,0,14-20.1,20.5-14.8C173.9,100.9,166.3,104.9,166.3,104.9z" class="st2"/></g><g><path d="M157.4,124.8c-2.1-1-4.7-0.4-6.2,1.4c-0.4,0.5,0.3,1.2,0.7,0.7c1.2-1.5,3.2-2.1,5-1.2 C157.5,125.9,158,125,157.4,124.8z" class="st3"/></g></g><g id="Hand_40_"><g><path d="M180,198.8c-0.9-3.1-14.1-12.2-14.8-15.3c-4.3,2.4-8.5,3.9-12.3,2.6c-10.5-3.6-14.4-22.8-2.3-32.3 s13.2-22.4,13.2-22.4c-19.1,0.8-37.5,12.3-46,35.5c-9.6,26.4,2.9,39.8,12.8,44.5c9.8,4.6,37.4,2.9,37.4,2.9 c0.3,0.5,2.7-3.7,3.2-4.1C173.9,206.7,181.3,203.2,180,198.8z" class="st3"/></g><g><path d="M180,194.3c-0.1,0-0.3,0-0.4-0.1c-0.1-0.1-9.9-6-31.6-9.1c-3-0.4-5.2-2-6.5-4.5c-2.5-5-1.2-13.3,3.5-22.3 c0.2-0.4,0.6-0.5,1-0.3c0.4,0.2,0.5,0.6,0.3,1c-4.5,8.4-5.8,16.5-3.5,21c1.1,2.1,2.9,3.4,5.4,3.7c22.1,3.2,31.8,9,32.2,9.3 c0.4,0.2,0.5,0.7,0.2,1C180.5,194.2,180.3,194.3,180,194.3z" class="st1"/></g><g><path d="M144.7,214.7C144.6,214.7,144.6,214.7,144.7,214.7c-5.3-0.4-10.2-1.2-14.2-2.5c-0.4-0.1-0.6-0.6-0.5-0.9 c0.1-0.4,0.6-0.6,0.9-0.5c3.9,1.3,8.7,2.1,13.8,2.5c0.4,0,0.7,0.4,0.7,0.8C145.4,214.4,145.1,214.7,144.7,214.7z" class="st1"/></g><g><path d="M181.1,195.8c-5.3,3.9-8.1,11.4-11.7,17.3c0.8,1.9,1.3,2,5.6,2.6c7.8,1,7.6,6.4,11.5,6.4 c3.9-0.1,4-2.2,4-2.2c4.7,0,6.1-3.4,6.1-3.4C207.6,212.4,188,196.1,181.1,195.8z" class="st6"/></g><g><path d="M190.4,218.2c-1.5-2.8-3.4-5.4-5.7-7.6c-0.5-0.4-1.2,0.3-0.7,0.7c2.3,2.1,4.1,4.6,5.6,7.4 C189.9,219.3,190.7,218.8,190.4,218.2z" class="st0"/></g><g><path d="M196.5,215.2c-1.1-4-3.5-6.7-6.6-9.3c-0.5-0.4-1.2,0.3-0.7,0.7c2.9,2.5,5.2,5.1,6.3,8.9 C195.8,216.1,196.7,215.8,196.5,215.2z" class="st0"/></g></g></g></g></svg>