<svg xmlns="http://www.w3.org/2000/svg" xmlns:xlink="http://www.w3.org/1999/xlink" id="Слой_1" x="0" y="0" version="1.1" viewBox="0 0 407 413" xml:space="preserve" style="enable-background:new 0 0 407 413"><style type="text/css">.st0{fill:#ff3e6c}.st1{fill:#fff}.st2{fill:#5f5fff}.st3{fill:#030047}.st4{fill:#ffcc3e}.st5{fill:#e4e4ef}.st6{fill:#f2f2f9}</style><g id="_x33_"><g id="Bottom_49_"><g><path d="M160,319.8c1.1,5.8,3.1,9.9,5.4,13c0.2,0.3,0.4,0.5,0.6,0.8c0.5,0.6,1,1.1,1.5,1.6c0.3,0.3,0.5,0.5,0.8,0.7 c2.7,2.4,5.6,3.8,8.1,4.9c6.3,2.7,6.6,9.6,6.6,9.6l-49.4-0.3c0.6-8.2,0.6-23.7,0.6-23.7C144.5,323.3,149.4,321.5,160,319.8z" class="st0"/></g><g><path d="M165.4,332.8c0.2,0.3,0.4,0.5,0.6,0.8c-2,0.9-4,1.9-6,2.8c-0.6,0.3-1.1-0.6-0.5-0.8 C161.5,334.6,163.4,333.7,165.4,332.8z" class="st1"/></g><g><path d="M167.5,335.1c0.3,0.3,0.5,0.5,0.8,0.7c-2.2,1.1-4.5,2.1-6.7,3.2c-0.6,0.3-1.1-0.6-0.5-0.8 C163.2,337.2,165.4,336.2,167.5,335.1z" class="st1"/></g><g><path d="M164.9,212.6c6.1,52.7,1.2,117.5,1.2,117.5l-35.8,2.3c0,0,3.6-100.5,0.2-118.2 C127.1,196.6,164.9,212.6,164.9,212.6z" class="st2"/></g><g><path d="M91.4,315.2c-4.6,3.7-7.3,7.4-8.9,10.9c-0.1,0.3-0.3,0.6-0.4,0.9c-0.3,0.7-0.5,1.4-0.7,2.1 c-0.1,0.3-0.2,0.7-0.3,1c-0.8,3.5-0.7,6.8-0.5,9.5c0.5,6.8-5.4,10.3-5.4,10.3l-22.8-43.8c6.9-4.8,13.7-9.1,19-14.5 C78.8,299.3,85,306.7,91.4,315.2z" class="st0"/></g><g><path d="M144,192l-31.6,2.1c-3.4,19.5-4.8,47.8-19.2,72.7c-6.5,11.3-17.7,20.3-29.4,30.4 c6.5,8.9,16.9,20.6,23.5,29.5c2.1-3.5,38.5-22.4,49.6-73.6C143,225,144,192,144,192z" class="st2"/></g><g><path d="M82.5,326.1c-0.1,0.3-0.3,0.6-0.4,0.9c-1.8-1.3-3.5-2.7-5.3-4c-0.5-0.4,0-1.3,0.5-0.9 C79,323.5,80.8,324.8,82.5,326.1z" class="st1"/></g><g><path d="M81.4,329.1c-0.1,0.3-0.2,0.7-0.3,1c-2-1.5-4-2.9-5.9-4.4c-0.5-0.4,0-1.3,0.5-0.9 C77.6,326.3,79.5,327.7,81.4,329.1z" class="st1"/></g><g><path d="M133.6,267.6c-0.1,0-0.2,0-0.3-0.1c-0.4-0.1-0.6-0.6-0.4-1c7.1-18.5,10.3-41.8,10.3-42.1l0.1-0.6l0.6,0 c0.1,0,5.6-0.3,9.3-1.3c0.4-0.1,0.8,0.1,0.9,0.5c0.1,0.4-0.1,0.8-0.5,0.9c-3.1,0.8-7.4,1.2-9,1.3c-0.5,3.8-3.8,24.9-10.3,41.8 C134.2,267.4,133.9,267.6,133.6,267.6z" class="st3"/></g></g><g id="Top_49_"><g id="Hand_2_37_"><g><path d="M204,124.1c-5.5,5.3-14,15.1-22.1,18.3c-10.1,4-27.9-17.8-40.5-16.5l3.2,21.9c0,0,10.6,21.9,30.2,26.2 s39.6-30,39.7-30.1C211.9,138,208.6,128,204,124.1z" class="st3"/></g></g><g id="Body_59_"><g><polygon points="132.6 123.8 131 128.1 149.8 130.2 150.7 121.5" class="st3"/></g><g><path d="M147.5,128.6c-10.6-8.2-28.5,2.3-33.8,18.1c-4,12-9.8,70.8-9.8,70.8l64.3-0.9c0,0-5.2-63.4-12.7-74.1 C148,131.8,151,131.4,147.5,128.6z" class="st3"/></g><g><path d="M161.5,162.8c-0.3,0-0.7-0.2-0.7-0.6c0-0.1-1.3-6-4-15.2c-0.1-0.4,0.1-0.8,0.5-0.9c0.4-0.1,0.8,0.1,0.9,0.5 c2.8,9.3,4,15.2,4,15.3c0.1,0.4-0.2,0.8-0.6,0.9C161.6,162.8,161.6,162.8,161.5,162.8z" class="st1"/></g></g><g id="Head_71_"><g><path d="M139.1,121.1c-1.9,5.1-7.1,5.8-10.6,4.3c-3.2-1.4-3.8-5.5-0.6-8.3c1.1-0.9,2.6-1.7,4.7-2.2 c0,0,1.6,0.2,3.2,0.9C138,116.6,140.2,118.3,139.1,121.1z" class="st4"/></g><g><path d="M153.3,105.2c3.3,7.3,3.7,15.2-5.9,18.6c-6.5,2.3-14.5-0.5-17.8-7.8c-3.3-7.3-0.7-15.6,5.9-18.6 C142.1,94.4,150,97.9,153.3,105.2z" class="st4"/></g><g><ellipse cx="144" cy="109.5" class="st3" rx="1" ry="1" transform="matrix(0.9996 -2.958225e-02 2.958225e-02 0.9996 -3.1752 4.307)"/></g><g><path d="M152.3,110.3c-1.2-1.9-2.6-3.6-4.3-5.1c-0.5-0.4-1.2,0.3-0.7,0.7c1.6,1.4,3,3.1,4.2,4.9 C151.8,111.4,152.7,110.9,152.3,110.3z" class="st3"/></g><g><path d="M143.8,99.3c-2.2,2.4-13.1,7.8-9,13.2c1,1.4,2.2,1.9,1.1,3.3c-1.3,1.2-3.2-0.9-3.2-0.9 c-2,0.5-3.6,1.3-4.7,2.2c-5.3-4.6-5.2-9.8-2.8-11.7c0,0,14-20.1,20.5-14.8C151.4,95.3,143.8,99.3,143.8,99.3z" class="st2"/></g><g><path d="M134.9,119.2c-2.1-1-4.7-0.4-6.2,1.4c-0.4,0.5,0.3,1.2,0.7,0.7c1.2-1.5,3.2-2.1,5-1.2 C135,120.3,135.5,119.4,134.9,119.2z" class="st3"/></g></g><g id="Hand_55_"><g><path d="M191.6,135.4c6.3-12,13.5-13,17.5-12.8s3,5.2,3,5.2L191.6,135.4z" class="st4"/></g><g id="Piece_1"><g><path d="M273.3,155.3l-63.5,11.8l-8.1-43.2l-3.8-20.3l22.1-4.1l41.4-7.7l3.1,16.6l0,0c-7.9,1.5-13.3,7.6-11.6,16.9 c1.5,7.9,9.1,13.1,16.9,11.6l0,0L273.3,155.3z" class="st0"/></g><g><path d="M269.4,153.4c-0.1,0-0.3,0-0.4-0.1l-67.6-46.4c-0.3-0.2-0.4-0.7-0.2-1c0.2-0.3,0.7-0.4,1-0.2l67.6,46.4 c0.3,0.2,0.4,0.7,0.2,1C269.9,153.3,269.7,153.4,269.4,153.4z" class="st1"/></g><g><path d="M212.4,164.1c-0.1,0-0.3,0-0.4-0.1c-0.3-0.2-0.4-0.7-0.2-1l46.4-67.6c0.2-0.3,0.7-0.4,1-0.2 c0.3,0.2,0.4,0.7,0.2,1L213,163.7C212.9,164,212.7,164.1,212.4,164.1z" class="st1"/></g><g><path d="M220,100c0,11.5-7.8,21.1-18.3,24l-3.8-20.3l22.1-4.1C220,99.7,220,99.8,220,100z" class="st5"/></g></g><g><path d="M218,130.2c0,0,2-5.1-3.5-4.4c-5.5,0.7-16.8,0.4-27.8,14c-0.9,1.1-1.9,2.3-3,3.6c6,5.3,11.5,11,17,16.8 c1.1-2.4,1.9-4.5,2.6-5.9c5.3-10.5,18.2-5.1,16.2-16.5C219.5,137.9,222.8,130.9,218,130.2z" class="st4"/></g><g><path d="M185.1,141.8c-8.4,10.2-26.4,29.4-40.1,20.3c-14.7-9.8-16.7-20.4-16.7-20.4l-10.9,0.3 c-9.3,20.1-2.3,52.7,38.2,50.1c31.7-2.1,41.3-22.5,45.9-33.2C196.2,152.8,190.6,147.3,185.1,141.8z" class="st3"/></g><g><path d="M155.1,163.5c-13.7,0-22.7-9.8-24.8-17.7c-0.1-0.4,0.1-0.8,0.5-0.9c0.4-0.1,0.8,0.1,0.9,0.5 c2.2,8.5,13.2,19.4,29.6,15.9c11.5-2.5,20.7-17.1,20.8-17.2c0.2-0.4,0.7-0.5,1-0.2c0.4,0.2,0.5,0.7,0.2,1 c-0.4,0.6-9.6,15.3-21.8,17.9C159.4,163.3,157.2,163.5,155.1,163.5z" class="st1"/></g><g><path d="M217.8,137.7c-4.1,0.1-7.9,1.1-11.6,3c-0.6,0.3-0.1,1.2,0.5,0.9c3.5-1.8,7.1-2.8,11.1-2.9 C218.4,138.7,218.4,137.7,217.8,137.7z" class="st0"/></g><g><path d="M215.1,130.9c-3.2,0.2-6.3,0.9-9.3,2.2c-0.6,0.2-0.3,1.2,0.3,1c2.9-1.2,5.9-1.9,9-2.1 C215.8,131.9,215.8,130.9,215.1,130.9z" class="st0"/></g><g><path d="M158,192.2c-17.4,0-31.8-12.4-38.4-25c-0.2-0.4,0-0.8,0.3-1c0.4-0.2,0.8,0,1,0.3 c6.9,13.2,22.8,26.3,41.6,23.9c0.4-0.1,0.8,0.2,0.8,0.6c0.1,0.4-0.2,0.8-0.6,0.8C161.1,192.1,159.6,192.2,158,192.2z" class="st1"/></g></g><g id="Piece_2"><g><path d="M344.4,89.7v64.6h-64.6v-18.7h0c-8,0-14.5-6.5-14.5-14.5c0-9.4,6.5-14.5,14.5-14.5h0V89.7H344.4z" class="st4"/></g><g><path d="M312.8,105.5h-20.3c-0.4,0-0.8-0.3-0.8-0.8s0.3-0.8,0.8-0.8h20.3c0.4,0,0.8,0.3,0.8,0.8 S313.2,105.5,312.8,105.5z" class="st1"/></g><g><path d="M312.8,112.6h-20.3c-0.4,0-0.8-0.3-0.8-0.8s0.3-0.8,0.8-0.8h20.3c0.4,0,0.8,0.3,0.8,0.8 S313.2,112.6,312.8,112.6z" class="st1"/></g><g><path d="M344.4,117.8v36.5H314c-2.6-3.9-4.1-8.6-4.1-13.6c0-16.2,11.1-24.8,24.8-24.8 C338.2,115.9,341.5,116.6,344.4,117.8z" class="st5"/></g></g></g><g id="Background_46_"><g id="Piece_3"><g><path d="M275.8,302.1l-28.1,7.2l-17.7,4.6l-11.8-45.8l13.3-3.4l0,0c-1.5-5.7,2-11.5,7.7-12.9 c6.7-1.7,11.5,2,12.9,7.7l0,0l12-3.1l3.1,12L275.8,302.1z" class="st6"/></g><g><polygon points="239 284.4 233.1 285.9 229.4 286.9 226.9 277.3 236.6 274.8 237.2 277.3" class="st5"/></g><g><polygon points="251.1 281.4 245.2 282.9 241.5 283.9 239 274.3 248.7 271.8 249.3 274.3" class="st5"/></g><g><path d="M275.8,302.1l-28.1,7.2c-0.7-2.8-1-5.7-1-8.6c0-14.3,8.3-26.7,20.5-32.5L275.8,302.1z" class="st5"/></g></g><g id="Piece_4"><g><path d="M357.6,216.9l-6.5,14.9l0,0c-7.1-3.1-14.8-1.1-18.4,7.2c-3.1,7.1,0.2,15.3,7.3,18.4l0,0l-7.2,16.5l-57-24.8 l16.9-38.8l7.9-18.2l19.8,8.6l6.6,2.9l22.2,9.7L357.6,216.9z" class="st5"/></g><g><path d="M326.9,227.3c0,11-7.2,16.1-16.1,16.1c-8.9,0-16.1-7.2-16.1-16.1s7.2-16.1,16.1-16.1 C319.7,211.2,326.9,218.4,326.9,227.3z" class="st6"/></g><g><path d="M305.8,235l-2.4-11.5c-0.1-0.4,0.2-0.8,0.6-0.9c0.4-0.1,0.8,0.2,0.9,0.6l1.9,9.2l13.4-9.7 c0.3-0.2,0.8-0.2,1,0.2c0.2,0.3,0.2,0.8-0.2,1L305.8,235z" class="st1"/></g><g><path d="M349.2,213.2c-2.3,1.7-5.2,2.7-8.3,2.7c-7.2,0-13.1-5.4-13.9-12.4L349.2,213.2z" class="st6"/></g></g><g id="Objects_37_"><g><polygon points="254.6 84.4 266.8 76.7 267.9 90.4" class="st5"/></g><g><path d="M193.6,282.1c-0.2,0-0.3-0.1-0.5-0.2c-0.3-0.3-0.4-0.7-0.1-1.1l3.3-4.3c0.3-0.3,0.7-0.4,1.1-0.1 c0.3,0.3,0.4,0.7,0.1,1.1l-3.3,4.3C194,282,193.8,282.1,193.6,282.1z" class="st5"/></g><g><path d="M277.2,84.3c-0.3,0-0.5-0.1-0.6-0.4c-0.2-0.4-0.1-0.8,0.2-1l11-6.7c0.4-0.2,0.8-0.1,1,0.2 c0.2,0.4,0.1,0.8-0.2,1l-11,6.7C277.5,84.3,277.3,84.3,277.2,84.3z" class="st5"/></g><g><path d="M278,172.4c-0.1,0-0.2,0-0.3-0.1c-0.4-0.2-0.5-0.6-0.3-1l4.6-8.9c0.2-0.4,0.6-0.5,1-0.3 c0.4,0.2,0.5,0.6,0.3,1l-4.6,8.9C278.5,172.3,278.2,172.4,278,172.4z" class="st5"/></g><g><path d="M209.1,269.9c-0.1,0-0.2,0-0.3-0.1l-9.8-4.4c-0.4-0.2-0.5-0.6-0.4-1c0.2-0.4,0.6-0.5,1-0.4l9.8,4.4 c0.4,0.2,0.5,0.6,0.4,1C209.7,269.8,209.4,269.9,209.1,269.9z" class="st5"/></g><g><path d="M265.1,230.5c-0.2,0-0.5-0.1-0.6-0.3c-0.2-0.3-0.1-0.8,0.2-1l3.9-2.5c0.4-0.2,0.8-0.1,1,0.2 c0.2,0.3,0.1,0.8-0.2,1l-3.9,2.5C265.4,230.5,265.3,230.5,265.1,230.5z" class="st5"/></g><g><path d="M282.6,263.5c-0.2,0-0.4-0.1-0.5-0.2l-5.4-5.5c-0.3-0.3-0.3-0.8,0-1.1s0.8-0.3,1.1,0l5.4,5.5 c0.3,0.3,0.3,0.8,0,1.1C283,263.5,282.8,263.5,282.6,263.5z" class="st5"/></g><g><path d="M305.8,184c-0.3,0-0.6-0.2-0.7-0.5l-4.8-11.6c-0.2-0.4,0-0.8,0.4-1c0.4-0.2,0.8,0,1,0.4l4.8,11.6 c0.2,0.4,0,0.8-0.4,1C306,184,305.9,184,305.8,184z" class="st5"/></g><g><path d="M270.7,72.2c-0.3,0-0.5-0.1-0.7-0.4l-3.4-6c-0.2-0.4-0.1-0.8,0.3-1c0.4-0.2,0.8-0.1,1,0.3l3.4,6 c0.2,0.4,0.1,0.8-0.3,1C271,72.1,270.8,72.2,270.7,72.2z" class="st5"/></g></g></g></g></svg>