<svg xmlns="http://www.w3.org/2000/svg" xmlns:xlink="http://www.w3.org/1999/xlink" id="Слой_1" x="0" y="0" version="1.1" viewBox="0 0 348 334" xml:space="preserve" style="enable-background:new 0 0 348 334"><style type="text/css">.st0{fill:#f2f2f9}.st1{fill:#8facff}.st2{fill:#030047}.st3{fill:#fff}.st4{fill:#e4e4ef}.st5{fill:#5f5fff}.st6{fill:#ffcc3e}.st7{fill:#ff3e6c}</style><g id="_x33_"><g id="Bottom_67_"><g id="Chair_2_"><g><path d="M196.8,199.3v36.2c0,5.4,8.4,5.4,8.4,0v-36.2C205.2,193.9,196.8,193.9,196.8,199.3z" class="st0"/></g><g><path d="M231.6,271.4c-0.4,0-0.8-0.4-0.8-0.8v-3.7c0-4.7-3.8-8.6-8.6-8.6h-53.7c-4.7,0-8.6,3.8-8.6,8.6v3.7 c0,0.4-0.4,0.8-0.8,0.8s-0.8-0.4-0.8-0.8v-3.7c0-5.6,4.6-10.1,10.1-10.1h53.7c5.6,0,10.1,4.6,10.1,10.1v3.7 C232.4,271.1,232,271.4,231.6,271.4z" class="st0"/></g><g><path d="M165.6,270.6c0,3.5-2.9,6.4-6.4,6.4c-3.5,0-6.4-2.9-6.4-6.4c0-3.5,2.9-6.4,6.4-6.4 C162.8,264.2,165.6,265.8,165.6,270.6z" class="st0"/></g><g><path d="M201.8,270.6c0,3.5-2.9,6.4-6.4,6.4c-3.5,0-6.4-2.9-6.4-6.4c0-3.5,2.9-6.4,6.4-6.4 C199,264.2,201.8,265.8,201.8,270.6z" class="st0"/></g><g><path d="M238,270.6c0,3.5-2.9,6.4-6.4,6.4c-3.5,0-6.4-2.9-6.4-6.4c0-3.5,2.9-6.4,6.4-6.4 C235.1,264.2,238,265.8,238,270.6z" class="st0"/></g><g><path d="M226,203.9h-74.5c-6.8,0-12.3-5.5-12.3-12.3v-1.3c0-6.8,5.5-12.3,12.3-12.3H226c6.8,0,12.3,5.5,12.3,12.3 v1.3C238.3,198.3,232.8,203.9,226,203.9z" class="st0"/></g><g><path d="M218.4,154H193c-11,0-20-8.9-20-20v-16.4c0-11,8.9-20,20-20h25.4c11,0,20,8.9,20,20V134 C238.3,145.1,229.4,154,218.4,154z" class="st0"/></g></g><g id="Leg_29_"><g><path d="M163.1,153.6c-2.8,10.8-50.5,23.1-53.4,45.3c-2.7,20.8,4.4,56.4-2.1,61.6c-8.8,7.1-16.6,1.3-18.7,11.2 l45.9,11.2c0,0,5.8-28.3,10-71.4c43.8-21.1,56.4-64,56.4-64L163.1,153.6z" class="st1"/></g><g><path d="M163.1,153.6c-2.8,10.8-50.5,23.1-53.4,45.3c-1.9,14.2-3.3,45.8-3.4,59.4c7.4,1.3,33.9,5.7,36.2,6.3 c1.7-11.6,2.9-35.2,2.2-53c43.8-21.1,56.4-64,56.4-64L163.1,153.6z" class="st2"/></g><g><path d="M205.7,247.1c-5.8,1.2-11.7,2.5-17.5,3.8c4.6,6.6,7.6,12,6.7,15c-3.4,10.8-13,10.3-9.3,19.7l44.3-16.2 c0,0-3.8-9.6-11-25.2C214.6,245.2,210.1,246.1,205.7,247.1z" class="st1"/></g><g><path d="M223.7,254.5c-5.6-15-16.6-35.2-25.5-51.8c13.2-14.3,18.5-25.2,14.7-47.5l-31.5-9.1 c3.7,10.5-29,47.3-19,67.4c6.7,13.5,18.1,42.3,25.1,53.8C196.9,264.3,214.2,257.6,223.7,254.5z" class="st2"/></g><g><path d="M111.4,265.9c-1.4-1.1-2.8-2.2-4.1-3.4c-0.5-0.5-1.2,0.3-0.7,0.7c1.4,1.3,2.8,2.5,4.3,3.6 C111.4,267.2,111.9,266.3,111.4,265.9z" class="st2"/></g><g><path d="M200.5,267.8c-1.5,0-3-0.2-4.4-0.4c-0.7-0.1-0.9,0.9-0.3,1c1.6,0.2,3.1,0.4,4.7,0.4 C201.2,268.8,201.2,267.8,200.5,267.8z" class="st2"/></g><g><path d="M161.6,196.9c-0.1,0-0.2,0-0.3,0c-0.4-0.1-0.6-0.6-0.5-1c4.2-12,10.3-26,10.3-26.1c0.2-0.4,0.6-0.6,1-0.4 c0.4,0.2,0.6,0.6,0.4,1c-0.1,0.1-6.1,14.1-10.3,26C162.2,196.7,161.9,196.9,161.6,196.9z" class="st3"/></g></g></g><g id="Top_67_"><g id="Place"><path d="M246.3,63.4H204c-4.6,0-8.3-3.7-8.3-8.3v-0.9c0-4.6,3.7-8.3,8.3-8.3h42.3c4.6,0,8.3,3.7,8.3,8.3v0.9 C254.7,59.7,250.9,63.4,246.3,63.4z" class="st4"/></g><g id="Table"><path d="M162.1,147.8H88.9c-0.4,0-0.8-0.4-0.8-0.8c0-0.4,0.4-0.8,0.8-0.8h73.2c0.4,0,0.8,0.4,0.8,0.8 C162.9,147.4,162.5,147.8,162.1,147.8z" class="st2"/></g><g id="Hair_5_"><path d="M133.1,87.8c3.4-3.5,8-5.4,12.7-6.3c2.6-0.5,5.3-0.5,7.8-1.3c4-1.2,6-4.1,8-7.5c2.8-4.6,10.5-1.2,7.7,3.4 c-0.2,0.3-0.3,0.5-0.5,0.8c0.2,0.1,0.4,0.2,0.6,0.4c1.2,0.5,2.2,1.5,3,3.3c0.1,0.3,0.3,0.6,0.4,1c2.3,0.1,6.1-3.5,5.9-0.6 c-1.1,19.9-25.8,40.3-43.8,29C127.1,104.9,126.9,94.3,133.1,87.8z" class="st5"/></g><g id="Hand_2_64_"><g><path d="M237.1,89.5c0-12.7-1.8-35.5,2.1-34.8c3.9,0.7,3.6,12.5,3.6,12.5s4.3-1,5.5,2.5c0,0,5.1-1.2,5.7,4.3 c0.6,5.8,0.7,19.2,0.7,19.2L237.1,89.5z" class="st6"/></g><g><path d="M233.7,86.5c-2.5,20.1-2.3,34.1-16.4,24c-8.8-6.3-22.9-21.3-44.7-18.2c0,0,22.1,21.2,24.2,27.6 c2.1,6.4,3.9,22,28.6,23.6c29.3,2,31.5-35.2,31-51.9L233.7,86.5z" class="st7"/></g><g><path d="M238.7,85.8c-6.3-1-7.8-8.1-8.7-13.4c-0.8-4.7-1.2-9,0.8-9c3.7,0,4.4,6.6,4.4,6.6l4.8,2.5L238.7,85.8z" class="st6"/></g><g><path d="M247,78.3c-0.8,0.1-1.9,0.3-2.7-0.1c-1.6-0.6-1.3-2.2-1.3-3.5c0-1.9,0.1-3.7,0.3-5.6c0.1-0.7-1-0.7-1.1,0 c-0.2,1.7-0.3,3.5-0.3,5.2c0,1.2-0.2,2.7,0.5,3.7c1.1,1.6,3.2,1.4,4.9,1.2C247.9,79.2,247.6,78.2,247,78.3z" class="st7"/></g><g><path d="M251.9,78.9c-1.5,1.3-2.7-0.5-3-1.6c-0.2-0.6-0.1-1.3-0.1-2c0-1.4,0.1-2.7,0.2-4.1c0-0.7-1-0.7-1.1,0 c-0.1,2.3-0.8,5.6,0.5,7.7c1,1.5,2.8,1.9,4.2,0.8C253.1,79.2,252.4,78.4,251.9,78.9z" class="st7"/></g><g><path d="M242.8,76.1c-1.2-1.8-2.8-3.3-4.8-4.3c-0.6-0.3-1.1,0.6-0.5,0.9c1.8,0.9,3.3,2.2,4.4,3.9 C242.2,77.2,243.1,76.7,242.8,76.1z" class="st7"/></g></g><g id="Buttons_7_"><g><path d="M240,60.2L240,60.2c-3.1,0-5.6-2.5-5.6-5.6v0c0-3.1,2.5-5.6,5.6-5.6h0c3.1,0,5.6,1.2,5.6,5.6v0 C245.6,57.7,243.1,60.2,240,60.2z" class="st5"/></g><g><path d="M230.6,55.4h-8.4c-0.4,0-0.8-0.4-0.8-0.8c0-0.4,0.4-0.8,0.8-0.8h8.4c0.4,0,0.8,0.4,0.8,0.8 C231.4,55,231.1,55.4,230.6,55.4z" class="st5"/></g></g><g id="Hand_62_"><g><path d="M167.2,93.7c-16.4,9.4-21.3,30.1-22.1,39.2c0,0-24.3,1.6-24.5,9.7c-0.2,6,2.6,7.6,6.1,7.2 c0,0,3.1,1.9,5.8,0.1c0,0,2,5.2,5.1,4.1c3.2-1,1.6-7.8,1.6-7.8h25.6L167.2,93.7z" class="st6"/></g><g><path d="M145.1,132.9c0,0-2.5,0.2-5.9,0.7c4.7,2.6,8.1,7.3,10.2,12.6h15.5l3.5-52.9 C147.4,100.4,145.9,123.8,145.1,132.9z" class="st7"/></g><g><path d="M140.4,156.4c-0.4,0-0.7-0.3-0.8-0.6l-4.6-23.9c-0.1-0.4,0.2-0.8,0.6-0.9c0.4-0.1,0.8,0.2,0.9,0.6l4.6,23.9 c0.1,0.4-0.2,0.8-0.6,0.9C140.5,156.4,140.5,156.4,140.4,156.4z" class="st5"/></g><g><path d="M144,139.2l-4.8,3.6c0,0-3.6,8,0.2,9.1c3.7,1.1,6.9-10.9,6.9-10.9L144,139.2z" class="st6"/></g><g><path d="M132.3,148.5c-0.4-0.9-0.7-1.9-0.9-2.8c-0.1-0.7-1.2-0.4-1,0.3c0.2,1.1,0.6,2.1,1,3.1 C131.7,149.6,132.6,149.1,132.3,148.5z" class="st7"/></g><g><path d="M127.4,148.6c-0.7-0.7-1.1-1.6-1.3-2.6c-0.1-0.7-1.1-0.4-1,0.3c0.2,1.2,0.7,2.2,1.6,3 C127.2,149.8,127.9,149,127.4,148.6z" class="st7"/></g><g><path d="M145.2,141.2c-0.1,1.4-0.5,2.7-1.2,3.9c-0.3,0.6,0.6,1.1,0.9,0.5c0.7-1.4,1.2-2.8,1.3-4.4 C146.3,140.5,145.3,140.5,145.2,141.2z" class="st7"/></g><g><path d="M140.8,140.3c0.2-0.7-0.8-0.9-1-0.3c-0.8,2.6-1.9,4.9-2.2,7.7c-0.2,1.7-0.2,3.3,1.5,4.1 c0.6,0.3,1.1-0.6,0.5-0.9c-2-1-0.8-4.9-0.4-6.5C139.7,143,140.4,141.7,140.8,140.3z" class="st7"/></g></g><g id="Body_69_"><g id="Body_55_"><path d="M160.5,156.3c16.5,0.1,40.3,4.2,56.8,5c-0.5-9.1-9-47-17.4-55c-9.7-9.2-13-13-23.2-14.1 c-13.5-1.4-22.9,10.5-17.5,35C164,148.7,161.7,147.9,160.5,156.3z" class="st7"/></g><g><path d="M162.4,142.9c-0.4,0-0.7-0.2-0.8-0.6c-0.2-0.9-0.3-2.1-0.3-3.3c-0.1-1.9-0.1-4.1-1-5.6 c-6.1-10.7-6.6-17.7-2-26.7c0.2-0.4,0.7-0.5,1.1-0.3c0.4,0.2,0.5,0.7,0.3,1.1c-3.7,7.2-4.6,13.7,2,25.2c1.1,1.9,1.1,4.3,1.2,6.4 c0,1.1,0.1,2.2,0.2,3c0.1,0.4-0.2,0.8-0.6,0.9C162.5,142.9,162.5,142.9,162.4,142.9z" class="st3"/></g><g><path d="M211.8,139.9c-0.2,0-0.3,0-0.4-0.1c-0.4-0.2-8.8-6.1-13.9-18.1c-0.2-0.4,0-0.9,0.4-1c0.4-0.2,0.9,0,1,0.4 c4.8,11.5,13.2,17.3,13.3,17.4c0.4,0.2,0.5,0.7,0.2,1.1C212.3,139.8,212,139.9,211.8,139.9z" class="st2"/></g></g><g id="Head_74_"><g><path d="M174.1,83.6c5.7,0.7,9-3.8,9.2-7.7c0.3-3.6-3.2-6.3-7.5-4.6c-1.4,0.6-2.9,1.6-4.4,3.2c0,0-0.6,1.6-0.8,3.4 C170.5,80.3,170.9,83.2,174.1,83.6z" class="st6"/></g><g><path d="M174.2,89.1c-7.9,7.2-16.2,4.1-20.2-3.7c-1.8-3.4-3.4-7.3-3.1-11.3c0.3-3.6,1.7-7,4.6-9.2 c6-4.6,15-3,20.2,3.7c0,0,0,0,0,0.1C180.8,75.4,179.5,84.2,174.2,89.1z" class="st6"/></g><g><path d="M165,62.4c-3.4-0.4-6.8,0.3-9.5,2.5c-3.7,2.9-7.7,6.8-8.3,9.7s2.4,4.8,4,3.6 C156.1,73.9,161.4,68.5,165,62.4z" class="st5"/></g><g><ellipse cx="162.6" cy="78.8" class="st2" rx="1.1" ry="1.1" transform="matrix(0.4944 -0.8692 0.8692 0.4944 13.7147 181.2065)"/></g><g><path d="M159.3,87c-1.2-2-2.1-4.2-2.6-6.5c-0.2-0.7,0.9-0.9,1-0.3c0.5,2.2,1.4,4.3,2.5,6.3 C160.6,87.1,159.7,87.6,159.3,87z" class="st2"/></g><g><path d="M174.4,78.7c0.1-2.5,1.9-4.6,4.4-5c0.7-0.1,0.9,0.9,0.3,1c-2,0.4-3.5,2-3.6,4 C175.4,79.4,174.3,79.4,174.4,78.7z" class="st7"/></g><g><path d="M173.8,72.9c-0.9,3.9-22.7-0.5-22.5-1.4c0.7-2.6,2-4.9,4.2-6.5c6-4.6,17.3-4.7,21.8,5.9 C177.4,70.8,174.6,72,173.8,72.9z" class="st5"/></g></g><g id="Drawin"><g><path d="M103.1,182.8c-4.3,0-8.7-1.2-13.1-4.3c-0.4-0.3-0.4-0.7-0.2-1.1c0.3-0.4,0.7-0.4,1.1-0.2 c10,7,20.7,3.7,27.4-1.7c1.6-1.3,3-2.8,4.2-4.3c-4.9,0.5-9-1.1-11.5-4.6c-2.4-3.3-2.7-7-1-10.1c1.8-3.2,5.4-5.3,9.1-5.1 c3.5,0.2,6.5,2.4,8,6.2c1.4,3.3,0.8,7.3-1.2,11.2c6.4-1.9,13.1-7.4,13.8-13.5c0-0.4,0.4-0.7,0.9-0.7c0.4,0,0.7,0.4,0.7,0.9 c-0.8,7.3-8.7,13.3-15.7,15.1c-0.3,0.1-0.6,0.1-0.8,0.2c-1.4,2.1-3.2,4.1-5.4,5.8C115,180.2,109.3,182.8,103.1,182.8z M118.6,153.2c-2.9,0-5.9,1.7-7.3,4.3c-1.4,2.6-1.1,5.6,0.9,8.4c2.4,3.3,6.5,4.6,11.5,3.7c2.4-3.9,3.2-7.9,1.9-11.1 c-1.3-3.2-3.7-5.1-6.7-5.2C118.8,153.2,118.7,153.2,118.6,153.2z" class="st5"/></g><g><path d="M147.1,157.7c-0.3,0-0.6-0.2-0.7-0.5c-0.2-0.4,0-0.9,0.4-1l6.6-2.7c0.4-0.2,0.9,0,1,0.4 c0.2,0.4,0,0.9-0.4,1l-6.6,2.7C147.3,157.6,147.2,157.7,147.1,157.7z" class="st5"/></g><g><path d="M148.5,162.1H144c-0.4,0-0.8-0.4-0.8-0.8c0-0.4,0.4-0.8,0.8-0.8h4.5c0.4,0,0.8,0.4,0.8,0.8 C149.3,161.8,148.9,162.1,148.5,162.1z" class="st5"/></g></g><g id="Pause"><g><rect width="4.1" height="12.3" x="86.3" y="154" class="st1"/></g><g><rect width="4.1" height="12.3" x="93" y="154" class="st1"/></g></g></g></g></svg>