<svg xmlns="http://www.w3.org/2000/svg" xmlns:xlink="http://www.w3.org/1999/xlink" id="Слой_1" x="0" y="0" version="1.1" viewBox="0 0 418 370" xml:space="preserve" style="enable-background:new 0 0 418 370"><style type="text/css">.st0{fill:#ffcc3e}.st1{fill:#ff3e6c}.st2{fill:#5f5fff}.st3{fill:#030047}.st4{fill:#fff}.st5{fill:#8facff}.st6{fill:#e4e4ef}.st7{fill:#f2f2f9}</style><g id="_x31_"><g id="Top_77_"><g id="Cover_2"><polygon points="123 116.6 98.5 131.8 129.1 194.9 153.6 179.8" class="st0"/></g><g id="Hand_2_31_"><g><path d="M217.3,92.1c-20.3,3.6-24.6,21.7-39,24.5c-17.9,3.5-36.1,0.4-47,9.2s-5.1,11.1-5.1,11.1s-0.4,3.1,3.6,4 c0,0-0.4,4.4,3.3,4c3.7-0.4,5.9-7.8,9.9-7.7s7,2.5,10.3-0.7c3.3-3.1,16.7,4.7,36.8-4.1c13.1-5.7,21.9-10.6,25.7-18.6 C221,103,217.3,92.1,217.3,92.1z" class="st1"/></g><g><path d="M217.3,92.1c-20.3,3.6-24.6,21.7-39,24.5c-6.9,1.3-13.8,1.7-20.4,2.2c0.7,5.8,1.7,16.4,2.4,22.2 c6.5,0.8,20.3,0.9,33.6-4.9c13.1-5.7,18-14.1,21.8-22.2C221,103,217.3,92.1,217.3,92.1z" class="st2"/></g><g><path d="M138.2,131.4c-3.7,0.9-5.5,4.3-7,7.5c-0.3,0.6,0.6,1.1,0.9,0.5c1.4-2.9,3-6.2,6.4-7 C139.1,132.2,138.8,131.2,138.2,131.4z" class="st3"/></g><g><path d="M133.1,128.2c-2.7,1.8-5.5,3.9-5.8,7.4c-0.1,0.6,0.9,0.6,1,0c0.3-3.1,2.9-5,5.3-6.6 C134.1,128.7,133.6,127.8,133.1,128.2z" class="st3"/></g><g><path d="M144.8,135c0,0,0.6,4.7-1.4,6.3c-2.1,1.6-4.3,2.5-3.3,4.4c0.9,1.9,3.7,0.5,8.2-1.7 c4.6-2.2,6.5-8.1,6.4-10.6C154.7,130.9,144.8,135,144.8,135z" class="st1"/></g></g><g id="Body_30_"><g><path d="M217.3,92.1c6.4-2,25.1-6.9,41,19.7s5.9,49.5,5.9,49.5L217.3,141c0,0-2.5-9.1-6.8-26.4 C209.5,110.9,207.1,95.3,217.3,92.1z" class="st2"/></g><g><path d="M211,117.4c-0.3,0-0.7-0.2-0.7-0.6c-1-4.8-1.4-11.4-1.5-11.6c0-0.4,0.3-0.8,0.7-0.8c0.4,0,0.8,0.3,0.8,0.7 c0,0.1,0.4,6.7,1.4,11.4c0.1,0.4-0.2,0.8-0.6,0.9C211.1,117.4,211,117.4,211,117.4z" class="st4"/></g></g><g id="Legs_7_"><g><path d="M266.6,179.6h-39.3l-1.3-8l-30.7-10.3c0,1.4-2.3,10.1-4.6,18.3c-2.2,7.9-4.4,15.3-4.4,15.3H159 c0,0,0.5-6.5,1.6-15.3c0.6-5.2,1.5-11.1,2.5-17c2.5-14,5.7-27.1,17.3-34.6c24.7-15.9,69,21.5,83.9,33.2L266.6,179.6z" class="st5"/></g><g><path d="M225.6,169.7c-0.3,0-0.6-0.2-0.7-0.6l-1.9-7.5l-3.2-4.8c-0.2-0.3-0.1-0.8,0.2-1c0.3-0.2,0.8-0.1,1,0.2 l3.4,5.2l1.9,7.7c0.1,0.4-0.1,0.8-0.5,0.9C225.8,169.7,225.7,169.7,225.6,169.7z" class="st3"/></g></g></g><g id="Bottom_77_"><g id="Space"><path d="M153.1,179.6h7.4c-1.1,8.8-1.6,15.3-1.6,15.3h-29.9L153.1,179.6z" class="st3"/><path d="M275,179.6l-13.5,8.6l-10.6,6.7h-64.7c0,0,2.2-7.4,4.4-15.3H275z" class="st3"/></g><g id="Box"><g><rect width="121.8" height="98.9" x="129.1" y="194.9" class="st0"/></g><g><polygon points="275 278.5 250.9 293.9 250.9 194.9 275 179.6" class="st0"/></g><g><path d="M250.9,289.1c-0.4,0-0.8-0.3-0.8-0.8v-86.5c0-0.4,0.3-0.8,0.8-0.8s0.8,0.3,0.8,0.8v86.5 C251.6,288.8,251.3,289.1,250.9,289.1z" class="st4"/></g><g><path d="M166.2,194.9v0.2c0,25.9-16.5,38.3-37.2,39v-39.1H166.2z" class="st6"/></g><g><polygon points="156.1 228.9 147.5 235.8 158.1 240.4" class="st7"/></g><g><rect width="59.7" height="6" x="176.7" y="216.8" class="st2"/></g><g><path d="M212.6,234.1h-10.4c-1.2,0-2.1-1-2.1-2.1l0,0c0-1.2,1-2.1,2.1-2.1h10.4c1.2,0,2.1,1,2.1,2.1l0,0 C214.7,233.1,213.8,234.1,212.6,234.1z" class="st3"/></g><g><path d="M224,234.1h-3.5c-1.2,0-2.1-1-2.1-2.1l0,0c0-1.2,1-2.1,2.1-2.1h3.5c1.2,0,2.1,1,2.1,2.1l0,0 C226.1,233.1,225.2,234.1,224,234.1z" class="st3"/></g><g><path d="M234.2,234.1h-3.5c-1.2,0-2.1-1-2.1-2.1l0,0c0-1.2,1-2.1,2.1-2.1h3.5c1.2,0,2.1,1,2.1,2.1l0,0 C236.4,233.1,235.4,234.1,234.2,234.1z" class="st3"/></g><g><rect width="71" height="38" x="129.1" y="255.8" class="st6"/></g><g><path d="M178.1,292.9c-0.2,0-0.3,0-0.4-0.1l-47.5-34.7c-0.3-0.2-0.4-0.7-0.2-1c0.2-0.3,0.7-0.4,1-0.2l47.5,34.7 c0.3,0.2,0.4,0.7,0.2,1C178.5,292.8,178.3,292.9,178.1,292.9z" class="st4"/></g><g><path d="M151,292.9c-0.2,0-0.5-0.1-0.6-0.3c-0.2-0.3-0.2-0.8,0.2-1l47.1-34.7c0.3-0.2,0.8-0.2,1,0.2 c0.2,0.3,0.2,0.8-0.2,1l-47.1,34.7C151.3,292.9,151.1,292.9,151,292.9z" class="st4"/></g><g><rect width="3.9" height="42.5" x="280.4" y="209.4" class="st6"/></g></g><g><path d="M261.5,188.2l-10.6,6.7h-37.7c11-7.9,27-9.3,43.4-7.7C258.8,187.5,260.3,187.8,261.5,188.2z" class="st7"/></g><g id="Cover"><g><polygon points="284.3 141 260.1 156.3 250.9 195.1 275 179.8" class="st0"/></g><g><path d="M253.6,194c-0.2,0-0.5-0.1-0.6-0.3c-0.2-0.3-0.1-0.8,0.2-1l18.6-11.8c0.4-0.2,0.8-0.1,1,0.2 c0.2,0.3,0.1,0.8-0.2,1L254,193.8C253.9,193.9,253.8,194,253.6,194z" class="st4"/></g></g><g id="Hand_30_"><g><path d="M229,89.5c28.8-1.2,55.6,7,64.9,18.6c10.2,12.7,5,37.7-7.5,44.2c-3.1,1.6-6.6,2-8.5,2.9 c-5.8,2.7-7.1,2.4-9,0.9c0,0-4.8,3-6.2-0.7c0,0-1.8,4.7-5.2,3.5c-3.3-1.2,0.7-10.5,9.8-15.3c9.2-4.8,13.8-16.8,8.7-24 c-5.2-7.2-36.7-16-36.7-16L229,89.5z" class="st1"/></g><g><path d="M276.1,119.6c2.8,3.8,2.7,9.1,0.7,13.8c6.5,2.4,16.3,4.7,22.6,7.6c4.9-10.3,5-25.4-2.7-33.5 c-15-15.5-38.8-19.3-67.6-18.1l13.6,23.5C242.6,112.9,271,112.5,276.1,119.6z" class="st2"/></g><g><path d="M269.3,147c-2.6,1.8-4.7,4.1-6.1,6.9c-0.3,0.6,0.6,1.1,0.9,0.5c1.4-2.7,3.3-4.9,5.8-6.5 C270.3,147.5,269.8,146.6,269.3,147z" class="st3"/></g><g><path d="M274.3,148.7c-2.1,1.5-3.7,3.4-4.9,5.7c-0.3,0.6,0.6,1.1,0.9,0.5c1.1-2.1,2.6-3.9,4.5-5.3 C275.3,149.2,274.8,148.4,274.3,148.7z" class="st3"/></g><g><path d="M256.7,114.5c-0.1,0-0.1,0-0.2,0l-4.1-1.3c-0.4-0.1-0.6-0.5-0.5-0.9c0.1-0.4,0.5-0.6,0.9-0.5l4.1,1.3 c0.4,0.1,0.6,0.5,0.5,0.9C257.3,114.3,257,114.5,256.7,114.5z" class="st3"/></g></g><g id="Button_1_"><g><path d="M118.6,241.1c-0.2,0-0.4-0.1-0.5-0.2L102.2,225c-0.3-0.3-0.3-0.8,0-1.1s0.8-0.3,1.1,0l15.9,15.9 c0.3,0.3,0.3,0.8,0,1.1C119,241.1,118.8,241.1,118.6,241.1z" class="st1"/></g><g><path d="M102.7,241.1c-0.2,0-0.4-0.1-0.5-0.2c-0.3-0.3-0.3-0.8,0-1.1l15.9-15.9c0.3-0.3,0.8-0.3,1.1,0 s0.3,0.8,0,1.1l-15.9,15.9C103.1,241.1,102.9,241.1,102.7,241.1z" class="st1"/></g><g><path d="M118.6,254.8h-15.9c-0.4,0-0.8-0.3-0.8-0.8s0.3-0.8,0.8-0.8h15.9c0.4,0,0.8,0.3,0.8,0.8 S119,254.8,118.6,254.8z" class="st1"/></g></g><g id="Head_19_"><g><path d="M229.5,90.2c5.3,0.9,8.4-1.8,8.8-5.5c0.4-3.4-2.5-7.4-6.6-6.1c-1.4,0.5-2.8,1.4-4.3,2.9 c0,0-0.6,1.5-0.9,3.2C226.2,86.9,226.5,89.6,229.5,90.2z" class="st1"/></g><g><path d="M229.3,95.5c-7.8,6.5-15.5,3.1-18.9-4.5c-1.5-3.4-2.9-7.1-2.4-10.8c0.4-3.4,2-6.5,4.8-8.5 c5.9-4.1,14.4-2.1,18.9,4.5c0,0,0,0,0,0.1C236.3,82.8,234.6,91.1,229.3,95.5z" class="st1"/></g><g><ellipse cx="218.9" cy="85.1" class="st3" rx="1" ry="1" transform="matrix(0.5385 -0.8426 0.8426 0.5385 29.2942 223.7017)"/></g><g><path d="M215.3,92.7c-1-2-1.7-4.1-2.2-6.3c-0.1-0.6,0.9-0.8,1-0.2c0.4,2.1,1.1,4.1,2.1,6.1 C216.5,92.9,215.6,93.3,215.3,92.7z" class="st3"/></g><g><path d="M230,85.6c0.2-2.3,2-4.3,4.4-4.6c0.6-0.1,0.9,0.9,0.2,1c-1.9,0.2-3.4,1.7-3.6,3.6 C230.9,86.2,229.9,86.2,230,85.6z" class="st3"/></g><g><path d="M228.3,80.7c-0.7,2.5-3.1-0.6-9.3-1.8c-2.7-0.5-14.2,3.5-16-0.4c-2.7-5.7,4.9-9,9.8-6.9 c-0.5-2.1,1.9-5.2,5.1-3.6c8.6-4.3,16.3,0.6,15.3,10.2C233.2,78.3,229.1,79.9,228.3,80.7z" class="st3"/></g></g><g id="Objects_21_"><g><path d="M123.1,169.9c0,0-0.1,0-0.1,0l-12.1-2.2c-0.4-0.1-0.7-0.5-0.6-0.9c0.1-0.4,0.5-0.7,0.9-0.6l12.1,2.2 c0.4,0.1,0.7,0.5,0.6,0.9C123.7,169.6,123.4,169.9,123.1,169.9z" class="st6"/></g><g><path d="M115.9,174.8c0,0-0.1,0-0.1,0c-0.4-0.1-0.7-0.5-0.6-0.9l2.2-12.1c0.1-0.4,0.5-0.7,0.9-0.6 c0.4,0.1,0.7,0.5,0.6,0.9l-2.2,12.1C116.6,174.5,116.3,174.8,115.9,174.8z" class="st6"/></g><g><circle cx="210.2" cy="178.1" r="8.5" class="st6"/></g><g><polygon points="143 161.4 141.5 179.6 156.5 172.8" class="st6"/></g></g></g><g id="Background_66_"><g><path d="M198,194c-0.2,0-0.5-0.1-0.6-0.3l-4.2-5.9c-0.2-0.3-0.2-0.8,0.2-1c0.3-0.2,0.8-0.2,1,0.2l4.2,5.9 c0.2,0.3,0.2,0.8-0.2,1C198.3,193.9,198.2,194,198,194z" class="st6"/></g><g><path d="M203.4,194c-0.4,0-0.7-0.3-0.7-0.6l-1-5.9c-0.1-0.4,0.2-0.8,0.6-0.9c0.4-0.1,0.8,0.2,0.9,0.6l1,5.9 c0.1,0.4-0.2,0.8-0.6,0.9C203.4,194,203.4,194,203.4,194z" class="st6"/></g></g></g></svg>