<svg xmlns="http://www.w3.org/2000/svg" id="Layer_2" data-name="Layer 2" viewBox="0 0 1600 1200"><defs><style>.cls-1{fill:#f5ebdd}.cls-2{fill:#a15842}.cls-12,.cls-13,.cls-14,.cls-15,.cls-17,.cls-18,.cls-20,.cls-3,.cls-5,.cls-9{fill:none}.cls-12,.cls-3,.cls-9{stroke:#a15842}.cls-12,.cls-13,.cls-15,.cls-20,.cls-3,.cls-5,.cls-9{stroke-miterlimit:10}.cls-13,.cls-15,.cls-18,.cls-20,.cls-3,.cls-5,.cls-9{stroke-width:4px}.cls-4{fill:#ffbe21}.cls-5{stroke:#f5ebdd}.cls-12,.cls-13,.cls-15,.cls-17,.cls-18,.cls-20,.cls-5,.cls-9{stroke-linecap:round}.cls-6{fill:#ff7235}.cls-7{fill:#30242a}.cls-8{fill:#ffb7d5}.cls-10{fill:#eaa58b}.cls-11{fill:#3ec1f3}.cls-12,.cls-17{stroke-width:8px}.cls-13{stroke:#4756df}.cls-15,.cls-17{stroke:#30242a}.cls-16{fill:#4856df}.cls-17,.cls-18{stroke-linejoin:round}.cls-18{stroke:#000}.cls-19{fill:#fff}.cls-20{stroke:#4856df}.cls-21{fill:#4756df}</style></defs><title>wfh_9</title><rect width="419.28" height="419.28" x="247.09" y="409.56" class="cls-1" rx="29.33"/><circle cx="588.05" cy="386.9" r="10.12" class="cls-2"/><line x1="588.05" x2="588.05" y1="351.72" y2="383.53" class="cls-3"/><rect width="15.4" height="133.01" x="616.26" y="362.33" class="cls-2"/><path d="M669.8,252.66c-3.08,6.09-16,27.35-45.84,27.35s-42.75-21.26-45.84-27.35L549.27,362.33H698.66Z" class="cls-4"/><line x1="657.35" x2="676.75" y1="254.79" y2="362.35" class="cls-5"/><line x1="590.58" x2="571.43" y1="256.19" y2="362.35" class="cls-5"/><line x1="611.38" x2="603.96" y1="255.5" y2="362.31" class="cls-5"/><line x1="636.54" x2="643.98" y1="255.5" y2="362.52" class="cls-5"/><path d="M624,280c29.85,0,42.76-21.26,45.84-27.35l0-.21H578.18l-.06.21C581.21,258.75,594.12,280,624,280Z" class="cls-6"/><rect width="419.28" height="419.28" x="820.58" y="204.25" class="cls-1" rx="29.33"/><path d="M623.47,1016.78h0a11.4,11.4,0,0,1-11.32-10l-8.44-70.91h39.52l-8.44,70.91A11.39,11.39,0,0,1,623.47,1016.78Z" class="cls-7"/><path d="M1066.84,1016.78h0a11.38,11.38,0,0,1-11.31-10l-8.44-70.91h39.51l-8.44,70.91A11.39,11.39,0,0,1,1066.84,1016.78Z" class="cls-7"/><path d="M391.59,642.81H569a0,0,0,0,1,0,0v294a0,0,0,0,1,0,0H310.7a0,0,0,0,1,0,0V723.69A80.89,80.89,0,0,1,391.59,642.81Z" class="cls-8"/><path d="M590.14,495.34h611.24a80.89,80.89,0,0,1,80.89,80.89V936.78a0,0,0,0,1,0,0h-773a0,0,0,0,1,0,0V576.22a80.89,80.89,0,0,1,80.89-80.89Z" class="cls-8"/><line x1="509.25" x2="509.25" y1="686.13" y2="936.78" class="cls-9"/><path d="M590.14,760.4h611.24a80.89,80.89,0,0,1,80.89,80.89v95.5a0,0,0,0,1,0,0h-773a0,0,0,0,1,0,0v-95.5A80.89,80.89,0,0,1,590.14,760.4Z" class="cls-8"/><path d="M963.84,760.4H587.22a78,78,0,0,0-78,78v98.42" class="cls-9"/><line x1="1022.03" x2="1022.03" y1="761.63" y2="936.78" class="cls-3"/><line x1="1282.27" x2="1101.92" y1="640.88" y2="640.88" class="cls-3"/><path d="M455.28,610c23.13,2.89,30.34-6.93,33.73-15.42,3.85-9.63,1.37-17.91-1.63-28.67,0,0,7.64-4.16,6.45-8.93-1-3.85-9.69-4.28-9.69-4.28q-.51-2.58-.91-5.35c-1.93-13.5-4.82-21.21-4.82-21.21-6.75,1.93-15.42,1-18.31,0a57.67,57.67,0,0,1-20.24,27s-21.21-23.13-34.7-5.78c-11,14.15,4.82,31.8,15.42,33.73-6.3,13.29-23.25,21-32.07,24.22.54,4.18,1.05,8.06,1.5,11.44h66Z" class="cls-10"/><path d="M684.83,693.92a375.44,375.44,0,0,0,8.52-37.62l-23.13-62.65s9.64-26,1-29.88S643.23,585,635.52,605.22c-3.33,8.74-12.43,28.83-21.68,48.82Z" class="cls-10"/><path d="M589.25,706.42s-55.9-47.23-80.1-64.59-51.94-14.44-51.94-14.44L456,616.78H390c1,7.53,1.65,12.53,1.65,12.53L342.51,804.74,489,793.17l-3.85-54s79,66,124.34,59.76c40.89-5.66,64.12-64.7,75.33-105l-71-39.88C601.69,680.31,589.25,706.42,589.25,706.42Z" class="cls-11"/><path d="M420.58,581.12c-10.6-1.93-26.43-19.58-15.42-33.73,13.49-17.35,34.7,5.78,34.7,5.78a57.67,57.67,0,0,0,20.24-27c2.89,1,11.56,1.93,18.31,0,0,0,14.46-4.82,13.49-16.38-1.29-15.52-25.06-8.68-25.06-8.68s-26-19.28-54-6.75C383,507.79,380.1,534.86,382,553.17c1.1,10.51,4.11,34,6.48,52.17C397.33,602.11,414.28,594.41,420.58,581.12Z" class="cls-7"/><path d="M688.66,668.35c-4.41,1.82-8.28,2.35-10,1.36-4.32-2.46-5-7.61.13-14.85,0,0-12.19,4.75-15.95-1.43s1.89-11.87,1.89-11.87-8.63,2.38-10.74-5.3,5-11.7,5-11.7-4.86-1.81-5-6.88c-.19-7.37,11.82-13.35,15.28-14.92" class="cls-12"/><line x1="487.28" x2="483.71" y1="738.96" y2="697.27" class="cls-13"/><path d="M454.37,611.78a61,61,0,0,1-16-6.08" class="cls-9"/><line x1="348.77" x2="373.61" y1="791.72" y2="725.67" class="cls-13"/><path d="M479.52,575.79c-1.59,1-7.57,1.76-10-2.83" class="cls-9"/><circle cx="470.7" cy="551.24" r="2.89" class="cls-2"/><line x1="417.69" x2="428.29" y1="559.92" y2="565.7" class="cls-9"/><path d="M688.1,977.54l73.83-21.85c-5.63-19.46-16.4-56.35-23.33-77.84l-92.13,38.46A422,422,0,0,0,688.1,977.54Z" class="cls-10"/><path d="M447.57,836.54,474.3,849.1l-24.56-14.84C448.32,835.74,447.57,836.54,447.57,836.54Z" class="cls-14"/><polygon points="551.52 885.37 574.8 896.3 579.65 891.86 551.52 885.37" class="cls-14"/><path d="M689.5,979.19a128,128,0,0,0-4,25.07H816.11A29.28,29.28,0,0,0,803.47,990l-37.83-21.42s-1.44-5-3.71-12.9L688.1,977.54C689,978.62,689.5,979.19,689.5,979.19Z" class="cls-4"/><path d="M685.64,1016.78h133l-.41-4.12a29.14,29.14,0,0,0-2.13-8.4H685.49A77.71,77.71,0,0,0,685.64,1016.78Z" class="cls-6"/><path d="M620.1,854.86c6.38,22,16.15,43.11,26.37,61.45l92.13-38.46c-1-3.23-2-6.11-2.84-8.54C706.93,786,689.5,719,647.09,712.21c-66.75-10.62-180.3,104.34-197.35,122L474.3,849.1l77.22,36.27,28.13,6.49Z" class="cls-2"/><path d="M618,854a157,157,0,0,1-3.2-32.4" class="cls-15"/><path d="M975.76,626.42s-92.37,24.37-133,47.23c-46.27,26-49.16,60.72-78.07,148.43-9.31,28.23-15.89,50.91-22,68.73l79.64,37.6.15-.3s39-5.73,42.41-54c2.57-36,3.8-62.71,16.38-89.64l214.94-158.07Z" class="cls-7"/><path d="M699.75,943.76c-27.85,4.22-39.47,9.64-44,22.27l52.61,24.49s28.21-8,43.4-4.09l0,.05a169.27,169.27,0,0,1,29.67,9.93,443.14,443.14,0,0,0,41-68l-79.64-37.6C731.37,924.16,721.85,940.41,699.75,943.76Z" class="cls-16"/><path d="M739.09,1004.84l25.66,11.94a228.29,228.29,0,0,0,16.62-20.37,169.27,169.27,0,0,0-29.67-9.93Z" class="cls-7"/><line x1="725.92" x2="743.78" y1="922.98" y2="930.79" class="cls-5"/><line x1="715.77" x2="733.63" y1="935.37" y2="943.19" class="cls-5"/><circle cx="1069.25" cy="401.84" r="10.12" class="cls-4"/><circle cx="1104.92" cy="297.75" r="40.48" class="cls-7"/><path d="M1077,324.74c2.48,1.14-18.31-48.2-28.91-40.49C1038.07,291.51,1064.43,319,1077,324.74Z" class="cls-11"/><path d="M1078.11,327.75c2.27,2.71,55.29-15.84,48-26.55C1119,290.91,1075.85,325,1078.11,327.75Z" class="cls-11"/><path d="M1177.21,521.36l4.64-.72,0-1.36A39.88,39.88,0,0,1,1177.21,521.36Z" class="cls-7"/><path d="M1050.94,510.76c45.12.82,67.89-45.12,73.67-58.83-2-.37-4-.69-6.2-.93-26-2.89-30.84-3.85-39.52-15.42s-9.64-34.7-9.64-34.7,22.48-5,19.28-23.13c-2.89-16.39-22.17-16.39-32.77-4.82,0,0-16.39-3.86-31.81-21.21,0,0-11.28,2.65-19,1.36-2,12.62-1.88,26.74-4.16,38.16-3.86,19.28-1,31.81,10.6,38.56s25.06,1.92,25.06,1.92l-2.89,17.35s-16.83,1.95-30.86,6.36C1005.49,477.21,1015.52,510.12,1050.94,510.76Z" class="cls-2"/><polygon points="1113.59 626.42 1118.84 622.86 1109.74 626.42 1113.59 626.42" class="cls-2"/><path d="M905.4,514.62s-50.53-69-62.65-82.9c-13.5-15.42-31.81-31.8-37.59-26s10.6,25.06,10.6,25.06l-2.89,62.65s33.2,89.53,69.4,101.21c18.1,5.84,52.48-9.56,76.77-22.6l-37.57-68C911.92,510.3,905.4,514.62,905.4,514.62Z" class="cls-2"/><path d="M1177.21,521.36s-3.86-21.2-8.68-32.77c-7.21-17.32-19.11-32-43.92-36.66-5.78,13.71-28.55,59.65-73.67,58.83-35.42-.64-45.45-33.55-48.21-55.33a70.8,70.8,0,0,0-8.66,3.28c-10.17,4.75-49.92,30.49-72.6,45.33L959,572c15.79-8.47,27.32-16,27.32-16l-10.6,70.36h134l9.1-3.56,63-42.74A397,397,0,0,0,1177.21,521.36Z" class="cls-6"/><path d="M1205.16,472.21c-6.91-32.81-42.41-31.81-42.41-31.81a48.82,48.82,0,0,0-12.53-44.34c-19.28-20.24-46.27-11.57-46.27-11.57,1-11.56,2.89-41.44-22.17-59.75s-56.86-8.68-68.43,5.78c-4.71,5.89-7,13.87-8.37,22.56,7.69,1.29,19-1.36,19-1.36,15.42,17.35,31.81,21.21,31.81,21.21,10.6-11.57,29.88-11.57,32.77,4.82,3.2,18.13-19.28,23.13-19.28,23.13s1,23.13,9.64,34.7,13.5,12.53,39.52,15.42c2.16.24,4.22.56,6.2.93,24.81,4.65,36.71,19.34,43.92,36.66,4.82,11.57,8.68,32.77,8.68,32.77a39.88,39.88,0,0,0,4.59-2.08C1191.17,514.42,1211.12,500.51,1205.16,472.21Z" class="cls-7"/><line x1="1067.33" x2="1075.04" y1="384.49" y2="379.68" class="cls-15"/><path d="M1018,407.12c1.6,1,7.57,1.76,10-2.83" class="cls-15"/><circle cx="1033.72" cy="382.54" r="2.89" class="cls-7"/><circle cx="1011.42" cy="378.71" r="2.89" class="cls-7"/><path d="M1019.13,386.42s-2.63,6.59-2,7.91a4.93,4.93,0,0,0,2,2" class="cls-15"/><path d="M822,506.44a7.4,7.4,0,0,0,4.35-1.46c3.41-3.41,2.72-8.4-3.94-13.84,0,0,12.62,1.31,14.54-5.44s-4.81-10.6-4.81-10.6,8.67,0,8.67-7.71-7.71-9.64-7.71-9.64,4.08-2.95,2.89-7.71c-1.93-7.71-18.31-9.64-18.31-9.64l-2.26-2.76" class="cls-17"/><path d="M1037,433.6a111.52,111.52,0,0,0,11.88-5.55" class="cls-15"/><line x1="907.8" x2="917.93" y1="514.4" y2="528.11" class="cls-15"/><line x1="989.62" x2="984.7" y1="524.24" y2="555.12" class="cls-9"/><line x1="1108.77" x2="1108.29" y1="586.9" y2="537.27" class="cls-9"/><path d="M1164.21,441.75a88.6,88.6,0,0,1-5.57,15.14" class="cls-18"/><line x1="1105.72" x2="1102.99" y1="385.6" y2="399.92" class="cls-18"/><path d="M1047.09,627.39s-82.9,26-129.16,48.19c-46,22-40.48,73.25-31.81,162.89,3.07,31.69,6.66,56.5,8.48,76.15h88c4.52-2.52,31.2-19.65,15.29-66.51-11.62-34.21-21.65-56.87-21.65-86.59h73.6a80.44,80.44,0,0,0,80.41-78.14l1.61-56Z" class="cls-7"/><path d="M877.82,978c-23.44,15.62-31.67,25.44-30.45,38.81l58-.08s22.17-19.19,37.59-22.08a164.44,164.44,0,0,1,31-2.89c3.53-17.29,7.33-43.24,8-76.78l.64-.33h-88C897.67,947.63,895.72,966.05,877.82,978Z" class="cls-16"/><path d="M939.33,1016.64l28.31,0s3.08-8.61,6.4-24.87a164.44,164.44,0,0,0-31,2.89Z" class="cls-7"/><line x1="975.35" x2="952.63" y1="763.29" y2="763.29" class="cls-18"/><line x1="892.83" x2="914.56" y1="952.69" y2="952.69" class="cls-5"/><line x1="888" x2="909.73" y1="968.11" y2="968.11" class="cls-5"/><circle cx="594.56" cy="757.02" r="42.89" class="cls-19"/><rect width="24.1" height="38.55" x="582.51" y="731.96" class="cls-16" rx="12.05"/><line x1="594.56" x2="594.56" y1="766.66" y2="780.16" class="cls-20"/><line x1="587.65" x2="601.46" y1="780.16" y2="780.16" class="cls-20"/><circle cx="291.9" cy="454.37" r="15.9" class="cls-19"/><circle cx="340.1" cy="454.37" r="15.9" class="cls-19"/><circle cx="388.29" cy="454.37" r="15.9" class="cls-19"/><path d="M637,409.56a29.32,29.32,0,0,1,29.32,29.32V799.51A29.32,29.32,0,0,1,637,828.83H276.41a29.32,29.32,0,0,1-29.32-29.32V438.88a29.32,29.32,0,0,1,29.32-29.32H637m0-4H276.41a33.36,33.36,0,0,0-33.32,33.32V799.51a33.36,33.36,0,0,0,33.32,33.32H637a33.36,33.36,0,0,0,33.32-33.32V438.88A33.36,33.36,0,0,0,637,405.56Z" class="cls-1"/><path d="M1104.84,642.81h177.43a0,0,0,0,1,0,0v294a0,0,0,0,1,0,0H1024a0,0,0,0,1,0,0V723.69A80.89,80.89,0,0,1,1104.84,642.81Z" class="cls-8"/><path d="M1237.93,936.94a34.7,34.7,0,0,1,65.54,0,34.72,34.72,0,0,1,30.86-23.23,86.59,86.59,0,0,0-10.89-15.27l-12.6-14.11A28.71,28.71,0,0,1,1307,851.6l10.7-19.88h0c-3,3-20.36,19.28-46.71,19.28s-43.7-16.25-46.7-19.28h0l10.71,19.88a28.73,28.73,0,0,1-3.86,32.73l-12.6,14.11a86.41,86.41,0,0,0-10.91,15.3A34.7,34.7,0,0,1,1237.93,936.94Z" class="cls-21"/><path d="M1336.24,957a34.72,34.72,0,0,0-32.77,23.3,34.69,34.69,0,0,0-65.54,0,34.71,34.71,0,0,0-41.45-22.2,86.33,86.33,0,0,0,24.82,58.66h99.28a86.29,86.29,0,0,0,24.81-58.53A34.9,34.9,0,0,0,1336.24,957Z" class="cls-21"/><path d="M1270.94,851c26.35,0,43.7-16.25,46.71-19.28h-93.41C1227.24,834.75,1244.6,851,1270.94,851Z" class="cls-7"/><path d="M1237.93,980.32a34.69,34.69,0,0,1,65.54,0,34.69,34.69,0,0,1,41.92-22.07,86.35,86.35,0,0,0-11.06-44.54,34.72,34.72,0,0,0-30.86,23.23,34.7,34.7,0,0,0-65.54,0,34.7,34.7,0,0,0-30.4-23.2,86.48,86.48,0,0,0-11,44.38,34.71,34.71,0,0,1,41.45,22.2Z" class="cls-11"/><path d="M1277.86,848.27c1.9-11.66,10.57-57.92,32.36-83" class="cls-15"/><path d="M1267.79,848.6c-.14-13.24-1.5-78.3-14.44-117.12" class="cls-15"/><ellipse cx="1321.67" cy="795.36" class="cls-7" rx="37.8" ry="8.5" transform="translate(-208.38 599.54) rotate(-23.75)"/><ellipse cx="1319.25" cy="680.5" class="cls-7" rx="20.91" ry="7.3" transform="translate(-12.4 1336.42) rotate(-53.51)"/><ellipse cx="1220.51" cy="801.71" class="cls-7" rx="45.61" ry="8.06" transform="translate(-106.19 191.58) rotate(-8.6)"/><path d="M1204.28,744.71l0,.07a16.86,16.86,0,0,1-13.76,30.64l0,.07c20.88,9.38,40.9,10.09,44.72,1.59S1225.16,754.09,1204.28,744.71Z" class="cls-6"/><path d="M1266,676.72c-4.45-1.15-10.23,5.57-14.45,16-5.08-12.63-12.45-21.08-17.41-19.44s-5.86,12.81-2.42,26c-9.58-5.84-18.23-7.8-21.11-4.23-3.68,4.56,3.41,16.38,15.84,26.41a70.73,70.73,0,0,0,11.37,7.57,16.85,16.85,0,0,1,26.73-9.15,71.84,71.84,0,0,0,4.45-12.46C1273,691.92,1271.67,678.19,1266,676.72Z" class="cls-6"/><path d="M1362.9,746.89c-1.37-4.38-10.13-5.73-21.19-3.82,8-11,11.32-21.71,7.3-25.06s-14,1.81-23.34,11.69c-.11-11.22-3-19.59-7.57-20.15-5.81-.71-12.1,11.56-14,27.41a70.93,70.93,0,0,0-.41,13.65,16.85,16.85,0,0,1,21.9,17.85,71.57,71.57,0,0,0,12.93-2.81C1353.71,760.88,1364.65,752.48,1362.9,746.89Z" class="cls-6"/><path d="M1319.57,753.71a16.84,16.84,0,0,0-15.93-3.1c.54,7.54,2.45,13.31,5.32,15.46,2.67,2.48,8.87,3.3,16.58,2.39A16.83,16.83,0,0,0,1319.57,753.71Z" class="cls-7"/><path d="M1248.88,717.11A16.82,16.82,0,0,0,1237.83,729c6.68,3.53,12.59,5,15.93,3.66,3.52-1,7.49-5.78,10.8-12.81A16.83,16.83,0,0,0,1248.88,717.11Z" class="cls-7"/><path d="M1206.14,773a8.19,8.19,0,0,1,6.72-14.87,16.85,16.85,0,0,0-8.61-13.37l-13.76,30.64A16.82,16.82,0,0,0,1206.14,773Z" class="cls-1"/><path d="M1202.63,762.5a8.19,8.19,0,0,0,3.51,10.52,16.82,16.82,0,0,0,6.72-14.87A8.19,8.19,0,0,0,1202.63,762.5Z" class="cls-16"/><circle cx="865.4" cy="249.07" r="15.9" class="cls-19"/><circle cx="913.59" cy="249.07" r="15.9" class="cls-19"/><circle cx="961.78" cy="249.07" r="15.9" class="cls-19"/><path d="M1210.53,204.25a29.33,29.33,0,0,1,29.33,29.33V594.21a29.33,29.33,0,0,1-29.33,29.32H849.91a29.33,29.33,0,0,1-29.33-29.32V233.58a29.33,29.33,0,0,1,29.33-29.33h360.62m0-4H849.91a33.37,33.37,0,0,0-33.33,33.33V594.21a33.36,33.36,0,0,0,33.33,33.32h360.62a33.36,33.36,0,0,0,33.33-33.32V233.58a33.37,33.37,0,0,0-33.33-33.33Z" class="cls-1"/><path d="M816.72,430.76s-21.2,0-24.09,8.67,3.85,15.43,3.85,15.43-11.56,5.78-3.85,16.38c0,0-5.79,9.64,3.85,15.42,0,0-5.78,6.75,3.86,13.5s23.13,7.71,26,4.82c3.41-3.41,2.72-8.4-3.94-13.84,0,0,12.62,1.31,14.54-5.44s-4.81-10.6-4.81-10.6,8.67,0,8.67-7.71-7.71-9.64-7.71-9.64,4.08-2.95,2.89-7.71c-1.42-5.67-10.64-8.21-15.43-9.16a33.32,33.32,0,0,0-3.85-.48Z" class="cls-2"/><path d="M797.59,487.47A139.18,139.18,0,0,0,827,493" class="cls-15"/><path d="M794,472a153.66,153.66,0,0,0,42.68,4.39" class="cls-15"/><path d="M797.05,456a118.34,118.34,0,0,0,40.42,2.58" class="cls-15"/><path d="M1106.84,613.93s-78.07,20.25-105.06,40.49c-12.19,9.14-27,26-31.8,33.73s-25.06,36.63-15.42,37.59,20.24-16.38,20.24-16.38S969,730.56,970,737.31s10.6,4.82,10.6,4.82c7.71,7.71,14.46-1.93,14.46-1.93,13.49,8.67,28-37.59,28-37.59a91,91,0,0,0,21.69-14.94s86.26-.48,113.25-24.58c19.16-17.1,23.89-50.83,23.88-82.93h-75Z" class="cls-2"/><line x1="1107.56" x2="1125.16" y1="611.59" y2="607.19" class="cls-15"/><path d="M971,717c5-17,9-27,12-33.19" class="cls-15"/><path d="M996.48,689.6c-8.68,18.7-14,41.26-16.48,52.4" class="cls-15"/><path d="M1010,696.34c-5.67,13-10.82,32.56-14,44.66" class="cls-15"/><path d="M987.48,647.67c-23.49,8.36-49.71,18.4-69.55,27.91-35.56,17-40.33,51.51-36.66,107.68" class="cls-18"/><path d="M422.57,924.29c-39.43,8-67.53,18.28-67.53,18.28L317.1,925.76l.08-.83-88.41,80.29,1.93,2.31a25.72,25.72,0,0,0,19.75,9.25H427.9Z" class="cls-10"/><path d="M355,942.57s28.1-10.33,67.53-18.28l5.33,92.49H554.51c34.24,0,64.25-24,70.63-57.64,4.25-22.45-2.39-46.49-26.25-62.84-38.38-26.3-120.48-60.72-141.68-67.47l-116.63,27c-22.17,24.1-17.35,63.61-17.35,63.61Z" class="cls-2"/><path d="M422.86,925.54c26.22-5.07,55.51-9.46,96.51-7.55" class="cls-15"/><path d="M459.21,827.83c18.55,5.91,83.73,33,125.44,57.3" class="cls-15"/><path d="M336,925.63l-97.29,88.29a25.61,25.61,0,0,0,11.77,2.86H321.3L355,942.57A72.07,72.07,0,0,0,336,925.63Z" class="cls-4"/><path d="M323.23,919.43l-94.46,85.79,1.93,2.31a25.61,25.61,0,0,0,8,6.39L336,925.63A64.25,64.25,0,0,0,323.23,919.43Z" class="cls-6"/><line x1="301.54" x2="301.54" y1="999.92" y2="1017" class="cls-15"/><line x1="286.12" x2="286.12" y1="999.92" y2="1017" class="cls-15"/><path d="M392.05,627.69c3-.28,9.26-.79,15.52-.79" class="cls-13"/><path d="M670.22,593.65s18.8-6.23,24,1.61.38,16.4.38,16.4,13.09,2.59,8.32,15.25c0,0,8.39,8,.39,16.4,0,0,7.6,5.13-.15,14.48s-20.9,14-24.57,11.92c-4.32-2.46-5-7.61.13-14.85,0,0-12.19,4.75-15.95-1.43s1.89-11.87,1.89-11.87-8.63,2.38-10.74-5.3,5-11.7,5-11.7-4.86-1.81-5-6.88c-.19-7.37,12.74-13.79,16.2-15.35Z" class="cls-10"/><path d="M656,625.91c7.42-1.3,26.27-5.32,38.75-14" class="cls-9"/><path d="M659,643.92A106,106,0,0,0,703,628" class="cls-9"/><path d="M673,658.59c2.67-.94,20.09-7.19,30.66-13.89" class="cls-9"/><path d="M406.17,782c-17.45,2.13-36.92,5.28-58.84,9.2l30.84-82.89,13.49-79s-44.33,4.82-64.57,28c-18.67,21.33-77.11,120.48-54,172.53S365.64,863.53,382,858.71c8.93-2.63,22.46-8.69,36.35-13.2Z" class="cls-11"/><path d="M451.42,840.4c21.21,2.89,45.3,13.49,49.16,0,0,0,13-.33,8.9-12.69,0,0,6.52-.81,7.48-5.63,1.93-9.63-21.2-18.31-21.2-18.31s18.31,2.89,22.17-1c4.91-4.92.13-12.75-29.78-20-21.72-5.26-48-4.94-82-.78l12.21,63.47C430,841.76,441.78,839.08,451.42,840.4Z" class="cls-10"/><path d="M504,805c-10.27-3.94-29.77-10.49-43.9-12.79" class="cls-9"/><path d="M509.88,827.31c-13.4-6-39.28-17.12-53.16-19.2" class="cls-9"/><path d="M499.49,841.4c-10.33-5.24-31-15.08-45.66-17.87" class="cls-9"/><path d="M406.34,783.44c-9.42,1.22-39.55,5.38-84.56,14.07" class="cls-13"/><circle cx="1168.05" cy="551.72" r="42.89" class="cls-19"/><rect width="24.1" height="38.55" x="1156" y="526.66" class="cls-16" rx="12.05"/><line x1="1168.05" x2="1168.05" y1="561.36" y2="574.86" class="cls-20"/><line x1="1161.14" x2="1174.96" y1="574.86" y2="574.86" class="cls-20"/></svg>