<svg xmlns="http://www.w3.org/2000/svg" viewBox="0 0 1600 1200"><defs><style>.cls-1{fill:#3ec1f3}.cls-2{fill:#f4e6d8}.cls-3{fill:#4756df}.cls-14,.cls-15,.cls-16,.cls-20,.cls-21,.cls-22,.cls-23,.cls-24,.cls-4,.cls-5,.cls-8,.cls-9{fill:none}.cls-4,.cls-5{stroke:#4756df}.cls-13,.cls-14,.cls-15,.cls-20,.cls-21,.cls-22,.cls-24,.cls-4,.cls-8,.cls-9{stroke-linecap:round}.cls-14,.cls-20,.cls-22,.cls-23,.cls-24,.cls-4,.cls-5{stroke-miterlimit:10}.cls-13,.cls-14,.cls-15,.cls-20,.cls-21,.cls-22,.cls-23,.cls-24,.cls-4,.cls-5,.cls-8,.cls-9{stroke-width:4px}.cls-13,.cls-6{fill:#f5ebdd}.cls-7{fill:#ffb7d5}.cls-8,.cls-9{stroke:#ffb7d5}.cls-13,.cls-15,.cls-21,.cls-8,.cls-9{stroke-linejoin:round}.cls-8{stroke-dasharray:12}.cls-10{fill:#fff}.cls-11{fill:#4856df}.cls-12{fill:#30242a}.cls-13{stroke:#fff}.cls-14{stroke:#3ec1f3}.cls-15{stroke:#30242a}.cls-17{fill:#eaa58b}.cls-18{fill:#ff7235}.cls-19{fill:#ca7358}.cls-20,.cls-21{stroke:#a15842}.cls-22{stroke:#000}.cls-23,.cls-24{stroke:#ff7235}</style></defs><title>wfh_2</title><g id="Layer_12" data-name="Layer 12"><rect width="154.93" height="229.19" x="648.93" y="291.18" class="cls-1"/><path d="M603.54,291.18h45.39a0,0,0,0,1,0,0V520.37a0,0,0,0,1,0,0H547.17a0,0,0,0,1,0,0V347.55A56.37,56.37,0,0,1,603.54,291.18Z" class="cls-1"/><ellipse cx="595.3" cy="450.87" class="cls-2" rx="22.49" ry="24.58"/><path d="M626.93,451.4H563.67a31.61,31.61,0,0,0,19.67,29.28v8h23.92v-8A31.61,31.61,0,0,0,626.93,451.4Z" class="cls-3"/><line x1="546" x2="647" y1="390" y2="349" class="cls-4"/><line x1="647.1" x2="647.1" y1="291.18" y2="520.37" class="cls-5"/><path d="M1216.4,892.57v-88l-53.17-54.09H1013.8l-53.17,54.09v81.59H774.53V852.23h0c-59.59-6.42-41.26-50.42-74.26-50.42H641.6v0a22.27,22.27,0,0,0-12.07,3.5l-82.83-51.19H461.45l-106.8,66h.23v83.1l-71.73,44.33v76.09h986.42v-77Z" class="cls-6"/><path d="M1305.33,1023.66h-57.76c0-15.94,12.93-32.08,28.88-32.08S1305.33,1007.72,1305.33,1023.66Z" class="cls-7"/><path d="M1335.4,1023.66h-42.91c0-11.84,9.61-23.83,21.45-23.83S1335.4,1011.82,1335.4,1023.66Z" class="cls-7"/><path d="M492.47,638.66c28-8.67,64-21.13,173.55,68.46s151,31,139.79,17.46c-9-10.9-59.26,18.51-21.85,58.16,35.55,37.7,139.74,1.64,168.31-21.44,40.66-32.84,98.87-58.67,150.18-60.53" class="cls-8"/><line x1="568.26" x2="461.45" y1="820.14" y2="754.14" class="cls-9"/><polyline points="355.88 820.14 568.49 820.14 568.49 1022.66" class="cls-9"/><line x1="352.13" x2="353.13" y1="1023.04" y2="904.22" class="cls-9"/><line x1="284.15" x2="351.9" y1="947.57" y2="947.57" class="cls-9"/><line x1="353.28" x2="566.88" y1="933.36" y2="933.36" class="cls-9"/><line x1="958.33" x2="1109.6" y1="963.62" y2="963.62" class="cls-9"/><line x1="568.26" x2="618.1" y1="820.14" y2="820.14" class="cls-9"/><polyline points="961.63 804.56 1110.06 804.56 1110.06 1022.66" class="cls-9"/><polyline points="1110.06 1021.66 1110.06 804.56 1214.4 804.56" class="cls-9"/><line x1="716.77" x2="773.53" y1="854.06" y2="854.06" class="cls-9"/><polyline points="1163.23 1022.66 1163.23 946.66 1268 946.66" class="cls-9"/><line x1="1162.65" x2="1110.06" y1="751.06" y2="804.56" class="cls-9"/><line x1="1110.06" x2="1163.23" y1="892.57" y2="946.66" class="cls-9"/><line x1="1214.86" x2="1110.52" y1="890.28" y2="890.28" class="cls-9"/><path d="M642.72,803.64c-33,0-14.67,44-74.26,50.42H717C657.38,847.65,675.72,803.64,642.72,803.64Z" class="cls-9"/><polyline points="568.46 1021.66 568.46 854.07 716.97 854.07 716.97 1022.66" class="cls-9"/><polyline points="716.77 1021.66 716.77 902.65 958.34 902.65 958.34 1022.66" class="cls-9"/><line x1="717.2" x2="773" y1="900.41" y2="884.31" class="cls-9"/><polyline points="958.34 887.15 958.34 902.65 716.77 902.65" class="cls-9"/><path d="M764.76,930.16H765a16.36,16.36,0,0,1,16.36,16.36v77.15a0,0,0,0,1,0,0h-33a0,0,0,0,1,0,0V946.52A16.36,16.36,0,0,1,764.76,930.16Z" class="cls-7"/><path d="M912.36,930.16h.28A16.36,16.36,0,0,1,929,946.52v77.15a0,0,0,0,1,0,0H896a0,0,0,0,1,0,0V946.52A16.36,16.36,0,0,1,912.36,930.16Z" class="cls-7"/><path d="M838.56,930.16h.28a16.36,16.36,0,0,1,16.36,16.36v77.15a0,0,0,0,1,0,0h-33a0,0,0,0,1,0,0V946.52A16.36,16.36,0,0,1,838.56,930.16Z" class="cls-7"/><path d="M1218.1,967.74h.28a16.36,16.36,0,0,1,16.36,16.36v39.56a0,0,0,0,1,0,0h-33a0,0,0,0,1,0,0V984.1a16.36,16.36,0,0,1,16.36-16.36Z" class="cls-7"/><path d="M398.75,967.74H399a16.36,16.36,0,0,1,16.36,16.36v39.56a0,0,0,0,1,0,0h-33a0,0,0,0,1,0,0V984.1a16.36,16.36,0,0,1,16.36-16.36Z" class="cls-7"/><path d="M524.34,967.74h.28A16.36,16.36,0,0,1,541,984.1v39.56a0,0,0,0,1,0,0H508a0,0,0,0,1,0,0V984.1A16.36,16.36,0,0,1,524.34,967.74Z" class="cls-7"/><path d="M461.54,967.74h.28a16.36,16.36,0,0,1,16.36,16.36v39.56a0,0,0,0,1,0,0h-33a0,0,0,0,1,0,0V984.1A16.36,16.36,0,0,1,461.54,967.74Z" class="cls-7"/><rect width="33" height="55.92" x="382.38" y="849.48" class="cls-7"/><rect width="33" height="55.92" x="507.98" y="849.48" class="cls-7"/><rect width="33" height="55.92" x="445.18" y="849.48" class="cls-7"/><rect width="27.42" height="41.25" x="602.91" y="882.48" class="cls-7"/><rect width="27.42" height="41.25" x="655.09" y="882.48" class="cls-7"/><rect width="27.42" height="41.25" x="602.91" y="954.91" class="cls-7"/><rect width="27.42" height="41.25" x="655.09" y="954.91" class="cls-7"/><rect width="27.42" height="41.25" x="994.37" y="827.48" class="cls-7"/><rect width="27.42" height="41.25" x="1046.55" y="827.48" class="cls-7"/><rect width="27.42" height="41.25" x="1151.98" y="827.48" class="cls-7"/><rect width="27.42" height="41.25" x="994.37" y="899.9" class="cls-7"/><rect width="27.42" height="41.25" x="1046.55" y="899.9" class="cls-7"/><path d="M497.67,586.83c0,20.63-22,44.46-30.72,44.46s-30.71-23.83-30.71-44.46a30.72,30.72,0,0,1,61.43,0Z" class="cls-7"/><circle cx="466.95" cy="586.83" r="9.63" class="cls-10"/><path d="M1168.73,654.58c0,20.63-22,44.46-30.71,44.46s-30.71-23.83-30.71-44.46a30.71,30.71,0,1,1,61.42,0Z" class="cls-7"/><circle cx="1138.02" cy="654.58" r="9.63" class="cls-10"/><path d="M254.54,1023.66H312.3c0-15.94-12.93-32.08-28.88-32.08S254.54,1007.72,254.54,1023.66Z" class="cls-7"/><path d="M224.47,1023.66h42.91c0-11.84-9.61-23.83-21.45-23.83S224.47,1011.82,224.47,1023.66Z" class="cls-7"/><path d="M747.79,456c-71.17,43.51-95.92,164.71-111,208.93-16.31,47.82-52.23,46.73-93.91,60.65s-40.13,44.27-40.13,44.27a277.34,277.34,0,0,0-27.87,21.71L527.65,859c12.45-8.59,30.93-19.36,56.28-34.67C636.29,792.7,683.16,763,713.41,730S823.16,552.3,823.16,552.3Z" class="cls-11"/><path d="M527.65,859l-52.78-67.43c-23.6,21-37.74,41-44.85,52.64l74.41,95.06c10.48-19,2.15-45.74,3-57.41C508,874.83,514.38,868.16,527.65,859Z" class="cls-12"/><path d="M424.24,854.69l73.16,93.47a33.73,33.73,0,0,0,7-8.88L430,844.22A110.52,110.52,0,0,0,424.24,854.69Z" class="cls-1"/><line x1="500.59" x2="514.76" y1="863" y2="870.89" class="cls-13"/><line x1="494.28" x2="508.48" y1="877.26" y2="880.48" class="cls-13"/><line x1="519.62" x2="494.34" y1="796.72" y2="816.48" class="cls-14"/><line x1="506.82" x2="481.54" y1="780.35" y2="800.11" class="cls-14"/><line x1="532.42" x2="507.14" y1="813.09" y2="832.85" class="cls-14"/><line x1="545.22" x2="519.94" y1="829.46" y2="849.22" class="cls-14"/><line x1="500.46" x2="555.93" y1="770.72" y2="841.68" class="cls-14"/><path d="M769.82,644.48c-12.05-19-23.84-40-32.8-61.67" class="cls-15"/><path d="M1004.74,327l.13-.33-.24.23Z" class="cls-16"/><circle cx="789.65" cy="180.71" r="8.71" class="cls-3"/><path d="M817.3,307.68l-.6-10.12c11.65,1.46,20.28-.27,26.45-3.43L816.7,272.84s9.16-3.66,3.66-22.92l29.44-10.7c-1.55-4-2.58-13.64-5.55-24l-17.53,7.63a56.91,56.91,0,0,1-17.14,19.83,55,55,0,0,0-9.87-8.08c-.48-.31-1-.6-1.48-.89l-.05,0c-.49-.28-1-.55-1.49-.81l-.08,0c-.5-.25-1-.5-1.51-.72L795,232c-.49-.23-1-.43-1.51-.63l-.14,0c-.51-.18-1-.35-1.52-.51l-.17,0c-.5-.15-1-.28-1.52-.39l-.18,0c-.51-.11-1-.19-1.52-.25l-.2,0c-.5-.05-1-.08-1.51-.09-4.37-.06-8.7,1.72-12.31,6.77A17.16,17.16,0,0,0,771.08,247c.07,10.75,10.07,21,19,24-7.06,14.89-29.87,24.18-38.62,27.27.28,3.41.55,6.58.79,9.41H817.3Z" class="cls-17"/><path d="M995.24,369.1c-4.14,0-6.14-3.36-4.47-7.5l14-34.57-.11-.1.24-.23A110.55,110.55,0,0,0,1015.68,315c6.32-8.05,8.22-13.9,6-16.29a3.84,3.84,0,0,0-2.38-1.12,7.72,7.72,0,0,0-2.74.16c-7.14,1.56-19.37,11.29-33,27.34C967.07,344.48,935,382.85,935,382.85c-3.34-2.55-8.19-6.87-14-12.08l-46.14,59.32a210.32,210.32,0,0,0,31.54,20.31,33.92,33.92,0,0,1,63-3.95c27.8-20.77,49.76-57.83,60.05-77.35Z" class="cls-17"/><path d="M842.37,320.51h-14.1c26.89,16.2,15,46.76,15,46.76S880,392.94,855.2,424.11a28.17,28.17,0,0,0,4.58-6.42s5.92,5.44,15,12.4l46.14-59.32C899.49,351.65,864.7,320.51,842.37,320.51Z" class="cls-7"/><path d="M701.19,370s-27,22.51-8.75,52.65l9.61-54Z" class="cls-18"/><path d="M752.21,307.68l0,.33,1.16-.33Z" class="cls-18"/><path d="M790,271c-8.89-3-18.89-13.22-19-24l-22.91,10c.89,12.62,2.18,28.53,3.25,41.27C760.17,295.18,783,285.89,790,271Z" class="cls-12"/><path d="M816.7,272.84l26.45,21.29a24.13,24.13,0,0,0,11.69-12.2c3.9-9.76,1.38-18.16-1.66-29.06,0,0,7.75-5.19,6.54-10-1-3.91-9.83-3.37-9.83-3.37l-.09-.25-29.44,10.7C825.86,269.18,816.7,272.84,816.7,272.84Z" class="cls-12"/><path d="M809.58,242.66a56.91,56.91,0,0,0,17.14-19.83l-27,11.75A55,55,0,0,1,809.58,242.66Z" class="cls-12"/><path d="M798.23,233.69l-.05,0Z" class="cls-3"/><path d="M796.69,232.85l-.08,0Z" class="cls-3"/><path d="M795.1,232.09,795,232Z" class="cls-3"/><path d="M793.47,231.41l-.14,0Z" class="cls-3"/><path d="M788.42,230.14l-.2,0Z" class="cls-3"/><path d="M774.4,236.8c3.61-5.05,7.94-6.83,12.31-6.77h-.1c-2.51-27.75,3.68-42.84,8.27-50a88,88,0,0,0-13,2.94c-31.81,9.63-35.46,41-34.57,59.66.17,3.74.49,8.72.88,14.34l22.91-10A17.16,17.16,0,0,1,774.4,236.8Z" class="cls-3"/><path d="M791.81,230.85l-.17,0Z" class="cls-3"/><path d="M790.12,230.42l-.18,0Z" class="cls-3"/><path d="M798.18,233.66c-.49-.28-1-.55-1.49-.81C797.2,233.11,797.69,233.38,798.18,233.66Z" class="cls-1"/><path d="M799.71,234.58c-.48-.31-1-.6-1.48-.89C798.73,234,799.23,234.27,799.71,234.58Z" class="cls-1"/><path d="M791.64,230.81c-.5-.15-1-.28-1.52-.39C790.63,230.53,791.14,230.66,791.64,230.81Z" class="cls-1"/><path d="M796.61,232.81c-.5-.25-1-.5-1.51-.72C795.61,232.31,796.11,232.56,796.61,232.81Z" class="cls-1"/><path d="M788.22,230.12c-.5-.05-1-.08-1.51-.09C787.21,230,787.72,230.07,788.22,230.12Z" class="cls-1"/><path d="M789.94,230.39c-.51-.11-1-.19-1.52-.25C788.93,230.2,789.43,230.28,789.94,230.39Z" class="cls-1"/><path d="M793.33,231.36c-.51-.18-1-.35-1.52-.51C792.32,231,792.82,231.18,793.33,231.36Z" class="cls-1"/><path d="M795,232c-.49-.23-1-.43-1.51-.63C794,231.61,794.49,231.81,795,232Z" class="cls-1"/><path d="M786.61,230h.1c.5,0,1,0,1.51.09l.2,0c.51.06,1,.14,1.52.25l.18,0c.51.11,1,.24,1.52.39l.17,0c.51.16,1,.33,1.52.51l.14,0c.51.2,1,.4,1.51.63l.12.05c.51.22,1,.47,1.51.72l.08,0c.51.26,1,.53,1.49.81l.05,0c.5.29,1,.58,1.48.89l27-11.75,17.53-7.63c-5.35-18.66-17-39.74-49.37-35.14C790.29,187.18,784.1,202.27,786.61,230Z" class="cls-1"/><path d="M938.62,426.86a33.93,33.93,0,0,0-32.29,23.54c14.72,7.48,30.29,12.08,42.38,7.63a82.85,82.85,0,0,0,20.66-11.58A33.91,33.91,0,0,0,938.62,426.86Z" class="cls-19"/><path d="M847,483.24C880,461.69,857,425,855.2,424.11c24.75-31.17-11.92-56.84-11.92-56.84s11.88-30.56-15-46.76H818.06l-.76-12.83H753.4l-1.16.33,1.08,12.5H732.7l-30.65,48.15-9.61,54,.49.81q-.49.91-1,1.83c-6.2,12.2-7.11,22.58-5.52,31,3.31,17.61,17.49,26.89,17.49,26.89H847Z" class="cls-18"/><polygon points="703.94 499.31 846.95 499.31 846.95 486.45 846.95 483.24 703.94 483.24 703.94 486.45 703.94 499.31" class="cls-12"/><line x1="689" x2="843.28" y1="367.27" y2="367.27" class="cls-20"/><line x1="692.68" x2="856" y1="424.11" y2="424.11" class="cls-20"/><line x1="820.36" x2="820.02" y1="326.93" y2="321.51" class="cls-20"/><line x1="802.94" x2="802.03" y1="324.18" y2="309.51" class="cls-20"/><line x1="789.19" x2="788.28" y1="324.18" y2="309.51" class="cls-20"/><line x1="775.44" x2="774.53" y1="324.18" y2="309.51" class="cls-20"/><line x1="933.08" x2="922.12" y1="382.08" y2="395.69" class="cls-21"/><path d="M803.86,296.68a57.92,57.92,0,0,0,12.52,2.87" class="cls-20"/><path d="M1015.68,315c.05,2.69,2,4.59,5.07,4.59h29.91c4.14,0,8.86-3.36,10.54-7.51l9.12-22.58c1.67-4.14-.33-7.5-4.47-7.5h-29.92c-4.14,0-8.86,3.36-10.53,7.5l-3.72,9.21C1023.9,301.11,1022,307,1015.68,315Z" class="cls-6"/><path d="M1077.27,267.34h-8.08l-.71,1.75a7.76,7.76,0,0,1-6.55,4.67h-15.42c-2.57,0-3.82-2.09-2.78-4.67l.71-1.75h-8.08c-4.15,0-8.86,3.36-10.54,7.51l-9.26,22.91a7.72,7.72,0,0,1,2.74-.16,3.84,3.84,0,0,1,2.38,1.12l3.72-9.21c1.67-4.14,6.39-7.5,10.53-7.5h29.92c4.14,0,6.14,3.36,4.47,7.5l-9.12,22.58c-1.68,4.15-6.4,7.51-10.54,7.51h-29.91c-3.11,0-5-1.9-5.07-4.59a110.55,110.55,0,0,1-10.81,11.69l-.13.33-14,34.57c-1.67,4.14.33,7.5,4.47,7.5h40.92c4.14,0,8.86-3.36,10.53-7.5l35-86.75C1083.42,270.7,1081.42,267.34,1077.27,267.34Zm-40,88a7.55,7.55,0,0,1-2.55,3.16,6.78,6.78,0,0,1-3.88,1.42H1008c-2.54,0-3.76-2.05-2.74-4.58a7.65,7.65,0,0,1,6.44-4.58h22.92C1037.1,350.77,1038.32,352.82,1037.3,355.35Z" class="cls-3"/><path d="M1034.57,350.77h-22.92a7.65,7.65,0,0,0-6.44,4.58c-1,2.53.2,4.58,2.74,4.58h22.92a6.78,6.78,0,0,0,3.88-1.42,7.55,7.55,0,0,0,2.55-3.16C1038.32,352.82,1037.1,350.77,1034.57,350.77Z" class="cls-1"/><path d="M1046.51,273.76h15.42a7.76,7.76,0,0,0,6.55-4.67l.71-1.75h-24.75l-.71,1.75C1042.69,271.67,1043.94,273.76,1046.51,273.76Z" class="cls-1"/><line x1="867.12" x2="805.7" y1="206.84" y2="234.34" class="cls-15"/><path d="M847.39,264.2c-1.84.49-7.86-.52-8.85-5.69" class="cls-22"/><circle cx="837.92" cy="235.09" r="2.96" class="cls-12"/><line x1="787.11" x2="797.86" y1="248.52" y2="255.36" class="cls-20"/><line x1="810.28" x2="822.2" y1="240.76" y2="249.92" class="cls-15"/><line x1="787.36" x2="819.45" y1="271.93" y2="272.84" class="cls-15"/><path d="M912,486.45a13.75,13.75,0,0,1,13.75,13.75h0A13.76,13.76,0,0,1,912,514" class="cls-23"/><path d="M931.29,486.45A13.75,13.75,0,0,1,945,500.2h0A13.76,13.76,0,0,1,931.29,514" class="cls-23"/><rect width="175.1" height="23.84" x="867.12" y="488.28" class="cls-12" rx="11.82"/><rect width="515.66" height="23.84" x="740.73" y="732.88" class="cls-12" transform="translate(1554.85 -369.82) rotate(79.81)"/><rect width="23.84" height="23.84" x="867.12" y="488.28" class="cls-23" rx="11.82"/><path d="M993.56,487.2a13.76,13.76,0,0,1,9.24,13h0a13.75,13.75,0,0,1-8.23,12.59" class="cls-24"/><path d="M1009.56,487.2a13.76,13.76,0,0,1,9.24,13h0a13.75,13.75,0,0,1-8.23,12.59" class="cls-24"/><rect width="334.61" height="23.84" x="709.44" y="999.83" class="cls-12"/><circle cx="730.06" cy="1023.66" r="29.34" class="cls-12"/><circle cx="730.06" cy="1023.66" r="11" class="cls-7"/><circle cx="1049.25" cy="1023.66" r="29.34" class="cls-12"/><circle cx="1049.25" cy="1023.66" r="11" class="cls-7"/><path d="M775.9,1023.66H684.23a45.84,45.84,0,0,1,91.67,0Z" class="cls-18"/><path d="M1095.08,1023.66h-91.67a45.84,45.84,0,0,1,91.67,0Z" class="cls-18"/><path d="M820.64,920.07h85.74c1-15,3.84-35.94,7.33-64.7,7.36-60.73,12.88-115.94,5.52-160.1s-72.28-196-72.28-196H724.68c-9.6,82.85,70.58,177.06,96.1,216.19,27.6,42.33,4.6,69.93-10.12,111.33s10.12,58.89,10.12,58.89A276.11,276.11,0,0,0,820.64,920.07Z" class="cls-11"/><path d="M834.5,988.83H955.22c-8.53-20-34.69-29.89-43.35-37.77-5.33-4.84-6.57-14.28-5.49-31H820.64C822.51,952.06,829.64,975.89,834.5,988.83Z" class="cls-12"/><path d="M839.18,999.83h118.7a33.56,33.56,0,0,0-2.66-11H834.5A110.61,110.61,0,0,0,839.18,999.83Z" class="cls-1"/><line x1="853.98" x2="853.98" y1="888.9" y2="919" class="cls-14"/><line x1="833.2" x2="833.2" y1="888.9" y2="919" class="cls-14"/><line x1="874.76" x2="874.76" y1="888.9" y2="919" class="cls-14"/><line x1="895.54" x2="895.54" y1="888.9" y2="919" class="cls-14"/><line x1="821" x2="909" y1="887.98" y2="887.98" class="cls-14"/><path d="M876.25,570.44c-3-7.42-5.86-14.6-8.61-21.35l-45-7.9,0,.16a19.38,19.38,0,0,0,15.73,22.44Z" class="cls-1"/><line x1="892.79" x2="907" y1="944.82" y2="939" class="cls-13"/><line x1="900.13" x2="912" y1="958.58" y2="949" class="cls-13"/><path d="M1047.72,359s15.74.62,17-13.13c0,0,11.24-5.17,8.3-15.44,0,0,10.28-2.94,7.34-13.22-.19-.65,5.84-1.82,5.54-10.29-.44-12.36-8.82-21.26-12.48-22.18-11-2.75-6.82,15.12-7.34,14.67-6.41-5.5-15.77-8-19.11-5.2-5.82,4.88-1.78,11.4-1.78,11.4s-7.46-1.76-11.11,3.63c-4.44,6.54,3.5,12.64,3.5,12.64s-8.32.93-6.93,8.63c1.54,8.61,14.47,10.53,20.6,19.55Z" class="cls-17"/><path d="M1037.24,320.3c8.76,3.29,24,10.58,28.33,22.61" class="cls-21"/><path d="M1047.06,305c7.5,4.09,20.75,12.49,26.72,23.45" class="cls-21"/><path d="M1067.5,298c4.93,4.38,10.28,10.21,13.55,17" class="cls-21"/><path d="M753.44,320.51S786.3,370,777.28,417.69C770.86,451.61,693.85,481,648.93,491V464.44s93.51-22.91,104.51-64.17c6.67-25-20.17-79.76-20.17-79.76" class="cls-6"/><path d="M970.71,481c-5.5-13.76-22.92-28.42-43.09-35.76-38.76-14.09-132.93,6.42-132.93,6.42l-14.11-30.13-69.43,34c10,19.51,22,35.91,34.26,47.25a33.9,33.9,0,0,1,60,17c38.39-3,80.85-20.55,92.89-31.38,0,0,7.33,6.42,15.58,7.33,0,2.75-12.83,39.42,10.09,31.17,0,0,6.41,8.25,15.58-.91,0,0,6.42,9.16,15.59.91,0,0,5,3.13,11.91-4.58C975.29,513,977.73,498.49,970.71,481Z" class="cls-17"/><path d="M733.27,320.51H731c-18.61,0-49.08,13.76-45.41,49.4a245.7,245.7,0,0,0,25.55,85.54l69.43-34Z" class="cls-7"/><path d="M771.78,490.11a33.86,33.86,0,0,0-26.37,12.59,93.24,93.24,0,0,0,8,6.67c12.91,9.44,31.88,11.86,52,10.29A33.9,33.9,0,0,0,771.78,490.11Z" class="cls-19"/><path d="M924.77,525.36c4-8,13.08-28.74,6.52-42.58" class="cls-21"/><line x1="770.86" x2="792.47" y1="454.36" y2="449.93" class="cls-21"/><path d="M941,525c4.16-8.44,13.16-28.79,6.79-42.22" class="cls-21"/><path d="M957,526c4-8.06,12.89-29.46,6.38-43.22" class="cls-21"/></g></svg>