<svg xmlns="http://www.w3.org/2000/svg" viewBox="0 0 1600 1200"><defs><style>.cls-1{fill:#ffb7d5}.cls-2{fill:#ca7358}.cls-11,.cls-12,.cls-14,.cls-15,.cls-18,.cls-3,.cls-7,.cls-8{fill:none;stroke-width:4px}.cls-3{stroke:#ffb7d5}.cls-11,.cls-12,.cls-15,.cls-18,.cls-3,.cls-7,.cls-8{stroke-linecap:round}.cls-18,.cls-3,.cls-8{stroke-linejoin:round}.cls-4{fill:#f5ebdd}.cls-5{fill:#30242a}.cls-6{fill:#a15842}.cls-7,.cls-8{stroke:#30242a}.cls-11,.cls-12,.cls-14,.cls-15,.cls-7{stroke-miterlimit:10}.cls-9{fill:#ffbe21}.cls-10{fill:#3ec1f3}.cls-11,.cls-14{stroke:#ca7358}.cls-12{stroke:#f5ebdd}.cls-13{fill:#4756df}.cls-15{stroke:#a15842}.cls-16{fill:#f4e6d8}.cls-17{fill:#4856df}.cls-18{stroke:#3ec1f3}</style></defs><title>wfh_5</title><g id="Layer_11" data-name="Layer 11"><path d="M619.93,207.16H639.1A164.31,164.31,0,0,1,803.41,371.47V695.65a0,0,0,0,1,0,0H455.62a0,0,0,0,1,0,0V371.47A164.31,164.31,0,0,1,619.93,207.16Z" class="cls-1"/><path d="M692.75,502.63v198.1H538.25V502.63h154.5m4-4H534.25v206.1h162.5V498.63Z" class="cls-2"/><rect width="162.5" height="42.61" x="534.25" y="498.63" class="cls-2"/><path d="M533.47,395.62v306.1H440.4V395.62h93.07m4-4H436.4v314.1H537.47V391.62Z" class="cls-2"/><path d="M820.32,333.69v367H697.53v-367H820.32m4-4H693.53v375H824.32v-375Z" class="cls-2"/><path d="M746.32,379.73h1.91a16.38,16.38,0,0,1,16.38,16.38v38.11a0,0,0,0,1,0,0H729.94a0,0,0,0,1,0,0V396.11A16.38,16.38,0,0,1,746.32,379.73Z" class="cls-2"/><line x1="725.98" x2="768.58" y1="409.45" y2="409.45" class="cls-3"/><path d="M746.32,477.49h1.91a16.38,16.38,0,0,1,16.38,16.38V532a0,0,0,0,1,0,0H729.94a0,0,0,0,1,0,0V493.88a16.38,16.38,0,0,1,16.38-16.38Z" class="cls-4"/><line x1="725.98" x2="768.58" y1="507.22" y2="507.22" class="cls-3"/><path d="M746.32,575.26h1.91a16.38,16.38,0,0,1,16.38,16.38v38.11a0,0,0,0,1,0,0H729.94a0,0,0,0,1,0,0V591.64A16.38,16.38,0,0,1,746.32,575.26Z" class="cls-4"/><line x1="725.98" x2="768.58" y1="604.98" y2="604.98" class="cls-3"/><path d="M746.32,673h1.91a16.38,16.38,0,0,1,16.38,16.38v35a0,0,0,0,1,0,0H729.94a0,0,0,0,1,0,0v-35A16.38,16.38,0,0,1,746.32,673Z" class="cls-5"/><path d="M466.32,460.73h1.91a16.38,16.38,0,0,1,16.38,16.38v38.11a0,0,0,0,1,0,0H449.94a0,0,0,0,1,0,0V477.11a16.38,16.38,0,0,1,16.38-16.38Z" class="cls-4"/><line x1="445.98" x2="488.58" y1="490.45" y2="490.45" class="cls-3"/><path d="M466.32,558.49h1.91a16.38,16.38,0,0,1,16.38,16.38V613a0,0,0,0,1,0,0H449.94a0,0,0,0,1,0,0V574.88A16.38,16.38,0,0,1,466.32,558.49Z" class="cls-4"/><line x1="445.98" x2="488.58" y1="588.22" y2="588.22" class="cls-3"/><path d="M466.32,656.26h1.91a16.38,16.38,0,0,1,16.38,16.38v38.11a0,0,0,0,1,0,0H449.94a0,0,0,0,1,0,0V672.64A16.38,16.38,0,0,1,466.32,656.26Z" class="cls-2"/><line x1="445.98" x2="488.58" y1="685.98" y2="685.98" class="cls-3"/><rect width="130.79" height="16.35" x="693.53" y="329.69" class="cls-2"/><rect width="101.07" height="16.35" x="436.4" y="383.69" class="cls-2"/><rect width="34.68" height="44.59" x="563.48" y="579.88" class="cls-4"/><line x1="559.51" x2="602.12" y1="599.7" y2="599.7" class="cls-3"/><line x1="580.82" x2="580.82" y1="626.45" y2="599.7" class="cls-3"/><rect width="34.68" height="44.59" x="563.48" y="660.41" class="cls-2"/><line x1="559.51" x2="602.12" y1="680.22" y2="680.22" class="cls-3"/><line x1="580.82" x2="580.82" y1="706.98" y2="680.22" class="cls-3"/><rect width="34.68" height="44.59" x="628.87" y="579.88" class="cls-5"/><line x1="624.91" x2="667.52" y1="599.7" y2="599.7" class="cls-3"/><line x1="646.21" x2="646.21" y1="626.45" y2="599.7" class="cls-3"/><rect width="34.68" height="44.59" x="628.87" y="660.41" class="cls-4"/><line x1="624.91" x2="667.52" y1="680.22" y2="680.22" class="cls-3"/><line x1="646.21" x2="646.21" y1="706.98" y2="680.22" class="cls-3"/><circle cx="557.28" cy="302.44" r="25.76" class="cls-4"/><rect width="436.97" height="29.73" x="411.03" y="695.81" class="cls-4"/><path d="M636.42,177.59H622.61C514,177.59,425.9,265.67,425.9,374.31V725.54H833.14V374.31C833.14,265.67,745.06,177.59,636.42,177.59ZM614.65,695.81h-159V448.1h159Zm0-277.44h-159V375.32a168,168,0,0,1,159-167.76ZM803.41,695.81h-159V448.1h159Zm0-277.44h-159V207.56a168,168,0,0,1,159,167.76Z" class="cls-4"/><path d="M734.15,669.7s-68.66-164.8-71.66-207.76c-10.08-144.59,146.78-62.22,171.31-48,17.86,10.36,87.9,49.55,101.88,63.52,9,9,2.74,15.67,2.74,15.67s10.51,13.8-4.27,15.44c10.51,13.8-6.25,15.67-6.25,15.67s4.49,13.47-12.92,9.42c-18.76-4.37-161-65.94-161-65.94s31.78,100.33,41.7,132.07Z" class="cls-6"/><path d="M887.48,522.17c3.38-.67,5.66-2.62,5-6.81-2.15-13.76-25.14-26.76-25.14-26.76s9.22-22.19-8.88-39.33" class="cls-7"/><path d="M927.67,523.53c-8.25-4.83-38.49-22.52-45.66-26.2" class="cls-7"/><path d="M934.43,508.12c-10.32-6.18-35.46-21.83-45.84-27.27" class="cls-7"/><path d="M938.18,491.22c-13-8.62-37.52-24.59-47.22-29.49" class="cls-7"/><path d="M880.85,495.43c3.46-6.26,9.38-18.7,9.7-38.64" class="cls-7"/><line x1="753.6" x2="730.18" y1="470.06" y2="459.42" class="cls-8"/><rect width="19.27" height="166.61" x="470.44" y="864.01" class="cls-6" transform="translate(-467.24 1427.39) rotate(-90)"/><path d="M590.82,1037.65,549.55,790h25.28a10.2,10.2,0,0,0,0-20.4H385.56a10.2,10.2,0,0,0,0,20.4h25l-41.27,247.63a8.56,8.56,0,0,0,8.44,10h0a8.57,8.57,0,0,0,8.37-6.74L440.81,790h78.53L574,1040.88a8.55,8.55,0,0,0,8.36,6.74h0A8.56,8.56,0,0,0,590.82,1037.65Z" class="cls-9"/><path d="M574.83,790a10.2,10.2,0,0,0,0-20.4H385.56a10.2,10.2,0,0,0,0,20.4h25l-.05.31h30.19l.07-.31h78.53l.07.31H549.6l-.05-.31Z" class="cls-6"/><path d="M495.94,1029.76H260.86L216.53,893.34c-3.29-10.12,2.25-18.32,12.36-18.32H427.34c10.12,0,21,8.2,24.27,18.32Z" class="cls-1"/><path d="M644,1029.76H412.85a13.65,13.65,0,0,1-13,17.86H631A13.64,13.64,0,0,0,644,1029.76Z" class="cls-1"/><path d="M412.85,1029.76H261.09l1.77,5.46a17.94,17.94,0,0,0,17.06,12.4h120A13.65,13.65,0,0,0,412.85,1029.76Z" class="cls-2"/><polygon points="479.92 1029.76 278.91 1029.76 236.96 900.81 437.97 900.81 479.92 1029.76" class="cls-4"/><path d="M404.72,1004.16H342.8c-6.88,0-14.26-5.58-16.5-12.45l-14.93-46c-2.23-6.87,1.53-12.45,8.41-12.45H381.7c6.87,0,14.25,5.58,16.49,12.45l14.93,46C415.35,998.58,411.59,1004.16,404.72,1004.16Z" class="cls-10"/><line x1="262" x2="494" y1="1027.78" y2="1027.78" class="cls-11"/><path d="M397.82,943.51,373.4,969.59c-4.73,5-13.74,5-21.75,0l-40.32-25.42" class="cls-12"/><line x1="374.36" x2="412.86" y1="968.83" y2="993.1" class="cls-12"/><line x1="326.92" x2="349.94" y1="993.69" y2="969.1" class="cls-12"/><path d="M400.19,951.16c-7.7,0-16-6.3-18.54-14-1.18-3.64-.87-7,.88-9.39,1.61-2.2,4.32-3.42,7.64-3.42,7.7,0,16,6.3,18.53,14.05,1.19,3.64.88,7-.88,9.38C406.22,949.94,403.51,951.16,400.19,951.16Z" class="cls-13"/><path d="M390.17,926.3c6.78,0,14.4,5.8,16.63,12.66,1,3,.77,5.72-.59,7.6a7.17,7.17,0,0,1-6,2.6c-6.79,0-14.4-5.8-16.63-12.67-1-3-.77-5.71.59-7.59,1.22-1.68,3.35-2.6,6-2.6m0-4c-8.52,0-13.19,6.91-10.42,15.43s11.92,15.43,20.44,15.43,13.19-6.91,10.42-15.43-11.92-15.43-20.44-15.43Z" class="cls-4"/><path d="M1213.09,579.44h-.25c-1.78,3.22-13.51,22.91-34.12,22.91s-32.34-19.69-34.13-22.91h-.24l-32.08,144.81h132.9Z" class="cls-10"/><path d="M1127.47,656.47c27.22,2.85,69.49,27.16,84.18,67.36" class="cls-12"/><path d="M1145.11,725c3.05-32.75,29-86.88,75.7-103.81" class="cls-12"/><path d="M1178.23,591.68c-11.47,12.09-25.93,23.35-42.29,30.91" class="cls-12"/><path d="M1178.72,602.35c20.61,0,32.34-19.69,34.12-22.91h-68.25C1146.38,582.66,1158.1,602.35,1178.72,602.35Z" class="cls-5"/><path d="M991.46,1047.62h0a8.79,8.79,0,0,1-8.35-11.54l27.58-83.92a8.78,8.78,0,0,1,8.35-6h19.3a8.79,8.79,0,0,1,7.68,13.08l-46.88,83.92A8.81,8.81,0,0,1,991.46,1047.62Z" class="cls-6"/><path d="M1360.43,1047.62h0a8.79,8.79,0,0,0,8.35-11.54l-27.58-83.92a8.79,8.79,0,0,0-8.35-6h-19.31a8.79,8.79,0,0,0-7.67,13.08l46.88,83.92A8.8,8.8,0,0,0,1360.43,1047.62Z" class="cls-6"/><rect width="452.56" height="259.08" x="950.44" y="722.61" class="cls-1"/><path d="M1368.94,756V948.28H984.5V756h384.44m4-4H980.5V952.28h392.44V752Z" class="cls-2"/><line x1="1176.3" x2="1176.3" y1="751.64" y2="952.66" class="cls-14"/><circle cx="1221.78" cy="852.15" r="11.65" class="cls-5"/><circle cx="1131.66" cy="852.15" r="11.65" class="cls-5"/><path d="M509.52,645.2h0a29.27,29.27,0,0,1,29.27,29.27v95.41a0,0,0,0,1,0,0H480.25a0,0,0,0,1,0,0V674.47A29.27,29.27,0,0,1,509.52,645.2Z" class="cls-13"/><rect width="58.55" height="54.55" x="480.25" y="682.59" class="cls-10"/><rect width="26.02" height="18.43" x="496.51" y="630.02" class="cls-5"/><circle cx="867.56" cy="439.08" r="36.2" class="cls-5"/><path d="M839.45,461.46c2.89,1.31-21.62-56-33.9-46.92C794,423.05,824.83,454.81,839.45,461.46Z" class="cls-9"/><path d="M836.34,461.35c2.4,3,60.25-16,52.52-27.78C881.44,422.27,833.94,458.37,836.34,461.35Z" class="cls-9"/><circle cx="907.24" cy="396.43" r="23.31" class="cls-5"/><polygon points="748.04 809.56 867.07 809.56 873.35 779.8 729.93 779.8 748.04 809.56" class="cls-2"/><path d="M747,711.36s24.31-31.74,69.93-34.72l30.29-65.07c-8.09-1.29-13.92-2.11-13.92-2.11,1.2-2.9,5.28-12.5,10.21-24.34-8.92-5.93-23.49-17.59-26.86-32.3,10.7-1.61,32-11.71,23.59-29.38-10.3-21.67-37.56-5-37.56-5A62.87,62.87,0,0,1,787.5,485c-3.31.34-12.79-.67-19.52-4.31l-.45-.26a229,229,0,0,0-9.68,21.73c-.75,1.9-1.47,3.74-2.23,5.49,0,0-9.41-1.6-11.34,2.29-2.39,4.8,4.77,11,4.77,11-5.72,10.76-10.79,19.57-8.95,30.73,1.62,9.85,10.91,21.82,32.8,23.82l-11,34.71-41,71.19C728.94,686.1,739.74,695.07,747,711.36Z" class="cls-2"/><path d="M1036.68,572c-12.91-16.11-59-81.89-74.39-94.23-9.92-7.94-15.87-1-15.87-1s-14.88-8.93-14.88,5.95c-14.88-8.93-14.88,7.93-14.88,7.93s-13.89-3-7.93,13.89c6.41,18.16,78.36,149.24,78.36,149.24s-74.4-27.77-103.16-35.17c-5.28-1.36-11.75-2.7-18.28-3.92-4.21,9.86-10.79,26-21.4,53-14.4,36.55-7.4,73.09,34.27,87.59l7.39-35s77,28.94,120,27.77C1151.74,744.09,1054.54,594.31,1036.68,572Z" class="cls-2"/><path d="M787.5,485a62.87,62.87,0,0,0,15.22,33.53s27.26-16.72,37.56,5c8.41,17.67-12.89,27.77-23.59,29.38,3.37,14.71,17.94,26.37,26.86,32.3,7.32-17.59,16.5-40.14,20.82-53,6.39-19.06,9.69-48.6-19-69.94-26.85-19.93-57.62-6.71-64.56.23-4.12,4.12-8,8-13.24,18l.45.26C774.71,484.29,784.19,485.3,787.5,485Z" class="cls-5"/><path d="M844.25,667.72c10.61-26.94,17.19-43.12,21.4-53-6.44-1.21-12.93-2.3-18.39-3.17L817,676.64c-45.62,3-69.93,34.72-69.93,34.72-7.3-16.29-18.1-25.26-26.09-30l-9.14,15.87a54.11,54.11,0,0,0,1,54.48l17.08,28.07H873.35l5.17-24.49C836.85,740.81,829.85,704.27,844.25,667.72Z" class="cls-9"/><path d="M773.52,577.54a65.87,65.87,0,0,0,18.38-2.72" class="cls-7"/><path d="M919.53,524.85c.73-2.54,2.53-4.19,6.06-3.94,13.89,1,28.76,22.82,28.76,22.82s21.35-11,39.94,5.55" class="cls-7"/><path d="M918.68,490.11c7.76,12.23,22.18,35,25.75,40.72" class="cls-7"/><path d="M933,481.62c8,11.78,22,31.88,27.31,40.29" class="cls-7"/><path d="M948.66,477c10,12.76,25.32,32.56,30.49,41" class="cls-7"/><path d="M946.42,530.83c6-4,17.85-10.91,37.69-12.89" class="cls-7"/><line x1="833.07" x2="815.49" y1="607.34" y2="605.23" class="cls-7"/><line x1="770.85" x2="769.86" y1="799.64" y2="797.66" class="cls-7"/><line x1="884.93" x2="875" y1="722.2" y2="718.3" class="cls-7"/><line x1="1009.9" x2="987.35" y1="660.77" y2="651.91" class="cls-7"/><line x1="873.35" x2="729.93" y1="779.8" y2="779.8" class="cls-8"/><path d="M815.49,676.64,801,709a27.55,27.55,0,0,1-25.13,16.27h-71" class="cls-8"/><path d="M754.47,533c1.71,1.47,8.65,3.47,12.36-1.54" class="cls-7"/><line x1="824.93" x2="812.37" y1="529.89" y2="534.76" class="cls-15"/><path d="M778.08,510.24a7.21,7.21,0,0,1-8.84-5.7" class="cls-8"/><path d="M811.82,547.6l-4.54,18.55a5.75,5.75,0,0,0,6.92,7l16.95-4a5.75,5.75,0,0,0,3-9.34l-12.41-14.51A5.75,5.75,0,0,0,811.82,547.6Z" class="cls-16"/><line x1="662.81" x2="662.81" y1="984.13" y2="984.13" class="cls-5"/><path d="M850,978.62c-9.92-11.91-44.43-55-44.43-55" class="cls-8"/><path d="M1118,882c-3.64-9.84-10.32-26.33-18.56-46.13L1011,861.68l-10.14,3.2c4.56,29.49,8.06,43.87,8.06,43.87s-95.22-87.29-141.84-99.19H748l-40.67,238.06h355.1C1163.65,1047.62,1134.88,927.6,1118,882Z" class="cls-17"/><path d="M1021.71,654.49a12.87,12.87,0,0,0-14.42-7.63c-17.63,3.94-19,37.32-23.18,56.56-6.94,31.75-21.82,43.65-22.81,64.48-1,20,30.75,27.77,30.75,27.77q1.62,15.71,3.29,29.17l88.38-26.42C1059.48,741.28,1030.77,675.27,1021.71,654.49Z" class="cls-6"/><path d="M1000.81,864.65l0,.23,10.14-3.2Z" class="cls-6"/><path d="M1099.46,835.84c-.26-.61-.51-1.23-.77-1.85L1011,861.68Z" class="cls-10"/><path d="M1098.69,834c-4.61-11.06-9.69-23.11-15-35.57l-88.38,26.42c1.89,15.44,3.76,28.69,5.47,39.81l10.18-3Z" class="cls-10"/><path d="M830.74,809.25c31.7,33.25,195.62,201.8,246.61,184.8,37.23-12.41-17.59-134.68-22.81-150.77" class="cls-18"/><path d="M1052,944.6c-11.49-10.3-32-28.67-42.9-38.37" class="cls-8"/><line x1="988.08" x2="990.02" y1="772.86" y2="793.59" class="cls-8"/><line x1="1013" x2="1016.76" y1="648.62" y2="659.16" class="cls-8"/><line x1="1004" x2="1010.08" y1="649.62" y2="664.57" class="cls-8"/><path d="M773.53,941.84l-.56-.17,20.69-132.31H748S565.53,879,523.87,945.45c-39.38,62.81,32.73,102.17,53.56,102.17H759.1Z" class="cls-17"/><path d="M965.26,1047.62c23.81,0,15.88-26.79-1-35.71s-36.7-17.86-57.53-45.63-45.63-20.83-61.5-1c0,0-12.1-4.35-29.88-10.25l-13.92,92.58Z" class="cls-2"/><path d="M775.27,942.36l-1.74-.52L759.1,1047.62h42.34L815.36,955C803.8,951.21,789.85,946.72,775.27,942.36Z" class="cls-10"/><line x1="954.35" x2="969" y1="1036.71" y2="1045.62" class="cls-8"/><path d="M675.63,918.67c41.66,7.93,59.68,13,97.37,25" class="cls-8"/><line x1="942.45" x2="951" y1="1041.67" y2="1046.62" class="cls-8"/><line x1="847.23" x2="861.11" y1="964.05" y2="969.26" class="cls-8"/><path d="M1181.87,590.26c2.12-12.52,11.76-62.18,35.35-89.05" class="cls-7"/><ellipse cx="1228.11" cy="536.21" class="cls-5" rx="40.63" ry="9.14" transform="translate(-111.95 531.3) rotate(-23.38)"/><ellipse cx="1227.52" cy="410.21" class="cls-5" rx="22.48" ry="7.84" transform="translate(162.96 1146.28) rotate(-53.14)"/><path d="M1274,481.88c-1.45-4.72-10.85-6.24-22.75-4.25,8.71-11.77,12.31-23.26,8-26.89s-15,1.85-25.16,12.4c0-12.06-3.11-21.08-8-21.71-6.24-.81-13.08,12.34-15.28,29.36a76.52,76.52,0,0,0-.54,14.67,18.12,18.12,0,0,1,23.42,19.34,77,77,0,0,0,13.92-2.93C1264,496.85,1275.82,487.9,1274,481.88Z" class="cls-9"/><path d="M1227.35,488.9a18.09,18.09,0,0,0-17.1-3.44c.53,8.11,2.54,14.33,5.61,16.65,2.85,2.69,9.51,3.62,17.81,2.69A18.13,18.13,0,0,0,1227.35,488.9Z" class="cls-5"/><path d="M1175.33,588.67c-.69-14.22-4.82-84-20.3-125.21" class="cls-7"/><ellipse cx="1122.63" cy="540.23" class="cls-5" rx="49.03" ry="8.66" transform="translate(-81.26 219.63) rotate(-10.79)"/><path d="M1166.38,404.12c-4.82-1.06-10.75,6.4-14.86,17.74-6-13.36-14.24-22.13-19.5-20.17s-5.77,14-1.54,28c-10.53-5.88-19.89-7.63-22.84-3.67-3.77,5,4.33,17.45,18.09,27.72a77.13,77.13,0,0,0,12.52,7.67,18.12,18.12,0,0,1,28.34-10.93,77.93,77.93,0,0,0,4.27-13.57C1174.53,420.15,1172.53,405.47,1166.38,404.12Z" class="cls-9"/><path d="M1149.64,448.2a18.08,18.08,0,0,0-11.39,13.22c7.33,3.51,13.73,4.81,17.26,3.28,3.74-1.18,7.82-6.53,11.08-14.21A18.11,18.11,0,0,0,1149.64,448.2Z" class="cls-5"/><path d="M1103.49,478.44l0,.06a18.13,18.13,0,0,1,7.57,23.32,18.15,18.15,0,0,1-22.58,9.53l0,.07c22.38,10.23,43.89,11.13,48,2S1125.87,488.66,1103.49,478.44Z" class="cls-9"/><path d="M1105.29,508.87a8.8,8.8,0,0,1,7.33-15.94,18.16,18.16,0,0,0-9.16-14.43l-15,32.85A18.1,18.1,0,0,0,1105.29,508.87Z" class="cls-4"/><path d="M1101.59,497.54a8.8,8.8,0,0,0,3.7,11.33,18.09,18.09,0,0,0,7.33-15.94A8.81,8.81,0,0,0,1101.59,497.54Z" class="cls-5"/></g></svg>