<svg xmlns="http://www.w3.org/2000/svg" xmlns:xlink="http://www.w3.org/1999/xlink" viewBox="0 0 1600 1200"><defs><style>.cls-1{fill:#30242a}.cls-2{fill:#ffbe21}.cls-3{fill:#f5ebdd}.cls-4{fill:#eaa58b}.cls-5{fill:#a15842}.cls-6{fill:#4756df}.cls-7{fill:#ffb7d5}.cls-10,.cls-11,.cls-13,.cls-14,.cls-16,.cls-17,.cls-18,.cls-8,.cls-9{fill:none}.cls-14,.cls-8{stroke:#30242a}.cls-10,.cls-13,.cls-14,.cls-16,.cls-17,.cls-18,.cls-8,.cls-9{stroke-linecap:round}.cls-16,.cls-17,.cls-8{stroke-linejoin:round}.cls-10,.cls-14,.cls-16,.cls-17,.cls-18,.cls-8,.cls-9{stroke-width:4px}.cls-11,.cls-13,.cls-9{stroke:#a15842}.cls-10,.cls-11,.cls-13,.cls-14,.cls-18,.cls-9{stroke-miterlimit:10}.cls-10{stroke:#4756df}.cls-11,.cls-13{stroke-width:8px}.cls-12{fill:#ff7235}.cls-15{clip-path:url(#clip-path)}.cls-16,.cls-18{stroke:#000}.cls-17{stroke:#724342}.cls-19{fill:#f4e6d8}</style><clipPath id="clip-path"><ellipse cx="1393.58" cy="483.69" class="cls-1" rx="43.77" ry="50.39" transform="translate(79.7 1154.32) rotate(-46.18)"/></clipPath></defs><title>wfh_3</title><g id="Layer_10" data-name="Layer 10"><rect width="508" height="548" x="224.31" y="477.64" class="cls-2"/><rect width="568" height="30" x="194.31" y="995.64" class="cls-2"/><rect width="448" height="488" x="254.31" y="507.64" class="cls-3"/><rect width="492" height="30" x="232.31" y="686.64" class="cls-2"/><path d="M338.77,731.89s22.65,1.25,39.54-8.25c16-9,18.58-23.1,13-51,0,0,10-6,9-12-.65-3.95-12-8-12-8-1.42-7.62-3.22-19.14-6.14-30.92A121.77,121.77,0,0,1,360,624c-22.32,25.11-46.69,26.64-46.69,26.64a38.18,38.18,0,0,0-13.93-12.54l-33.29,13.27a31.9,31.9,0,0,0-.78,3.27c-4.63,26.25,28,36,28,36-6.58,25.14-28,35-44.08,38.87L250.59,742h89.86Z" class="cls-4"/><path d="M554,931c78-23,83-207,83-207l-40.69-52.36S604,634,596,627c-9.66-8.45-21.83,18-35,51-13.84,34.67-39.69,136.64-41.69,143.64,0,0-19.4-9.12-42.39-19.72l-3.26,10.72L444,912.63C476.52,925.94,522.61,940.26,554,931Z" class="cls-4"/><path d="M293.31,690.64s-32.63-9.75-28-36a31.9,31.9,0,0,1,.78-3.27L241.84,661c0,.69.11,1.34.16,2l7.23,66.51C265.34,725.64,286.73,715.78,293.31,690.64Z" class="cls-5"/><path d="M313.31,650.64S337.68,649.11,360,624a121.77,121.77,0,0,0,22.17-2.28c-1.24-5-2.69-10.05-4.41-14.88L299.38,638.1A38.18,38.18,0,0,1,313.31,650.64Z" class="cls-5"/><path d="M266.09,651.37l33.29-13.27C285.63,631.12,270.54,636.21,266.09,651.37Z" class="cls-1"/><path d="M299.38,638.1l78.38-31.26c-2.73-7.69-6.13-14.8-10.45-20.2-16.74-20.93-57.84-36.12-94.12-9.61-34.93,25.53-32.8,66.1-31.35,84l24.25-9.67C270.54,636.21,285.63,631.12,299.38,638.1Z" class="cls-1"/><path d="M392.82,786l-2.38-20.58C362.9,757.39,343,757,343,757l-2.5-15H250.59L252,755a151.54,151.54,0,0,0-26.58,2.27L238,786Z" class="cls-6"/><polygon points="264.17 846 399.77 846 396.3 816 251.07 816 264.17 846" class="cls-6"/><path d="M277.28,876l13.1,30H406.5l-1.19-11.36.1.05L403.24,876Z" class="cls-6"/><path d="M312.31,951.64s65.17,4.34,100,10L409.63,936H305.24Z" class="cls-6"/><polygon points="396.3 816 392.82 786 237.97 786 251.07 816 396.3 816" class="cls-7"/><polygon points="264.17 846 277.28 876 403.24 876 399.77 846 264.17 846" class="cls-7"/><polygon points="293.31 909.64 305.24 936 409.63 936 406.5 906 291.61 906 293.31 909.64" class="cls-7"/><path d="M476.85,801.88C465.49,796.64,453.26,791,442.07,786c-9.81-4.42-18.83-8.42-25.76-11.36a230.51,230.51,0,0,0-25.87-9.22L392.82,786l3.48,30,3.47,30,3.47,30,2.17,18.69c1,.52,9.81,5.27,23.16,11.31,4.44,2,9.38,4.16,14.69,6.34l.72.29,29.68-100,3.26-10.72Z" class="cls-6"/><path d="M305.24,936l-11.93-26.36-1.7-3.64h-1.23l2.62,6-97.45,35.44c16.42,32.7,35,60.76,48.76,74.2,48,47,173.7,17.72,173.7,17.72s14.3,11.28,33.3,15.28c34,67,52.7,43.72,52.7,43.72s12,13,21-1c18,1,17-10,1-48,18,22,35.92,22.35,36.3,16.28,1-16-44-69-85.3-86.28-24.84-10.39-64.7-17.72-64.7-17.72v0c-34.83-5.61-100-10-100-10Z" class="cls-4"/><path d="M225.42,757.27C206.87,760.45,183.08,768,169.34,786c-6.11,8-10.24,18-11,30.64-2.27,36.41,15.57,87.64,37.24,130.8L293,912Z" class="cls-6"/><line x1="322.01" x2="324.01" y1="743.36" y2="761" class="cls-8"/><line x1="305.01" x2="307.01" y1="743.36" y2="761" class="cls-8"/><path d="M338.83,734A52.93,52.93,0,0,1,320,729" class="cls-9"/><path d="M528.17,1048.86c-3.85-8.54-8.26-17.8-12.23-24.82" class="cls-9"/><path d="M497.16,1034c12.49,21.94,22.14,46.64,28,63.31" class="cls-9"/><path d="M475,1047c9,16.51,19.23,36.43,26.61,51.27" class="cls-9"/><line x1="406.61" x2="403" y1="894.27" y2="857" class="cls-8"/><line x1="517.05" x2="510.31" y1="821.24" y2="847.64" class="cls-9"/><line x1="251.59" x2="264" y1="753" y2="753" class="cls-8"/><line x1="345.13" x2="347.01" y1="757.1" y2="768.36" class="cls-8"/><line x1="366.61" x2="240.61" y1="584.27" y2="632.27" class="cls-10"/><line x1="310.61" x2="283.31" y1="949.27" y2="947.64" class="cls-9"/><line x1="311.61" x2="274" y1="950.27" y2="867" class="cls-8"/><path d="M599.74,662.9c-2.3,9.07-5.52,21-8.74,30.1,0,0,17,30-1,65" class="cls-9"/><path d="M612.41,924.72H655.8a1.12,1.12,0,0,1,1.12,1.12v31.8a1.12,1.12,0,0,1-1.12,1.12H612.41a17,17,0,0,1-17-17v0A17,17,0,0,1,612.41,924.72Z" class="cls-11" transform="translate(1252.32 1883.48) rotate(-180)"/><path d="M583.56,919.54c-35.81,0-52.37-28.54-52.37-28.54l24.08,104.73h56.58L635.92,891A61.47,61.47,0,0,1,583.56,919.54Z" class="cls-12"/><path d="M583.56,919.54A61.47,61.47,0,0,0,635.92,891H531.19S547.75,919.54,583.56,919.54Z" class="cls-5"/><line x1="300" x2="285" y1="669" y2="658" class="cls-9"/><circle cx="370.68" cy="652.51" r="4.15" class="cls-1"/><line x1="214.54" x2="405.09" y1="670.26" y2="598.01" class="cls-8"/><path d="M366.69,680.77c1,2,6.57,6.6,11.95,3.47" class="cls-9"/><path d="M633.78,759.06c-2.42-2.44-4.28-6.56-3.78-13.06,0,0-9,5-15,0-7.88-6.57-5-16-5-16s-9,3-13-4c-4.34-7.59,1-18,1-18s-7.19,1-9-6c-2.3-8.86,2.51-16.92,7.57-22.75" class="cls-13"/><rect width="189.27" height="147.3" x="427.01" y="402.33" class="cls-1" rx="18.76" transform="translate(1178.33 735.68) rotate(159.2)"/><rect width="16" height="307.3" x="592.02" y="526.72" class="cls-1" rx="8" transform="translate(1402.54 1103.32) rotate(159.2)"/><path d="M538.43,444.12A18.88,18.88,0,0,0,513.65,454l-2.18,5.08-5.08-2.19a18.86,18.86,0,0,0-14.92,34.64l5.08,2.19,34.63,14.92L546.11,474l2.18-5.07A18.85,18.85,0,0,0,538.43,444.12Z" class="cls-7"/><path d="M624.29,661.12c9.31,5.59,7.31,16.42,7.31,16.42s18.73-2.57,18.18,16.58c0,0,14.93,6.86,8.08,21.79,0,0,10.27,2.68,5.14,19.09-5,16-15.23,26.09-22,27-3.58.48-12-3-11-16,0,0-9,5-15,0-7.88-6.57-5-16-5-16s-9,3-13-4c-4.34-7.59,1-18,1-18s-7.19,1-9-6c-3.84-14.77,12.09-27.31,16-31l-3-8S615,655.54,624.29,661.12Z" class="cls-4"/><path d="M594.51,711.61c11.35-6.68,28.55-19,38.21-33.74" class="cls-9"/><path d="M607.69,732.43a150.24,150.24,0,0,0,42.78-37.13" class="cls-9"/><path d="M630.61,747.27c8-6,19-17,28.28-29.65" class="cls-9"/><rect width="508" height="548" x="860.31" y="168.64" class="cls-7"/><rect width="568" height="30" x="830.31" y="686.64" class="cls-7"/><rect width="448" height="488" x="890.31" y="198.64" class="cls-3"/><rect width="492" height="30" x="868.31" y="377.64" class="cls-7"/><path d="M989.76,316.87h32a0,0,0,0,1,0,0v129a16,16,0,0,1-16,16h0a16,16,0,0,1-16-16v-129a0,0,0,0,1,0,0Z" class="cls-1" transform="translate(1026.49 -688.93) rotate(69.94)"/><path d="M941.95,385.23h32a0,0,0,0,1,0,0v27.2a16,16,0,0,1-16,16h0a16,16,0,0,1-16-16v-27.2A0,0,0,0,1,941.95,385.23Z" class="cls-1" transform="translate(1011.48 -632.55) rotate(69.94)"/><circle cx="1091.71" cy="357.98" r="35" class="cls-6"/><path d="M938,414c-42,15-94.63,37.16-129-6-43-54,41-110,64-39,25.94,80.08-132.68,136.43-92,209,37,66,153.48-5.12,221,19,56,20,57.46,88.25,57.46,88.25" class="cls-14"/><path d="M1051.31,355.64c-2-12-10-21-15-22.19-11.93-2.82-18.52,8-18.52,8s-9.44-8.65-22.64,2.95c0,0-15.12-4.72-21.65,8.86,0,0-6.72-2.54-14.18,11.36-6.07,11.33-11,28.3-4,33,3,2,12,1,15-6,0,0,2.7,5,8,4,11-2,12-11,12-11s.93,3.39,7,4c9.84,1,15-9,15-9s3.73,2.49,11,0c9.71-3.33,12.22-17.86,12.22-17.86Z" class="cls-5"/><ellipse cx="1393.58" cy="483.69" class="cls-1" rx="43.77" ry="50.39" transform="translate(79.7 1154.32) rotate(-46.18)"/><g class="cls-15"><path d="M1342.31,489.64s35-22,40-62" class="cls-16"/></g><ellipse cx="1194.58" cy="443.69" class="cls-1" rx="50.39" ry="43.77" transform="translate(410.87 1448.52) rotate(-72.42)"/><path d="M1372.42,441.86c-.91-3.17,54.15,30.75,43,42C1404.9,494.42,1377,457.88,1372.42,441.86Z" class="cls-6"/><path d="M1372.86,443.83c-1.8-3.87,45.67-52.34,53.62-38.83C1434.12,418,1374.66,447.69,1372.86,443.83Z" class="cls-6"/><path d="M1318.31,450.64c-13-4-41-6-57-8-34-18-25-65-25-65,2-1,34.55-6.91,30.06-32.33-4-23-31.07-23-45.93-6.76,0,0-21.13-8.91-27.13-37.91,0,0-17.84,2.05-30.21-1.22-2.69,11.89-3.36,24.92-5.79,38.22,0,0-13,1-14,6-1,5.28,9.28,11.52,9.28,11.52-7,25.42-6,48.46,9.72,57.48,14,8,31,5,31,5l-2,24a150.1,150.1,0,0,0-51,11c-33.19,13.52-111,65-111,65,6-20,30.61-83.08,40-123,4-17,8-33-2-34-10.94-1.1-27,33-27,33l-68,25c-40.09,54.23-87,177-26,208,55,28,178-40,178-40l-11,100h200l45-213s.19-.2.53-.59C1344.78,460.89,1327.85,453.57,1318.31,450.64Z" class="cls-5"/><path d="M1292.31,431H1192.2l-.89,10.64a132.14,132.14,0,0,0-23.2,2.72c-2.55.51-5.25,1.11-8.06,1.82a150.56,150.56,0,0,0-19.74,6.46c-1.41.57-2.92,1.23-4.49,1.93-2.9,1.32-6,2.84-9.39,4.53-22.56,11.45-53.58,30.61-74.45,43.88l27.1,54.19,13.6,27.2,7.25,14.49c14.88-7,24.38-12.22,24.38-12.22l-11,100h200l45-213a81.8,81.8,0,0,0,6.65-8.48l0-.29Z" class="cls-2"/><path d="M1149.61,459.31l-13.79-4.74c-2.9,1.32-6,2.84-9.39,4.53l11.3,18.49-22.45,30.62,29.6-12.24,16.49,30.41,1.88-33.48,28.58-6.12-24.5-15.31.78-27.11c-2.55.51-5.25,1.11-8.06,1.82Z" class="cls-12"/><polygon points="1099.63 574.2 1124.11 570.55 1124.38 563.25 1111.71 557.46 1122.17 526.3 1094.24 544.67 1076.68 524.67 1079.22 557.12 1079.08 557.17 1092.68 584.37 1099.63 574.2" class="cls-12"/><polygon points="1253.84 490.55 1265.07 528.31 1276.29 490.55 1312.02 480.34 1277.31 466.05 1277.31 433.39 1257.92 458.9 1230.36 445.63 1246.69 473.19 1221.18 494.63 1253.84 490.55" class="cls-12"/><polygon points="1219.84 678.41 1198.82 647.32 1216.87 620.1 1186.61 630.64 1170.97 604.35 1169.35 636.35 1136.24 640.11 1165.71 654.76 1155.97 686.64 1161.13 686.64 1184.43 667.17 1219.84 678.41" class="cls-12"/><polygon points="1230.08 615.33 1254.57 593.9 1282.13 612.27 1269.88 581.65 1291.32 558.18 1260.7 563.28 1246.41 537.76 1243.34 565.32 1214.77 564.3 1239.26 582.67 1230.08 615.33" class="cls-12"/><path d="M1193.31,300.64c6,29,27.13,37.91,27.13,37.91,14.86-16.21,41.88-16.21,45.93,6.76,4.49,25.42-28.06,31.33-30.06,32.33,0,0-9,47,25,65,16,2,44,4,57,8,9.54,2.93,26.47,10.25,40.53,22.41,5-5.64,43.06-51.47,7.47-96.41-24.71-31.22-65.32-25.87-65.32-25.87,1.35-16.22,4-58.1-31.07-83.77s-79.72-12.16-95.93,8.11c-5.79,7.23-8.9,15.46-10.89,24.31C1175.47,302.69,1193.31,300.64,1193.31,300.64Z" class="cls-1"/><path d="M1038.46,392.86c-1.42,3.28-2.88,7-4.15,10.78,0,0-23,5-29.19,20.5" class="cls-14"/><line x1="1032.19" x2="1020.31" y1="515.66" y2="546.78" class="cls-8"/><line x1="1126.31" x2="1122.15" y1="549.64" y2="587.06" class="cls-17"/><path d="M1189.31,420.64a108.17,108.17,0,0,0,26.69-7.82" class="cls-14"/><line x1="1234" x2="1247" y1="356" y2="348" class="cls-14"/><path d="M1302.51,350.35c-.74,7.41-1.74,16.68-2.71,24" class="cls-18"/><path d="M1229.21,368.16l-3.64,22.12a5.75,5.75,0,0,0,7.43,6.41l19.48-6.25a5.75,5.75,0,0,0,2.31-9.54L1239,365A5.75,5.75,0,0,0,1229.21,368.16Z" class="cls-19"/><path d="M1182.44,362.58c-.91,13.22-14.53,14.12-17.73,4.73Z" class="cls-8"/><path d="M1184.64,338.19c-2.42,1.19-11.06,1.44-13.86-5.47" class="cls-8"/><path d="M1318.31,450.64,1318,612s-98.3-58.85-105.9-59.32c-5.59-.35-9.75,12.31.34,22.77-27.2-5.05-54.23-7.7-58.48.58-2.56,5,1.61,10.2,1.61,10.2-3.26.41-6.44,1.27-8.26,3.41-4.37,5.13,1.63,13,1.63,13-5.54,2.67-3.63,11,1.37,15,12.23,9.77,48.87,16.75,48.87,16.75C1186,636,1160.64,637.5,1162,645c2,11,58,11,58,11,21,14,38.31,13.64,38.31,13.64s51.28,52.64,103,65c133,23,29-226,1-258C1344.93,456.77,1318.31,450.64,1318.31,450.64Z" class="cls-5"/><path d="M1191.08,636.67c7-.07,14.58-.1,22.23,0" class="cls-8"/><path d="M1148,604.91c16.36,3,45.26,8.53,66.34,13.73" class="cls-8"/><path d="M1154.58,586.71c20.27,2.77,49.37,7,67.73,10.93" class="cls-8"/><path d="M1214.61,574.27a181.32,181.32,0,0,1,21.7,6.37" class="cls-8"/><path d="M1377.25,520.9l-1.88,33.48L1358.88,524l-29.6,12.24,22.45-30.62-17.29-28.3,29.17,10L1367,483a60.74,60.74,0,0,0-4.73-6.36c-17.38-19.87-44-26-44-26l-.23,119.9,8.86,8.69,24.49-26.82-12.38,36.84,2.17,1.6,67.48-14.5A561.68,561.68,0,0,0,1386.2,519Z" class="cls-2"/><path d="M1334.44,477.29l17.29,28.3-22.45,30.62,29.6-12.24,16.49,30.41,1.88-33.48,9-1.91c-7.06-15.36-13.82-27.94-19.16-36l-3.43,4.31Z" class="cls-12"/><polygon points="1339.05 589.25 1351.43 552.4 1326.94 579.23 1318.08 570.54 1318.03 595.84 1341.22 590.85 1339.05 589.25" class="cls-12"/><line x1="1316" x2="1316" y1="548.18" y2="608.27" class="cls-17"/><path d="M1315.61,608.27S1335,620,1365,638" class="cls-8"/><path d="M971.35,354.13c-2.72,10.09-5.14,24.3-3.09,38.88" class="cls-14"/><path d="M992.54,345.11c-2.63,7.9-5.41,21.54-3.77,41.8" class="cls-14"/><path d="M1015.61,341.27c-2.86,8.39-6.69,21.56-5.06,38.38" class="cls-14"/><path d="M1038.44,349.34s-.29,6.2-.78,13" class="cls-14"/></g></svg>