<svg xmlns="http://www.w3.org/2000/svg" viewBox="0 0 1600 1200"><defs><style>.cls-1{fill:#f5ebdd}.cls-2{fill:#ffb7d5}.cls-3{fill:#3ec1f3}.cls-4{fill:#4756df}.cls-5{fill:#30242a}.cls-10,.cls-12,.cls-14,.cls-15,.cls-16,.cls-17,.cls-18,.cls-6,.cls-8,.cls-9{fill:none}.cls-10,.cls-12,.cls-6{stroke:#30242a}.cls-10,.cls-18,.cls-6,.cls-8,.cls-9{stroke-miterlimit:10}.cls-10,.cls-12,.cls-14,.cls-16,.cls-17,.cls-18,.cls-6,.cls-8,.cls-9{stroke-width:4px}.cls-7{fill:#a15842}.cls-16,.cls-8{stroke:#a15842}.cls-9{stroke:#ffb7d5}.cls-10,.cls-12,.cls-14,.cls-16,.cls-17,.cls-18{stroke-linecap:round}.cls-11{fill:#ff7235}.cls-12,.cls-14,.cls-16,.cls-17{stroke-linejoin:round}.cls-13{fill:#ffbe21}.cls-14{stroke:#ca7358}.cls-17,.cls-18{stroke:#f5ebdd}</style></defs><title>wfh_10</title><g id="Layer_8" data-name="Layer 8"><path d="M1105.84,330.93H860.17A17.19,17.19,0,0,0,843,348.12V499H1123V348.12A17.2,17.2,0,0,0,1105.84,330.93Z" class="cls-1"/><path d="M977,306a5.92,5.92,0,0,1,5.91,5.91V407a5.92,5.92,0,0,1-5.91,5.91H880.9A5.92,5.92,0,0,1,875,407v-95.1A5.92,5.92,0,0,1,880.9,306H977m0-4H880.9a9.91,9.91,0,0,0-9.92,9.91V407a9.92,9.92,0,0,0,9.92,9.91H977a9.91,9.91,0,0,0,9.91-9.91v-95.1A9.91,9.91,0,0,0,977,302Z" class="cls-2"/><path d="M1129.09,416.54a5.92,5.92,0,0,1,5.91,5.91v95.1a5.92,5.92,0,0,1-5.91,5.91h-95.61a5.92,5.92,0,0,1-5.91-5.91v-95.1a5.92,5.92,0,0,1,5.91-5.91h95.61m0-4h-95.61a9.91,9.91,0,0,0-9.91,9.91v95.1a9.91,9.91,0,0,0,9.91,9.91h95.61a9.91,9.91,0,0,0,9.91-9.91v-95.1a9.91,9.91,0,0,0-9.91-9.91Z" class="cls-2"/><path d="M884.25,440.19a5.92,5.92,0,0,1,5.91,5.91v61a5.92,5.92,0,0,1-5.91,5.91H829.91a5.92,5.92,0,0,1-5.91-5.91v-61a5.92,5.92,0,0,1,5.91-5.91h54.34m0-4H829.91A9.91,9.91,0,0,0,820,446.1v61a9.91,9.91,0,0,0,9.91,9.91h54.34a9.91,9.91,0,0,0,9.91-9.91v-61a9.91,9.91,0,0,0-9.91-9.91Z" class="cls-2"/><rect width="86.92" height="60.84" x="885.47" y="315.48" class="cls-2"/><rect width="129.41" height="117.82" x="918.31" y="355.8" class="cls-3" rx="22.53"/><path d="M901.82,389.26a4.65,4.65,0,0,0-6.57,0l-1,1-1-1a4.65,4.65,0,0,0-6.57,6.57l1,1,6.57,6.57,6.56-6.57,1-1A4.65,4.65,0,0,0,901.82,389.26Z" class="cls-2"/><rect width="51.18" height="49.25" x="949.21" y="390.08" class="cls-4" rx="9.91"/><path d="M992.93,418.76l18.13,14.45a4.73,4.73,0,0,0,7.68-3.7V400.6a4.73,4.73,0,0,0-7.68-3.7l-18.13,14.46A4.73,4.73,0,0,0,992.93,418.76Z" class="cls-4"/><path d="M1119.58,302H846.44A32.43,32.43,0,0,0,814,334.39V524.48a32.43,32.43,0,0,0,32.43,32.43h273.14A32.43,32.43,0,0,0,1152,524.48V334.39A32.43,32.43,0,0,0,1119.58,302ZM1123,499H843V348.12a17.19,17.19,0,0,1,17.19-17.19h245.67a17.2,17.2,0,0,1,17.2,17.19Z" class="cls-4"/><path d="M956.93,515.38h52.15a19.32,19.32,0,0,1,19.32,19.32v58.91a19.32,19.32,0,0,1-19.32,19.31h-98.5a6.76,6.76,0,0,1-6.76-6.76h0a6.76,6.76,0,0,1,6.76-6.76h27V534.7A19.32,19.32,0,0,1,956.93,515.38Z" class="cls-4"/><circle cx="983.01" cy="527.94" r="12.07" class="cls-3"/><circle cx="983.01" cy="316.44" r="3.86" class="cls-5"/><line x1="1028.4" x2="937.4" y1="558.84" y2="558.84" class="cls-6"/><path d="M703.63,612.92h471.83a20,20,0,0,1,20,20v412.64a0,0,0,0,1,0,0H683.63a0,0,0,0,1,0,0V632.92A20,20,0,0,1,703.63,612.92Z" class="cls-2"/><path d="M1009.43,660.38V730.6H731.09V660.38h278.34m4-4H727.09V734.6h286.34V656.38Z" class="cls-7"/><circle cx="870.26" cy="695.49" r="12.07" class="cls-7"/><path d="M1009.43,782.06V998.11H731.09V782.06h278.34m4-4H727.09v224.05h286.34V778.06Z" class="cls-7"/><circle cx="828.73" cy="890.08" r="12.07" class="cls-7"/><circle cx="911.79" cy="890.08" r="12.07" class="cls-7"/><line x1="870.98" x2="870.98" y1="779.99" y2="1000.18" class="cls-8"/><rect width="95.12" height="345.73" x="1056.89" y="656.38" class="cls-7"/><line x1="1152.01" x2="1056.4" y1="829.24" y2="829.24" class="cls-9"/><path d="M328.69,612.92H664.36a20,20,0,0,1,20,20v412.64a0,0,0,0,1,0,0H308.69a0,0,0,0,1,0,0V632.92A20,20,0,0,1,328.69,612.92Z" class="cls-3"/><rect width="260.75" height="267.51" x="366.15" y="734.6" class="cls-5"/><polygon points="626.9 1002.11 366.15 1002.11 274.41 814.76 535.15 814.76 626.9 1002.11" class="cls-4"/><polygon points="456.93 612.92 366.15 612.92 375.81 592.64 447.27 592.64 456.93 612.92" class="cls-5"/><polygon points="626.9 612.92 536.12 612.92 545.78 592.64 617.24 592.64 626.9 612.92" class="cls-5"/><circle cx="384.02" cy="674.24" r="17.87" class="cls-1"/><line x1="364.22" x2="378.71" y1="674.24" y2="674.24" class="cls-10"/><circle cx="459.02" cy="674.24" r="17.87" class="cls-1"/><line x1="459.02" x2="459.02" y1="654.45" y2="668.93" class="cls-10"/><circle cx="534.03" cy="674.24" r="17.87" class="cls-1"/><line x1="534.03" x2="534.03" y1="654.45" y2="668.93" class="cls-10"/><circle cx="609.03" cy="674.24" r="17.87" class="cls-1"/><line x1="609.03" x2="609.03" y1="654.45" y2="668.93" class="cls-10"/><rect width="148.72" height="12.55" x="354.32" y="850.49" class="cls-5" rx="6.28"/><path d="M686.53,227.6c-17.81,11.45-5.79,35.73,10.62,36.69a65.35,65.35,0,0,1,1.94,46.36h25l.09-10.53c22.86,5.69,31.28-3.29,35.71-11.4,5-9.2,3.52-17.81,1.81-29,0,0,8.17-3.25,7.55-8.18-.5-4-9.21-5.47-9.21-5.47-.13-1.76-.22-3.58-.27-5.47a135.51,135.51,0,0,0-1.1-15c-19.2,10.23-43.11,15.54-43.11,15.54S700.05,218.9,686.53,227.6Z" class="cls-7"/><path d="M984.13,591.53c10.47,4,18.19-2.75,16.26-6.62-1.26-2.52-37.49-29.7-74.88-57.32L882.68,581c9.83,3.77,16.31,5.9,16.31,5.9s10.62,16.41,26.08,26.07c0,0,16.41,39.59,25.1,38.63,5.84-.65-1.93-23.18-3.86-32.84,0,0,19.32,32.84,31.87,32.84,2.9,0,5.57-2,5.79-6.76,0,0,6.37,1.75,8.7-2.9,1-1.93,1-4.83,1-6.76,0,0,5,1.39,7.73-1.93C1006,627.69,995.92,609.31,984.13,591.53Z" class="cls-7"/><path d="M581.27,421.71q-.76-.66-1.71-1.44C580.12,420.75,580.68,421.23,581.27,421.71Z" class="cls-11"/><path d="M843,467.1s-44.56-102.55-62.77-126.51C761.86,316.44,724,317.76,724,317.76l.06-7.11h-25s27,54.08-24.15,77.26c-19.31,62.77-79.19,46.35-93.67,33.8-5.8,10.62-34.77,57.94-19.32,93.67,13.52,28,61.81,22.21,61.81,22.21l9.66-20.28H756.06l-39.11,0,31.39-68.52L759,474.82s13.55,34.73,42.49,61.81c20.67,19.34,59.3,35.91,81.23,44.32l42.83-53.36C884.92,497.6,843,467.1,843,467.1Z" class="cls-11"/><line x1="627.23" x2="607.34" y1="473.48" y2="482.55" class="cls-12"/><line x1="634.38" x2="621.41" y1="521.18" y2="433.83" class="cls-12"/><polygon points="716.95 517.27 756.06 517.31 758.96 474.82 748.34 448.75 716.95 517.27" class="cls-13"/><path d="M737.83,184.46c-9.73-5.44-25-10.85-42.25-5.48-31.63,9.85-37.7,37.24-41.88,55.38-2.9,12.55-5.8,27-5.8,27s-54.08,3.86-48.28,58.91c-28.75,6.57-58.88,45.26-35.77,82.23a76.6,76.6,0,0,0,15.71,17.73q.95.78,1.71,1.44c14.48,12.55,74.36,29,93.67-33.8,51.19-23.18,24.15-77.26,24.15-77.26a65.35,65.35,0,0,0-1.94-46.36c-16.41-1-28.43-25.24-10.62-36.69,13.52-8.7,29,13.61,29,13.61s23.91-5.31,43.11-15.54c0,0,0-.08,0-.11s15.38-7.42,19.61-21.14C786,179.31,754.13,165.79,737.83,184.46Z" class="cls-13"/><path d="M757.47,476.31c-5.48-12.87-14.86-35.72-20.72-54.6" class="cls-12"/><path d="M944.92,619.85l-3.44-7.9" class="cls-12"/><path d="M984,644c-6.28-8.19-19.32-26.54-30-40.74" class="cls-12"/><path d="M995,634c-7.68-11.29-19.45-29-27.44-40.39" class="cls-12"/><path d="M986.41,591.09c-3.61-5.54-7.66-11.57-12-17.68" class="cls-12"/><path d="M740.47,183.73c2.22,1.57,4.7,3.4,6.9,5.24" class="cls-14"/><line x1="645.46" x2="643.07" y1="262.48" y2="273.95" class="cls-14"/><path d="M597.65,322.08a67.91,67.91,0,0,0,8.73,22.37" class="cls-14"/><path d="M723.62,302a64.69,64.69,0,0,1-11.06-5.08" class="cls-12"/><path d="M689,724l-.28.09Z" class="cls-15"/><path d="M690.72,723.25l-.07,0Z" class="cls-15"/><path d="M687.15,724.49l-.12,0Z" class="cls-15"/><path d="M679.77,724.61l-.16,0Z" class="cls-15"/><path d="M693.89,721.34h0Z" class="cls-15"/><path d="M681.54,724.86l-.38,0Z" class="cls-15"/><path d="M685.33,724.8l-.4.05Z" class="cls-15"/><path d="M692.36,722.37l-.09.06Z" class="cls-15"/><path d="M794.69,715.13a17.85,17.85,0,0,1-31.87,0,17.85,17.85,0,0,1-31.87,0,17.84,17.84,0,0,1-31.86,0,18.1,18.1,0,0,1-2.49,3.67h0c26.63,71.81,10.21,106.58,2.49,176.11a295.12,295.12,0,0,0-1.34,44.42h92.39c3.36-29.28,10.27-68.83,14.22-117.87A34.77,34.77,0,0,1,806.28,752c.33,0,.66,0,1,0,0-9.36-.29-18.55-.76-27.56A17.88,17.88,0,0,1,794.69,715.13Z" class="cls-1"/><path d="M667.22,715.13a17.85,17.85,0,0,1-31.87,0,17.85,17.85,0,0,1-31.87,0,17.84,17.84,0,0,1-27.32,5.7c-9,26.52-19.37,35.07-65.39,105.51a375.6,375.6,0,0,0-31.08,58.74l83,42.19c17.31-28.84,43.64-63.9,65.6-99a34.76,34.76,0,0,1,32-61.62c7.44-17.69,12.79-33.18,16.14-43h0A17.94,17.94,0,0,1,667.22,715.13Z" class="cls-1"/><path d="M685.33,724.8c.57-.07,1.14-.16,1.7-.28l.12,0q.81-.19,1.59-.45L689,724c.55-.2,1.1-.41,1.63-.66l.07,0c.53-.25,1-.52,1.55-.82l.09-.06a17.35,17.35,0,0,0,1.51-1h0a17.62,17.62,0,0,0,2.71-2.54,18.1,18.1,0,0,0,2.49-3.67,17.84,17.84,0,0,0,31.86,0,17.85,17.85,0,0,0,31.87,0,17.85,17.85,0,0,0,31.87,0,17.88,17.88,0,0,0,11.81,9.32,578.66,578.66,0,0,0-10.11-80.76A55.6,55.6,0,0,1,753.17,638c-27.71-15.83-34.65-93.29-36.25-120.72h-83.5c-48.29,43.46-47.32,172.87-56.5,201.24-.25.78-.51,1.53-.76,2.28a17.84,17.84,0,0,0,27.32-5.7,17.85,17.85,0,0,0,31.87,0,17.85,17.85,0,0,0,31.87,0,17.94,17.94,0,0,0,9.17,8.48,17.61,17.61,0,0,0,3.22,1l.16,0c.46.09.92.16,1.39.21l.38,0c.53,0,1.07.08,1.61.08s1.19,0,1.78-.09Z" class="cls-5"/><path d="M712.61,1033H791.8s2.84-18.72,12.87-30.94c-7.83-5.67-14.19-12.71-15.77-24.11-1.35-9.73-.58-22.65,1.24-38.63H697.75A427.87,427.87,0,0,0,712.61,1033Z" class="cls-11"/><path d="M452.83,976l-2.49-1.24a6.28,6.28,0,0,0-.77-.32l74.12,37.88s11-15.08,25.17-21.24a57.92,57.92,0,0,1-4.29-12.18c-2.72-12,5.18-30.12,18.11-51.66l-83-42.19C458.45,935.2,452.83,976,452.83,976Z" class="cls-11"/><path d="M712.61,1033h-2.42a6.28,6.28,0,1,0,0,12.55H843c0-26-22.26-31.86-38.31-43.49-10,12.22-12.87,30.94-12.87,30.94Z" class="cls-5"/><path d="M523.69,1012.35l-74.12-37.88a6.06,6.06,0,0,0-4.69,11.15l118,59.94c11.33-23.47-4.87-35.14-14.06-54.45C534.69,997.27,523.69,1012.35,523.69,1012.35Z" class="cls-5"/><path d="M771.52,786.75a34.76,34.76,0,0,0,32.84,34.71c1.58-19.71,2.69-41,2.89-63.68,0-1.93,0-3.85,0-5.77-.32,0-.65,0-1,0A34.77,34.77,0,0,0,771.52,786.75Z" class="cls-13"/><path d="M611.2,798.34a34.73,34.73,0,0,0,17.08,29.92c2.41-3.86,4.78-7.72,7.07-11.57a409.31,409.31,0,0,0,24.9-50.05,34.77,34.77,0,0,0-49,31.7Z" class="cls-13"/><path d="M753.17,638a55.6,55.6,0,0,0,43.22,5.66c-15-76.47-40.33-126.38-40.33-126.38H716.92C718.52,544.74,725.46,622.2,753.17,638Z" class="cls-13"/><path d="M753.19,269c-1.68.85-7.71,1.1-9.72-3.7" class="cls-12"/><circle cx="749.3" cy="244.98" r="2.9" class="cls-5"/><line x1="694.26" x2="703.91" y1="244.01" y2="250.77" class="cls-12"/><line x1="632.45" x2="756.06" y1="517.31" y2="517.31" class="cls-10"/><path d="M667.93,520.21s22.62,32.34,12,35.83C670.11,559.26,668.18,535.11,667.93,520.21Z" class="cls-16"/><path d="M667.23,520.21s-11.6,29-20.29,24.14C641.28,541.21,655.63,527,667.23,520.21Z" class="cls-16"/><rect width="168.04" height="12.55" x="328.25" y="512.48" class="cls-5" rx="6.28"/><path d="M412.27,516.35c-45.39,0-65.67-32.84-65.67-32.84v81.08a28.05,28.05,0,0,0,28,28h75.23a28.05,28.05,0,0,0,28.05-28V483.51S457.65,516.35,412.27,516.35Z" class="cls-2"/><path d="M412.27,516.35c45.38,0,65.66-32.84,65.66-32.84H346.6S366.88,516.35,412.27,516.35Z" class="cls-7"/><circle cx="413.71" cy="471.44" r="12.07" class="cls-5"/><circle cx="414.68" cy="390.32" r="17.87" class="cls-1"/><circle cx="414.99" cy="328.28" r="26.32" class="cls-1"/><path d="M1293,809s-9.19,20.68-33.31,20.68S1226.39,809,1226.39,809s-67.76,155.06-1.15,236.6h68.92C1360.77,964,1293,809,1293,809Z" class="cls-3"/><path d="M1259.7,829.64c24.12,0,33.31-20.68,33.31-20.68h-66.62S1235.58,829.64,1259.7,829.64Z" class="cls-5"/><path d="M1322,947c-37.49.67-81.82,14.2-116,62" class="cls-17"/><path d="M1200,909c25.16-6.14,72.82-12,119-1" class="cls-17"/><path d="M1318.77,986.81C1302,987,1271,1006,1274.42,1044.3" class="cls-17"/><line x1="1280.46" x2="1262.02" y1="657.38" y2="818.63" class="cls-6"/><line x1="1289.38" x2="1266.2" y1="722.15" y2="817.31" class="cls-6"/><ellipse cx="1203.85" cy="750.1" class="cls-5" rx="9.69" ry="40.44" transform="translate(40.85 1562.1) rotate(-66.85)"/><ellipse cx="1314.63" cy="765.7" class="cls-5" rx="41.93" ry="9.31" transform="translate(-185.63 513.16) rotate(-20.66)"/><ellipse cx="1252.31" cy="726.72" class="cls-5" rx="7.21" ry="23.55" transform="translate(-71.08 1314.11) rotate(-54.06)"/><line x1="1212.94" x2="1258.24" y1="683.74" y2="818.62" class="cls-6"/><path d="M1271.25,692.73a26.67,26.67,0,1,1,35.81,35.17A49.67,49.67,0,0,0,1271.25,692.73Z" class="cls-11"/><path d="M1285.2,707.81a49.89,49.89,0,0,1,21.59-27.7" class="cls-18"/><path d="M1289.65,711.36a49.47,49.47,0,0,1,30-18.48" class="cls-18"/><path d="M1307.06,727.9a26.67,26.67,0,0,1-35.81-35.17A49.67,49.67,0,0,1,1307.06,727.9Z" class="cls-11"/><path d="M1230.31,654.11A26.67,26.67,0,1,0,1198.62,693,49.7,49.7,0,0,1,1230.31,654.11Z" class="cls-11"/><path d="M1218.11,670.65a49.8,49.8,0,0,0-24.52-25.14" class="cls-18"/><path d="M1214.09,674.66a49.47,49.47,0,0,0-31.9-15" class="cls-18"/><path d="M1198.62,693a26.67,26.67,0,0,0,31.69-38.93A49.7,49.7,0,0,0,1198.62,693Z" class="cls-11"/><path d="M1306,642.27a26.67,26.67,0,1,0-47.61,15.91A49.69,49.69,0,0,1,1306,642.27Z" class="cls-11"/><path d="M1286.86,649.71a49.85,49.85,0,0,0-7.26-34.37" class="cls-18"/><path d="M1281.32,650.94a49.51,49.51,0,0,0-18.9-29.77" class="cls-18"/><path d="M1258.41,658.18A26.67,26.67,0,0,0,1306,642.27,49.69,49.69,0,0,0,1258.41,658.18Z" class="cls-11"/><path d="M1231.31,655.11A49.7,49.7,0,0,0,1199.62,694" class="cls-18"/><path d="M1306.47,642.27a49.69,49.69,0,0,0-48,14.62" class="cls-18"/><path d="M1309.71,725.85a49.7,49.7,0,0,0-37.39-33.49" class="cls-18"/></g></svg>