<svg xmlns="http://www.w3.org/2000/svg" viewBox="0 0 1600 1200"><defs><style>.cls-1{fill:#ca7358}.cls-2{fill:#ffbe21}.cls-10,.cls-11,.cls-12,.cls-14,.cls-15,.cls-16,.cls-18,.cls-3,.cls-9{fill:none}.cls-3{stroke:#ca7358}.cls-11,.cls-14,.cls-15,.cls-3{stroke-miterlimit:10}.cls-10,.cls-11,.cls-14,.cls-15,.cls-16,.cls-18,.cls-3,.cls-9{stroke-width:4px}.cls-4{fill:#30242a}.cls-5{fill:#ff7235}.cls-6{fill:#f5ebdd}.cls-7{fill:#ffb7d5}.cls-8{fill:#eaa58b}.cls-11,.cls-9{stroke:#f5ebdd}.cls-10,.cls-11,.cls-14,.cls-15,.cls-16,.cls-18,.cls-9{stroke-linecap:round}.cls-10,.cls-16,.cls-18,.cls-9{stroke-linejoin:round}.cls-10{stroke:#a15842}.cls-13{fill:#4756df}.cls-14{stroke:#3ec1f3}.cls-15,.cls-16{stroke:#30242a}.cls-17{fill:#a15842}.cls-18{stroke:#ffb7d5}.cls-19{fill:#3ec1f3}</style></defs><title>wfh_4</title><g id="Layer_5" data-name="Layer 5"><path d="M392.52,1021.78h0a10.51,10.51,0,0,1-9.86-14.15l25.78-69.85h41l-47.93,79A10.52,10.52,0,0,1,392.52,1021.78Z"/><path d="M757.48,1021.78h0a10.51,10.51,0,0,0,9.86-14.15l-25.78-69.85h-41l47.93,79A10.52,10.52,0,0,0,757.48,1021.78Z"/><rect width="446" height="233" x="352" y="730.23" class="cls-1"/><rect width="386" height="173" x="382" y="760.23" class="cls-2"/><line x1="768.5" x2="382" y1="847" y2="847" class="cls-3"/><circle cx="575" cy="805.5" r="11" class="cls-4"/><circle cx="575" cy="889.5" r="11" class="cls-4"/><circle cx="490.5" cy="617" r="14.5" class="cls-2"/><circle cx="565.5" cy="617" r="14.5" class="cls-2"/><path d="M528,602.5a12.89,12.89,0,0,0-5.62,1.29A14.53,14.53,0,1,0,516,620.41a13,13,0,1,0,12-17.91Z" class="cls-2"/><path d="M553.93,602.54a14.5,14.5,0,1,0-13.43,20,15.11,15.11,0,0,0,1.51-.08,13,13,0,1,0,11.92-19.88Z" class="cls-2"/><circle cx="523" cy="597.5" r="11" class="cls-2"/><circle cx="559.5" cy="575" r="7.5" class="cls-2"/><polygon points="468.33 616.5 488.33 730.5 502.5 730.5 486.67 616.5 468.33 616.5" class="cls-5"/><polygon points="569 616.5 553.16 730.5 567.33 730.5 587.33 616.5 569 616.5" class="cls-5"/><polygon points="544 616.5 536.52 730.5 553.16 730.5 569 616.5 544 616.5" class="cls-6"/><polygon points="486.67 616.5 502.5 730.5 519.14 730.5 511.67 616.5 486.67 616.5" class="cls-6"/><polygon points="511.67 616.5 519.14 730.5 536.52 730.5 544 616.5 511.67 616.5" class="cls-5"/><path d="M705.89,652.84H893a0,0,0,0,1,0,0v368.95a0,0,0,0,1,0,0H625a0,0,0,0,1,0,0V733.72A80.89,80.89,0,0,1,705.89,652.84Z" class="cls-7"/><path d="M912.89,452.78h264.23A80.89,80.89,0,0,1,1258,533.67v488.11a0,0,0,0,1,0,0H832a0,0,0,0,1,0,0V533.67A80.89,80.89,0,0,1,912.89,452.78Z" class="cls-7"/><path d="M817.89,751.36h359.23A80.89,80.89,0,0,1,1258,832.24v189.54a0,0,0,0,1,0,0H737a0,0,0,0,1,0,0V832.24A80.89,80.89,0,0,1,817.89,751.36Z" class="cls-7"/><line x1="988.5" x2="770.36" y1="841.15" y2="841.15" class="cls-3"/><line x1="737" x2="737" y1="832.24" y2="1021.78" class="cls-3"/><line x1="1258" x2="1088.86" y1="651.65" y2="651.65" class="cls-3"/><rect width="446" height="302" x="354" y="219.33" class="cls-6"/><rect width="386" height="242" x="384" y="249.33" class="cls-4"/><g id="layer1"><g id="g3235"><path id="path3015" d="M664.34,399.57c3.44.33,6.87.69,10.3,1.06l7.58-18.69,7.19,20.42q5.55.69,11.07,1.45L687.86,368l12.62-31.17H689.79l-.11.15-6.82,16.84-6-17H666.32l10.9,30.92Z" class="cls-5"/><path id="path3019" d="M656.35,398.84v-62H645.8V398q5.28.4,10.55.87" class="cls-5"/><path id="path3023" d="M577.09,395.37q4.27,0,8.54.05V372.63H598.3v-9.7H585.63V346.54h14.59v-9.71H575v58.55h2.06" class="cls-5"/><path id="path3035" d="M544.33,396c3.52-.12,7-.23,10.56-.31V346.54h9.86v-9.71H534.47v9.71h9.86V396Z" class="cls-5"/><path id="path3039" d="M463.64,402.5V365.56L476.13,401q5.76-.64,11.55-1.22v-63H477.56V375.1l-13.49-38.27H453.52v67h.06c3.34-.46,6.7-.9,10.06-1.33" class="cls-5"/><path id="path3051" d="M524.3,346.54v-9.71H499.1v61.9h0q12.54-1.08,25.18-1.82h0V387.2q-7.31.42-14.58,1V372.64h12.67v-9.71H509.7V346.54Z" class="cls-5"/><path id="path3055" d="M621.14,386.74V336.83h-10.6V396h0q12.65.47,25.19,1.28h0v-9.71q-7.28-.48-14.59-.82" class="cls-5"/></g></g><path d="M933,604.5s-94,21-142,48c-49.36,27.76-54,66.72-84.81,160.29-13.52,41-20.31,70.44-27.58,90.6L762.5,943c4-7.42,7.56-14.72,10.5-21.5,0,0,38.46-1.71,42.13-53.18,2.74-38.45,4.06-66.91,17.48-95.63l229.3-168.63Z" class="cls-4"/><path d="M644.2,939.38c-.42.07-.84.15-1.27.21-29.71,4.51-42.11,10.29-47,23.76l124,57.8a6.73,6.73,0,0,0,8.29-2.14h0a6.72,6.72,0,0,0-1.54-9.44L645,972.5A84.29,84.29,0,0,0,644.2,939.38Z" class="cls-4"/><path d="M762.5,943l-83.89-39.61c-4.29,11.9-8.75,20.58-14.86,26.53-5.08,5-11.32,8-19.55,9.46a84.29,84.29,0,0,1,.8,33.12l81.72,37.07a6.67,6.67,0,0,0-1-.59l-3-1.43c4.86-7,12.49-18.42,20.65-31.62C749.85,965.58,756.56,954.16,762.5,943Z" class="cls-8"/><line x1="772.31" x2="685" y1="922.92" y2="882" class="cls-9"/><path d="M1109.5,644.91l-3.5-38.54h-69s-116,27.76-165.31,51.41c-49.08,23.52-43.19,78.15-33.94,173.78,4.72,48.75,10.61,82.23,10.3,105.94h91q.75-11.54,1-24.35s35.5-16.81,17-71.31c-12.39-36.5-23.09-60.67-23.09-92.37H1014A95.88,95.88,0,0,0,1109.5,644.91Z" class="cls-4"/><path d="M826.44,982c-23.12,15.72-31.28,26-30,39.75l136.91-.18a5.69,5.69,0,0,0,0-11.37H842S837,993.32,826.44,982Z" class="cls-4"/><path d="M848.05,937.5c-.17,13.5-2.35,23.84-7.91,32a40.17,40.17,0,0,1-11.24,10.87L826.44,982c10.57,11.29,15.56,28.2,15.56,28.2h86.48A360.75,360.75,0,0,0,936,969.5c1.24-9.56,2.32-20.27,3.08-32Z" class="cls-8"/><path d="M935,633.5c-22.1,7.06-48.18,15.7-65,24-38.41,18.93-43.31,55.84-39.14,117.3" class="cls-10"/><line x1="933" x2="908.19" y1="751.84" y2="751.84" class="cls-10"/><line x1="940" x2="847" y1="914.84" y2="914.84" class="cls-11"/><path d="M1070.89,652.84H1258a0,0,0,0,1,0,0v368.95a0,0,0,0,1,0,0H990a0,0,0,0,1,0,0V733.72A80.89,80.89,0,0,1,1070.89,652.84Z" class="cls-7"/><line x1="988" x2="988" y1="749.51" y2="1020.59" class="cls-3"/><path d="M747,489.5a8.54,8.54,0,0,0-1.41-.8l1.39.95Z" class="cls-12"/><path d="M284.5,876.5c-23,0-41.76-13.79-42.47-31h0v176h85v-176h0C326.26,862.71,307.53,876.5,284.5,876.5Z" class="cls-13"/><path d="M243.61,981.67c27.9-3,61.13-22.5,54.89-68.67-5-37-41.5-26.5-20.5,8.5,12.34,20.57,32.63,34.58,47.26,42.63" class="cls-14"/><path d="M243.36,940.07c16.63,11.38,46.09,37.52,57.32,79.65" class="cls-14"/><path d="M243.26,996.37c10.91,3.23,24.9,10.19,35.43,23.47" class="cls-14"/><path d="M273.72,854.66a72.35,72.35,0,0,1-30.35,28.67" class="cls-14"/><path d="M284.5,876.5c23,0,41.76-13.79,42.47-31H242C242.74,862.71,261.47,876.5,284.5,876.5Z" class="cls-4"/><line x1="260.5" x2="283.5" y1="691" y2="864" class="cls-15"/><line x1="253.14" x2="280.04" y1="760.72" y2="862.55" class="cls-15"/><ellipse cx="332.5" cy="791.76" class="cls-4" rx="37.72" ry="10.42" transform="translate(-284.51 194.48) rotate(-23.15)"/><ellipse cx="226.98" cy="807.31" class="cls-4" rx="10.01" ry="45.09" transform="translate(-608.49 734.8) rotate(-69.34)"/><ellipse cx="296.32" cy="761.84" class="cls-4" rx="30.57" ry="7.75" transform="translate(-398.74 331.62) rotate(-36.99)"/><line x1="313.5" x2="287.5" y1="712" y2="872" class="cls-15"/><path d="M270.65,728.58a29,29,0,1,0-34.47,42.33A54,54,0,0,1,270.65,728.58Z" class="cls-7"/><path d="M257.39,746.56a54.26,54.26,0,0,0-26.67-27.34" class="cls-11"/><path d="M253,750.93a53.77,53.77,0,0,0-34.69-16.35" class="cls-11"/><path d="M236.18,770.91a29,29,0,0,0,34.47-42.33A54,54,0,0,0,236.18,770.91Z" class="cls-5"/><path d="M227.82,672.2a29,29,0,1,1,51.78,17.31A54,54,0,0,0,227.82,672.2Z" class="cls-7"/><path d="M248.65,680.29a54.2,54.2,0,0,1,7.9-37.37" class="cls-11"/><path d="M254.68,681.63a53.82,53.82,0,0,1,20.56-32.37" class="cls-11"/><path d="M279.6,689.51a29,29,0,0,1-51.78-17.31A54,54,0,0,1,279.6,689.51Z" class="cls-5"/><path d="M297.44,674.23a29,29,0,1,1,29.18,46.13A54,54,0,0,0,297.44,674.23Z" class="cls-7"/><path d="M308.47,693.66a54.23,54.23,0,0,1,29.73-24" class="cls-11"/><path d="M312.29,698.52a53.78,53.78,0,0,1,36.39-12.1" class="cls-11"/><path d="M326.62,720.36a29,29,0,0,1-29.18-46.13A54,54,0,0,1,326.62,720.36Z" class="cls-5"/><path d="M1432.87,1018.54a4.12,4.12,0,0,1-.34.7A3.77,3.77,0,0,0,1432.87,1018.54Z" class="cls-1"/><path d="M1385.21,996.51l-26.21,25h67c3.53,0,5.59-.82,6.51-2.23C1427.35,1020.24,1397.43,1003.51,1385.21,996.51Z" class="cls-1"/><path d="M1432.53,1019.24l0,0h0Z" class="cls-7"/><path d="M1432.87,1018.54c3.34-9.41-30.87-38-30.87-38l-16.79,16c12.22,7,42.14,23.73,47.3,22.76l0,0A4.12,4.12,0,0,0,1432.87,1018.54Z" class="cls-7"/><path d="M1428,928.5c-1,5-47,13-47,13l-2.88-19.08-1.12.08,7.46,57S1431,938.5,1428,928.5Z" class="cls-1"/><path d="M1428,928.5c-2.6-8.66-42.64-6.53-49.88-6.08L1381,941.5S1427,933.5,1428,928.5Z" class="cls-7"/><line x1="1372.69" x2="1374.42" y1="927.94" y2="891.93" class="cls-16"/><line x1="1365.66" x2="1356.31" y1="924" y2="878.07" class="cls-16"/><path d="M1213,1021.78l-46.78-62.33,21.78-23c-2-7-11-38-23-48s-23-10-29-8l-.18.06a8.67,8.67,0,0,0-2,15.21L1145,905.5s-25,19-25,40c0,14.64,7.9,22.14,15.73,26l-20.73,29s-21,3-62-9c-12.49-3.66-26-10-38.62-15.82,0,13.62-6.26,24.53-15.53,32.56,21.26,8.38,48.32,13.54,69.32,13.54Z" class="cls-17"/><path d="M1087,1000c3.48,6.71,7.75,13.59,15.28,19.68" class="cls-15"/><line x1="1185" x2="1177" y1="933" y2="939" class="cls-15"/><path d="M1014.38,975.68c-21-9.63-39.5-17.54-46.38-8.18-11.75,16,5.37,30.68,30.85,40.74C1008.12,1000.21,1014.43,989.3,1014.38,975.68Z" class="cls-6"/><path d="M1396,955.47c0-4.24,5.34-9.8,9.54-11.51-7.83-21.46-39.2-40.12-71.54-23.46,0,0-4-20-15-28-10.29-7.49-21-8.23-29-5.23l-.24.09a9.17,9.17,0,0,0-2.76,15.3l14,12.84-7,13.77a70.64,70.64,0,0,0-24.62-14.51c-.79,37.41-49.91,53.89-74.38,45.74-8.6-12-15.71-18.16-17.53-19.63l-.47.4s-21-13.77-40,.23c0,0-10-23-22-32.23-10.15-7.81-30-8-35-3l-.15.15a11,11,0,0,0,2.09,17.06l14.06,8.79s-36,54,12,89.51h255c38.28,0,47.26-30.71,46.4-55.34C1404.87,965.26,1396,962.09,1396,955.47Z" class="cls-1"/><path d="M1195,960.5c24.47,8.15,73.59-8.33,74.38-45.74a69.62,69.62,0,0,0-31.38-3.49c-29,3.41-56.7,26.32-60.53,29.6C1179.29,942.34,1186.4,948.45,1195,960.5Z" class="cls-6"/><path d="M1396,955.47c0,6.62,8.87,9.79,13.4,11a81.37,81.37,0,0,0-3.4-21.17c-.14-.44-.31-.87-.46-1.31C1401.34,945.67,1396,951.23,1396,955.47Z" class="cls-4"/><line x1="1387.97" x2="1402.19" y1="957.86" y2="955.76" class="cls-16"/><path d="M1336.54,921c4.07,16.4,9.08,39.32,11,54" class="cls-16"/><line x1="1292.5" x2="1288.78" y1="897" y2="902.57" class="cls-16"/><line x1="1299.5" x2="1295.58" y1="903" y2="908.87" class="cls-16"/><line x1="1084.5" x2="1080.74" y1="915" y2="920.64" class="cls-16"/><line x1="1092.5" x2="1088.44" y1="920" y2="926.08" class="cls-16"/><path d="M1292.48,928.65c-18.19,33.24-33.21,68.49-4.77,91.81" class="cls-16"/><path d="M1205,984c-4-18-16.31-40.46-32-47-12-5-24-4-35,2,0,0-4.75-10.19-8.57-15.77" class="cls-15"/><path d="M1380.37,946.23s3,9.36,7.6,11.63c0,0-3.26,4.67-3.8,13.71" class="cls-16"/><path d="M1255,911.5s-8,14-21,13-12-20,3-31a29.25,29.25,0,0,1,21-3.38c12.78,2.79,20.26,28.53,20.26,28.53S1265,912.5,1255,911.5Z" class="cls-1"/><polyline points="1368 831.96 1384.46 821.9 1377.14 847.5 1396.5 836" class="cls-18"/><polyline points="1403.96 790.43 1421.29 789.05 1404.97 806.66 1424.5 805.3" class="cls-18"/><line x1="1232.45" x2="1232.43" y1="914.92" y2="922.5" class="cls-16"/><line x1="1241.6" x2="1241.58" y1="914.05" y2="921.56" class="cls-16"/><line x1="1137.12" x2="1133.5" y1="890.29" y2="894.16" class="cls-16"/><line x1="1144.2" x2="1139.89" y1="895.53" y2="900.14" class="cls-16"/><path d="M779.3,511.94,747,489.65l-1.39-1c-8.55-4-31.76-2.85-30.59-12.19.25-2,2.6-3.51,6.31-4.55L674.39,439.6a8,8,0,0,0-11.07,2l-5,7.19a13.49,13.49,0,0,1-15.22,22.07l-5.72,8.29a8,8,0,0,0,2,11.08l104.9,72.34a8,8,0,0,0,11.08-2l9.14-13.25L781.34,523A8,8,0,0,0,779.3,511.94ZM718.5,530.5A21.5,21.5,0,1,1,740,509,21.51,21.51,0,0,1,718.5,530.5ZM766,526.87l-12.5,18a3.61,3.61,0,0,1-5,.9h0a3.6,3.6,0,0,1-.91-5l12.51-18a3.6,3.6,0,1,1,5.92,4.11Z" class="cls-13"/><circle cx="718.5" cy="509" r="21.5" class="cls-19"/><path d="M663,459a13.45,13.45,0,0,0-4.64-10.17L643.14,470.9a13.36,13.36,0,0,0,6.36,1.6A13.5,13.5,0,0,0,663,459Z" class="cls-19"/><path d="M765.07,521.85a3.61,3.61,0,0,0-5,.91l-12.51,18a3.6,3.6,0,0,0,.91,5h0a3.61,3.61,0,0,0,5-.9l12.5-18A3.6,3.6,0,0,0,765.07,521.85Z" class="cls-4"/><path d="M730,552.5s-9,10-18,1c0,0-11,3-15-6,0,0-9,4-13-5-.26-.58-5.2,2.16-10-4-7-9-11-34-5-35,10.3-1.72,14.66,17.6,14.84,17,2.25-7.61,6.15-14,10.16-14,7,0,8,7,8,7s4.23-5.65,10-4c7,2,5,11,5,11s6.42-4.26,10,2c4,7-4,16-3,26Z" class="cls-8"/><path d="M716.42,518.94c-4.27,7.46-11,21.92-6.76,33.1" class="cls-10"/><path d="M701.17,512c-2.71,6.4-8.39,21.92-5.94,34.43" class="cls-10"/><path d="M682.73,518c-1.32,6.4-2.29,14.93-.59,22.72" class="cls-10"/><path d="M1060,369.5c12-4,26-21,16-35-13.25-18.56-36,6-36,6a59.77,59.77,0,0,1-21-28c-3,1-12,2-19,0h0s-3,8-5,22c-.27,1.92-.59,3.77-.94,5.55,0,0-9.06-.55-10.06,3.45-1.24,4.94,6.69,10.25,6.69,10.25-3.1,11.17-5.68,19.76-1.69,29.75,3.52,8.81,11,19,35,16l-1.37,10.5h71.57c.4-4.19.87-9.18,1.37-14.57C1087.45,392.7,1067.13,384.56,1060,369.5Z" class="cls-8"/><path d="M1068,279.5c-29-13-56,7-56,7s-24.66-7.1-26,9c-1,12,14,17,14,17h0c7,2,16,1,19,0a59.77,59.77,0,0,0,21,28s22.75-24.56,36-6c10,14-4,31-16,35,7.13,15.06,27.45,23.2,35.57,25.93,1.76-19.07,3.87-43.22,4.43-54.93C1100.91,321.41,1099,293.41,1068,279.5Z" class="cls-13"/><path d="M869,499.5s-70-20-97-26c-16.42-3.65-39.64-4.64-50.69-1.55-3.71,1-6.06,2.54-6.31,4.55-1.17,9.34,22,8.18,30.59,12.19l33.71,23.25a8,8,0,0,1,2,11.08l-16.76,24.3A254.74,254.74,0,0,0,847,573.5c26.53,3.67,58.73-11.09,81.78-24.67L890.11,485C877.68,493.48,869,499.5,869,499.5Z" class="cls-8"/><path d="M1094.2,410h-71.57L1021,422.5s-35.15-.74-60,15c-18.78,11.89-50.08,33.18-70.89,47.45l38.67,63.88A293.47,293.47,0,0,0,959,528.5l-26,76h173l-13-182S1093.49,417.55,1094.2,410Z" class="cls-5"/><line x1="1019" x2="1017.5" y1="425" y2="437" class="cls-10"/><line x1="971.5" x2="958" y1="487" y2="527" class="cls-10"/><path d="M998.85,363c1.65,1,7.85,1.83,10.36-2.94" class="cls-10"/><circle cx="1011" cy="336.5" r="3"/><line x1="1063" x2="1052" y1="346.5" y2="353.5" class="cls-10"/><line x1="1035.86" x2="1034.25" y1="411.98" y2="424.95" class="cls-10"/><line x1="1050.85" x2="1049.25" y1="411.98" y2="424.95" class="cls-10"/><line x1="1065.84" x2="1064.24" y1="411.98" y2="424.95" class="cls-10"/><path d="M1024.73,401.26c4.77-.84,11.41-2.59,16.77-6.26" class="cls-10"/><path d="M1099.22,551.5l1.78,37s-84.29,23.62-113.08,45.22c-13,9.75-29,28.09-34.92,35.78s-30.28,43-20,44,26.13-21.17,26.13-21.17S949,719.5,952,728.5s12.3,2.79,12.3,2.79c8.7,10.21,16.42-1.06,16.42-1.06,15.28,11.27,30.82-44.1,30.82-44.1a70.79,70.79,0,0,0,22.14-16.94s85.62,3.39,119.32-24.69c16.87-14.06,25.2-51.52,25.53-93Z" class="cls-8"/><path d="M1165,456.5c-7.41-22.59-32-34-47-34h-25l6.22,129h79.31C1178.78,519.22,1174.19,484.51,1165,456.5Z" class="cls-5"/><line x1="1101.43" x2="1098.5" y1="550.6" y2="489" class="cls-10"/><line x1="1102.59" x2="1117.5" y1="585.95" y2="582" class="cls-10"/><path d="M956.78,694.06c3.14-8.4,7.93-20.85,11.72-29.06" class="cls-10"/><path d="M982.5,672c-10.72,23.09-17,49-19,58.36" class="cls-10"/><path d="M997.5,680c-6.86,15.79-13.19,36.84-16.63,49.1" class="cls-10"/></g></svg>