<svg xmlns="http://www.w3.org/2000/svg" xmlns:xlink="http://www.w3.org/1999/xlink" viewBox="0 0 1600 1200"><defs><style>.cls-1{fill:#30242a}.cls-2{fill:#fff}.cls-3{fill:#f5ebdd}.cls-10,.cls-11,.cls-15,.cls-16,.cls-18,.cls-19,.cls-23,.cls-24,.cls-4,.cls-7{fill:none;stroke-width:4px}.cls-4{stroke:#fff}.cls-10,.cls-11,.cls-16,.cls-23,.cls-24,.cls-4{stroke-miterlimit:10}.cls-5{fill:#3ec1f3}.cls-6{fill:#4756df}.cls-15,.cls-24,.cls-7{stroke:#000}.cls-15,.cls-18,.cls-19,.cls-7{stroke-linejoin:round}.cls-8{fill:#eaa58b}.cls-9{fill:#ff7235}.cls-10,.cls-19{stroke:#bb7259}.cls-10,.cls-11,.cls-15,.cls-16,.cls-18,.cls-19,.cls-23,.cls-24{stroke-linecap:round}.cls-11,.cls-18{stroke:#724342}.cls-12{fill:#ca7358}.cls-13{fill:#ffbe21}.cls-14{clip-path:url(#clip-path)}.cls-16{stroke:#f5ebdc}.cls-17{fill:#a15842}.cls-20{fill:#724342}.cls-21{fill:#ffb7d5}.cls-22{fill:#f4e6d8}.cls-23{stroke:#30242a}</style><clipPath id="clip-path"><ellipse cx="207.65" cy="805.93" class="cls-1" rx="56" ry="48.64" transform="translate(-375.14 211.8) rotate(-30)"/></clipPath></defs><title>wfh_6</title><g id="Layer_4" data-name="Layer 4"><path d="M1350.33,185A44.67,44.67,0,0,1,1395,229.67V653.33A44.67,44.67,0,0,1,1350.33,698H800.67A44.67,44.67,0,0,1,756,653.33V229.67A44.67,44.67,0,0,1,800.67,185h549.66m0-4H800.67A48.72,48.72,0,0,0,752,229.67V653.33A48.72,48.72,0,0,0,800.67,702h549.66A48.72,48.72,0,0,0,1399,653.33V229.67A48.72,48.72,0,0,0,1350.33,181Z" class="cls-2"/><rect width="639" height="513" x="756" y="185" class="cls-3" rx="44.67"/><line x1="756" x2="1397" y1="281" y2="281" class="cls-4"/><circle cx="803" cy="232" r="17" class="cls-2"/><circle cx="854.52" cy="232" r="17" class="cls-2"/><circle cx="906.03" cy="232" r="17" class="cls-2"/><path d="M787.33,487A44.67,44.67,0,0,1,832,531.67V955.33A44.67,44.67,0,0,1,787.33,1000H237.67A44.67,44.67,0,0,1,193,955.33V531.67A44.67,44.67,0,0,1,237.67,487H787.33m0-4H237.67A48.72,48.72,0,0,0,189,531.67V955.33A48.72,48.72,0,0,0,237.67,1004H787.33A48.72,48.72,0,0,0,836,955.33V531.67A48.72,48.72,0,0,0,787.33,483Z" class="cls-2"/><rect width="639" height="513" x="193" y="487" class="cls-3" rx="44.67"/><line x1="193" x2="834" y1="583" y2="583" class="cls-4"/><circle cx="240" cy="534" r="17" class="cls-2"/><circle cx="291.52" cy="534" r="17" class="cls-2"/><circle cx="343.03" cy="534" r="17" class="cls-2"/><path d="M664.43,517.6c0-.41,0-1,0-1.61l.48-.36-.47-.1c0-8.6-.73-34.14-9.08-53.6-7.42-17.29-17.66-25.28-24.77-22.23s-8.38,16-1,33.26c4.12,9.62,10.61,18.91,16.86,26.57-12.59-11.93-29.78-26.72-45.3-34.86-21-11-37.33-10.67-41.86-2.05s4.5,22.27,25.48,33.28c13.65,7.17,32.29,12.48,48.13,16.09a107.21,107.21,0,0,0-25.31,2.14c-18.36,4.12-28.08,12.73-26.39,20.27s14.16,11.17,32.52,7.05c20.45-4.59,41.35-18.7,48.54-23.89l1.27.19c.52.49.83.76.83.76s0-.23,0-.64l.3,0Z" class="cls-5"/><polygon points="866.33 608.53 866.02 608.23 866.02 608.85 866.33 608.53" class="cls-5"/><polygon points="842.36 632.75 842.11 584.56 817.51 560.21 818 657.35 842.36 632.75" class="cls-5"/><polygon points="672.42 500.14 673.24 662.23 697.84 686.58 696.77 475.54 672.42 500.14" class="cls-5"/><polygon points="591.79 581.6 649.33 638.56 648.75 524.05 591.79 581.6" class="cls-5"/><polygon points="794.34 681.25 793.61 536.55 769 512.19 769.98 705.86 794.34 681.25" class="cls-5"/><polygon points="745.1 488.53 720.5 464.18 721.74 710.25 743.91 732.19 746.32 729.76 745.1 488.53" class="cls-5"/><polygon points="648.75 524.05 649.33 638.56 673.24 662.23 672.42 500.14 648.75 524.05" class="cls-6"/><polygon points="714.2 457.94 696.77 475.54 697.84 686.58 721.74 710.25 720.5 464.18 714.2 457.94" class="cls-6"/><polygon points="769.98 705.86 769 512.19 745.1 488.53 746.32 729.76 769.98 705.86" class="cls-6"/><polygon points="818 657.35 817.51 560.21 793.61 536.55 794.34 681.25 818 657.35" class="cls-6"/><polygon points="866.02 608.85 866.02 608.23 842.11 584.56 842.36 632.75 866.02 608.85" class="cls-6"/><line x1="752.15" x2="629.96" y1="496.02" y2="619.45" class="cls-7"/><rect width="192.01" height="51.63" x="575.33" y="512.12" class="cls-6" transform="translate(-183.26 636.59) rotate(-45.29)"/><path d="M684,672s13-43,5-50c-9.66-8.45-26,19-39.17,52-13.85,34.67-54,133-56,140,0,0-68.41-37.4-99-51-27-12-59.89-16.36-59.89-16.36l-4.18-25.11s19.53,7,36.27-2.79,20.93-27.91,15.35-55.81c-3.31-16.53-3.19-37-6-55.25-11.14,1.88-27.46-1.95-27.46-1.95-22.33,25.11-46,30.69-46,30.69-15.35-16.74-43.26-16.74-47.44,7-4.63,26.25,27.9,33.48,27.9,33.48S390,715,376,753c-19.45,52.8-97.86,66.81-130,44-58,41-6.69,165.57,42,224,40,48,182,23,182,23s16,12,35,16c34,67,48,48,48,48s12,13,21-1c18,1,17-10,1-48,18,22,35.62,22.07,36,16,1-16-52-72-85-86-24.79-10.52-37-14-37-14l-5-81s106.12,58.28,156,31c64-35,90-207,90-207Z" class="cls-8"/><path d="M376,753c14-38,7.32-76.12,7.32-76.12s-32.53-7.23-27.9-33.48c4.18-23.72,32.09-23.72,47.44-7,0,0,23.71-5.58,46-30.69,0,0,16.32,3.83,27.46,1.95-1.95-12.57-5.29-24.12-12.12-32.65-16.74-20.92-62.78-34.88-99.05-8.37s-33.49,69.76-32.09,86.5c0,0-62.73-15.36-96.1,31.84-41,58,9,112,9,112C278.14,819.81,356.55,805.8,376,753Z" class="cls-1"/><path d="M485.75,922.37,484,894l.09,0-8.37-138.16a272.27,272.27,0,0,0-28.1-7.07L443,844H365l-29.63-48.15a113.14,113.14,0,0,1-33.57,10.47l44.56,110.44L363,958s38,2,72,7,54,10,54,10Z" class="cls-9"/><path d="M685.49,674.48c-.82,2.61-1.66,5.15-2.49,7.52,0,0,25.5,29.5,9.5,67.5" class="cls-10"/><line x1="591.49" x2="581" y1="813.11" y2="840" class="cls-10"/><path d="M579,1063.66c-4.23-9.59-9.46-20.81-14.08-29" class="cls-10"/><path d="M546.15,1044.63c12,21.13,21.41,44.79,27.31,61.41" class="cls-10"/><path d="M527.49,1056.47c9,16.52,17.76,35.77,24.26,50.9" class="cls-10"/><line x1="487.5" x2="354.5" y1="934.5" y2="933.5" class="cls-11"/><path d="M314.18,997.65a39.58,39.58,0,0,0-38.4,7.36c4.05,5.73,8.14,11.1,12.22,16,11.06,13.27,29.91,21,51.4,25.13C344.85,1025.76,334,1004.47,314.18,997.65Z" class="cls-12"/><path d="M640,925c8.69-4.75,16.67-12,24-21.06a39,39,0,0,0-19.81-15.29c-20.75-7.13-43.48,4.27-50.77,25.46a41.3,41.3,0,0,0-2.07,17.21C609.5,933.46,626.74,932.25,640,925Z" class="cls-12"/><path d="M301.79,806.32c-21.54,3.21-42.58.06-55.79-9.32-42.15,29.8-26.57,103.72,3.78,164.33l96.58-44.57Z" class="cls-13"/><path d="M376,753c-7.22,19.59-22.56,33.84-40.63,42.85L365,844h78l4.62-95.18c-7.68-1.51-12.68-2.18-12.68-2.18L433,735H381.22A136.11,136.11,0,0,1,376,753Z" class="cls-13"/><path d="M494.82,763a181.22,181.22,0,0,0-19.1-7.11l8.37,138.16A414.74,414.74,0,0,0,525,912.94L566,799C543.52,787,512.71,771,494.82,763Z" class="cls-13"/><ellipse cx="207.65" cy="805.93" class="cls-1" rx="56" ry="48.64" transform="translate(-375.14 211.8) rotate(-30)"/><g class="cls-14"><path d="M221.5,751.5s7,42,41,55" class="cls-15"/></g><line x1="977.5" x2="981.5" y1="504.5" y2="534.5" class="cls-16"/><path d="M1310,469s45-53-5-98c-30.56-27.5-67.27-19.84-67.27-19.84,1.39-16.74,4.18-60-32.09-86.5s-82.32-12.55-99.06,8.37-12.55,60-18.13,87.9-1.4,46,15.34,55.81,36.28,2.79,36.28,2.79l-4.19,25.11S1103,449,1076,461c-30.6,13.6-99,51-99,51-2-7-13-121-18-158-3.81-28.19-17-63-27-56-9.7,6.79-6,29-6,29l-51,53s-25.21,181.73,35,231c44,36,159-22,159-22l-15,109h137.22s-25.73,6.84-79.22,31c-62,28-98,106-94,112s16,1,32-19c-14,52,0,48,9,47,9.15,13.16,21-3,21-3s16,15,41-55a121.41,121.41,0,0,0,31-21s159-10,190-66,10-202-32-255Z" class="cls-17"/><circle cx="1102.15" cy="344.15" r="4.15" class="cls-1"/><line x1="362.5" x2="339.5" y1="956.5" y2="955.5" class="cls-10"/><path d="M430.41,723.87a117.13,117.13,0,0,1-17.53-7.67" class="cls-10"/><path d="M331.54,652.87c.76,7.63,1.79,17.13,2.79,24.63" class="cls-15"/><path d="M425.46,933.42s-23.17-32.79-12.41-37.1C421.74,892.84,424.22,918.35,425.46,933.42Z" class="cls-18"/><path d="M426.19,934s11.39-26.3,18.54-22.09C450.5,915.31,435.28,927.13,426.19,934Z" class="cls-18"/><line x1="437.22" x2="439" y1="747.34" y2="758" class="cls-10"/><line x1="387.44" x2="374.99" y1="654.45" y2="647.53" class="cls-10"/><path d="M446.87,677.85c.71,13.12,14.19,14.21,17.49,5Z" class="cls-19"/><circle cx="438.82" cy="650.65" r="4.15" class="cls-20"/><circle cx="469.68" cy="643.15" r="4.15" class="cls-20"/><path d="M459.06,655.72c1,2.65,1.94,5.56,1.64,6.65a6.06,6.06,0,0,1-2.43,3.19" class="cls-10"/><path d="M422.37,544.72l5.29,5.81,3.5,3.86,0,0h0c2.23,7.8-14,20.23-36.56,27.93s-43,7.77-46,.23h0v0l.42-5.2.64-7.83c8.47,2,23.17.39,38.9-5S416.91,551.52,422.37,544.72Z" class="cls-21"/><path d="M382.46,546.74c11.8-4,21.86-9.34,28.46-14.62l11.45,12.6c-5.46,6.8-18.1,14.46-33.84,19.83s-30.43,7-38.9,5l1.37-17C359.45,552.7,370.66,550.76,382.46,546.74Z" class="cls-9"/><path d="M398.66,518.64l12.26,13.48c-6.6,5.28-16.66,10.6-28.46,14.62s-23,6-31.46,5.82l1.46-18.17a118,118,0,0,0,46.2-15.75Z" class="cls-21"/><path d="M370.31,511.12a119.12,119.12,0,0,0,15.57-6.53l12.78,14.05a118,118,0,0,1-46.2,15.75L354,515.47A120.51,120.51,0,0,0,370.31,511.12Z" class="cls-9"/><path d="M354,515.47l3.41-42.2,28.48,31.32a119.12,119.12,0,0,1-15.57,6.53A120.51,120.51,0,0,1,354,515.47Z" class="cls-21"/><circle cx="355" cy="466.23" r="15.4" class="cls-9"/><circle cx="379.5" cy="681.5" r="12.5" class="cls-22"/><path d="M1163.13,746.85l2.57,5.75,15.4,34.51c47.4-5.86,138.27-22.22,160.9-63.11,31-56,10-202-32-255h0c-35,38.49-89.12,28-110.82-4a76.44,76.44,0,0,1-12.18,2,73.16,73.16,0,0,1-19.2-.76,49.24,49.24,0,0,1-21-8.85C1138.89,451.44,1136,445,1136,445l-1.34-.19c-6.14.91-34.71,5.54-58.66,16.19-30.6,13.6-99,51-99,51-.9-3.14-3.61-27.87-6.78-57.5l-38.84,15-4.21,1.63-20.09,7.78-36.53,14.14C873.17,540.13,883,588.9,910,611c44,36,159-22,159-22l-15,109h137.22s-14.07,3.75-43,15.45l6.66,14.91Z" class="cls-21"/><path d="M974,567a46,46,0,0,0-46,46,46.69,46.69,0,0,0,.55,7.14c26.22,7,62.26-1.22,91.28-11A46,46,0,0,0,974,567Z" class="cls-9"/><path d="M929,484a46.11,46.11,0,0,0-1.83-12.84l-20.09,7.78-36.53,14.14c.67,12.07,1.82,24.25,3.61,36.06A46,46,0,0,0,929,484Z" class="cls-9"/><path d="M1062,516a46,46,0,0,0,42-64.71,196.44,196.44,0,0,0-28,9.71c-14.08,6.26-36.17,17.56-55.92,27.94A46,46,0,0,0,1062,516Z" class="cls-9"/><circle cx="1174" cy="575" r="46" class="cls-9"/><path d="M1084,648a45.79,45.79,0,0,0-24,6.79L1054,698h75.81c.12-1.32.19-2.65.19-4A46,46,0,0,0,1084,648Z" class="cls-9"/><path d="M1249.08,493.38c0,.87-.08,1.74-.08,2.62a46,46,0,0,0,86.29,22.18c-7.07-19.83-15.62-37-25.29-49.18h0C1292.35,488.41,1269.84,495.36,1249.08,493.38Z" class="cls-9"/><path d="M1292,688a46,46,0,0,0,42.84,45.88A52.83,52.83,0,0,0,1342,724c10.2-18.42,14.77-46.59,14.81-78A46,46,0,0,0,1292,688Z" class="cls-9"/><path d="M1195,734a45.83,45.83,0,0,0-31.87,12.85l2.57,5.75,15.4,34.51a601.45,601.45,0,0,0,59.77-10.34A46,46,0,0,0,1195,734Z" class="cls-9"/><path d="M1272.5,669.5c-26.88,9.16-63.13,20.3-85.5,27.5" class="cls-16"/><line x1="1244.01" x2="1253.5" y1="572.3" y2="675.5" class="cls-16"/><path d="M1047.31,824.62c3.28-10.13,10.27-30.94,16.41-44.25" class="cls-23"/><path d="M1083.25,788.74c-13.94,30-22.12,64.2-25.15,78.38" class="cls-23"/><path d="M1102.78,798.5c-9,20.76-16.88,49.1-21.3,66.54" class="cls-23"/><line x1="1072.23" x2="1066.79" y1="553.45" y2="589.75" class="cls-16"/><path d="M1305,371c-30.56-27.5-67.27-19.84-67.27-19.84,1.39-16.74,4.18-60-32.09-86.5s-82.32-12.55-99.06,8.37c-6.82,8.53-10.17,20.08-12.12,32.65,11.14,1.88,27.47-1.95,27.47-1.95,22.32,25.11,46,30.69,46,30.69,15.35-16.74,43.25-16.74,47.44,7,4.63,26.25-27.91,33.48-27.91,33.48s-6.9,37.41,4.5,75.12a55.25,55.25,0,0,0,7.18,15c21.7,32,75.83,42.5,110.82,4a70.74,70.74,0,0,0,4.81-6.68C1324.9,446.69,1344.31,406.38,1305,371Z" class="cls-1"/><path d="M1139.92,421.3a89.68,89.68,0,0,0,18.58-7.8" class="cls-23"/><path d="M1239.28,350.87c-.76,7.63-1.78,17.13-2.78,24.63" class="cls-24"/><line x1="1183.38" x2="1195.83" y1="352.45" y2="345.53" class="cls-23"/><path d="M1112.62,384.91c2.29,1.43,10.86,2.54,14.34-4.05" class="cls-23"/><circle cx="1135.16" cy="349.65" r="4.15" class="cls-1"/><path d="M1112.11,359.76c-.64,2.76-1.17,5.77-.73,6.8a6.07,6.07,0,0,0,2.84,2.84" class="cls-23"/><ellipse cx="1093" cy="344" class="cls-24" rx="20" ry="18" transform="translate(511.01 1331.06) rotate(-76.95)"/><ellipse cx="1137" cy="351" class="cls-24" rx="20" ry="18" transform="translate(538.26 1379.34) rotate(-76.95)"/><line x1="1111.5" x2="1118.5" y1="346.5" y2="347.5" class="cls-24"/><path d="M913.5,332.5s19,16,21,20c0,0-31,32-7,71" class="cls-23"/><rect width="16" height="307.3" x="926.04" y="198.42" class="cls-1" rx="8" transform="matrix(0.85, 0.52, -0.52, 0.85, 321.93, -436.41)"/><path d="M1029.09,164.57l17.22-13.78a8.8,8.8,0,0,1,14.15,8.52L1056.33,181a8.8,8.8,0,0,0,3.81,9l18.42,12.12a8.8,8.8,0,0,1-3.73,16.09L1053,221a8.81,8.81,0,0,0-7.39,6.41l-5.83,21.26a8.81,8.81,0,0,1-16.46,1.42l-9.39-20a8.8,8.8,0,0,0-8.38-5l-22,1A8.8,8.8,0,0,1,977,210.87l16.07-15.1a8.81,8.81,0,0,0,2.21-9.53l-7.78-20.63A8.81,8.81,0,0,1,1000,154.78l19.33,10.63A8.82,8.82,0,0,0,1029.09,164.57Z" class="cls-5"/><path d="M926,327c-7-6-20.45-9.89-27-6-11.06,6.57-8.34,19.33-8.34,19.33s-18-2.8-17.78,15.64c0,0-14.49,6.34-8.15,20.83,0,0-12.54,3.17-6.58,18.61C863,408,874.19,414.59,881,418c6,3,15.2-1.33,12-13,0,0,7,2,11-2,5.52-5.52,3-16,3-16s7,2,12-2c6.1-4.88,3-14,3-14a12.44,12.44,0,0,0,10-8c4-10-11-22-11-22Z" class="cls-17"/><path d="M864,377.37A242.51,242.51,0,0,0,893,407" class="cls-23"/><path d="M873,355.88a206.29,206.29,0,0,0,35.06,33.79" class="cls-23"/><path d="M889,341.17a146.45,146.45,0,0,0,33.69,32.07" class="cls-23"/><path d="M913.5,332.5s9.37,7.89,15.64,14" class="cls-23"/><path d="M1148.45,242.72l-5.28,5.81-3.51,3.86,0,0h0c-2.23,7.8,14,20.23,36.57,27.93s43,7.77,46,.23h0v0l-.42-5.2-.63-7.83c-8.48,2-23.17.39-38.91-5S1153.92,249.52,1148.45,242.72Z" class="cls-13"/><path d="M1188.37,244.74c-11.8-4-21.86-9.34-28.46-14.62l-11.46,12.6c5.47,6.8,18.11,14.46,33.84,19.83s30.43,7,38.91,5l-1.37-17C1211.38,250.7,1200.17,248.76,1188.37,244.74Z" class="cls-9"/><path d="M1172.17,216.64l-12.26,13.48c6.6,5.28,16.66,10.6,28.46,14.62s23,6,31.46,5.82l-1.47-18.17a117.93,117.93,0,0,1-46.19-15.75Z" class="cls-13"/><path d="M1200.52,209.12a119.27,119.27,0,0,1-15.58-6.53l-12.77,14a117.93,117.93,0,0,0,46.19,15.75l-1.53-18.92A120.78,120.78,0,0,1,1200.52,209.12Z" class="cls-9"/><path d="M1216.83,213.47l-3.41-42.2-28.48,31.32a119.27,119.27,0,0,0,15.58,6.53A120.78,120.78,0,0,0,1216.83,213.47Z" class="cls-13"/><circle cx="1215.82" cy="164.23" r="15.4" class="cls-9"/></g></svg>