<svg xmlns="http://www.w3.org/2000/svg" xmlns:xlink="http://www.w3.org/1999/xlink" id="Layer_1" x="0" y="0" version="1.1" viewBox="0 0 1920 1080" xml:space="preserve" style="enable-background:new 0 0 1920 1080"><style type="text/css">.st0{fill:#999}</style><circle cx="246.5" cy="147.5" r="70.5" class="st0"/><circle cx="538.19" cy="147.5" r="70.5" class="st0"/><circle cx="829.88" cy="147.5" r="70.5" class="st0"/><circle cx="1121.57" cy="147.5" r="70.5" class="st0"/><circle cx="1413.26" cy="147.5" r="70.5" class="st0"/><circle cx="1704.95" cy="147.5" r="70.5" class="st0"/><circle cx="246.5" cy="410.16" r="70.5" class="st0"/><circle cx="538.19" cy="410.16" r="70.5" class="st0"/><circle cx="829.88" cy="410.16" r="70.5" class="st0"/><circle cx="1121.57" cy="410.16" r="70.5" class="st0"/><circle cx="1413.26" cy="410.16" r="70.5" class="st0"/><circle cx="1704.95" cy="410.16" r="70.5" class="st0"/><circle cx="247.89" cy="693.56" r="70.5" class="st0"/><circle cx="539.58" cy="693.56" r="70.5" class="st0"/><circle cx="831.27" cy="693.56" r="70.5" class="st0"/><circle cx="1122.96" cy="693.56" r="70.5" class="st0"/><circle cx="1414.65" cy="693.56" r="70.5" class="st0"/><circle cx="1706.34" cy="693.56" r="70.5" class="st0"/><circle cx="247.89" cy="942.39" r="70.5" class="st0"/><circle cx="539.58" cy="942.39" r="70.5" class="st0"/><circle cx="831.27" cy="942.39" r="70.5" class="st0"/><circle cx="1122.96" cy="942.39" r="70.5" class="st0"/><circle cx="1414.65" cy="942.39" r="70.5" class="st0"/><circle cx="1706.34" cy="942.39" r="70.5" class="st0"/></svg>